<?xml version="1.0" standalone="no"?>
<!DOCTYPE svg PUBLIC "-//W3C//DTD SVG 20010904//EN"
 "http://www.w3.org/TR/2001/REC-SVG-20010904/DTD/svg10.dtd">
<svg version="1.0" xmlns="http://www.w3.org/2000/svg"
 width="700.000000pt" height="700.000000pt" viewBox="0 0 700.000000 700.000000"
 preserveAspectRatio="xMidYMid meet">
<metadata>
Created by potrace 1.11, written by Peter Selinger 2001-2013
</metadata>
<g transform="translate(0.000000,700.000000) scale(0.100000,-0.100000)"
fill="#000000" stroke="none">
<path d="M1260 4296 l0 -1445 595 1 c327 0 596 3 596 6 1 4 2 654 3 1445 l1
1437 -597 0 -598 0 0 -1444z"/>
<path d="M2933 5018 l2 -722 588 -1 c324 0 592 2 596 5 4 3 7 328 7 723 l0
717 -598 0 -597 0 2 -722z"/>
<path d="M4545 4443 l0 -1298 598 -3 597 -2 0 1300 0 1300 -598 0 -597 0 0
-1297z"/>
<path d="M2936 3852 c-3 -5 -5 -590 -5 -1300 l0 -1292 598 0 597 0 0 1300 0
1300 -592 0 c-326 0 -595 -4 -598 -8z"/>
<path d="M4551 2700 c-4 -3 -7 -327 -6 -720 l0 -715 598 -3 597 -2 -2 722 -3
722 -588 1 c-324 0 -592 -2 -596 -5z"/>
<path d="M1260 1838 l0 -578 598 0 597 0 -1 568 c-1 312 -2 572 -3 577 -1 7
-205 10 -596 10 l-595 0 0 -577z"/>
</g>
</svg>
