<?xml version="1.0" encoding="utf-8"?>
<!-- Generator: Adobe Illustrator 21.0.0, SVG Export Plug-In . SVG Version: 6.00 Build 0)  -->
<svg version="1.1" id="Layer_1" xmlns="http://www.w3.org/2000/svg" xmlns:xlink="http://www.w3.org/1999/xlink" x="0px" y="0px"
	 viewBox="0 0 100.83 32.143" enable-background="new 0 0 100.83 32.143" xml:space="preserve">
<g>
	<g>
		<path fill="#A7A9AC" d="M83.704,32.143v-5.99H6.229C2.794,26.152,0,23.358,0,19.923V6.229C0,2.794,2.794,0,6.229,0H94.6
			c3.436,0,6.23,2.794,6.23,6.229v13.693c0,3.436-2.795,6.229-6.23,6.229h-4.906L83.704,32.143z M6.229,0.35
			c-3.242,0-5.88,2.638-5.88,5.88v13.693c0,3.242,2.638,5.88,5.88,5.88h77.824v5.494l5.495-5.494H94.6
			c3.242,0,5.881-2.638,5.881-5.88V6.229c0-3.242-2.639-5.88-5.881-5.88H6.229z"/>
		<path fill="#FFFFFF" d="M100.48,19.923V6.229c0-3.242-2.639-5.88-5.881-5.88H6.229c-3.242,0-5.88,2.638-5.88,5.88v13.693
			c0,3.242,2.638,5.88,5.88,5.88h77.824v5.494l5.495-5.494H94.6C97.842,25.803,100.48,23.165,100.48,19.923z"/>
	</g>
	<path fill="#00CAFF" d="M13.312,3.184c-5.473,0-9.893,4.463-9.893,9.893s4.419,9.893,9.893,9.893s9.893-4.463,9.893-9.893
		S18.785,3.184,13.312,3.184z M11.76,22.845v-1.961c0-0.697-0.427-1.319-1.075-1.594c-2.424-1.029-4.12-3.435-4.12-6.213
		c0-3.703,3.014-6.746,6.746-6.746c3.732,0,6.746,3.043,6.746,6.746C20.058,17.445,16.678,21.576,11.76,22.845z"/>
	<g>
		<path d="M29.836,10.43c1.384,0,2.076,0.596,2.076,1.789v4.249c0,0.12-0.06,0.18-0.18,0.18H31.48c-0.12,0-0.184-0.06-0.192-0.18
			l-0.048-0.516c-0.688,0.552-1.409,0.828-2.161,0.828c-0.552,0-0.99-0.158-1.314-0.474c-0.324-0.316-0.486-0.738-0.486-1.266
			c0-0.584,0.198-1.044,0.594-1.38c0.396-0.336,0.942-0.504,1.639-0.504c0.256,0,0.536,0.024,0.84,0.072
			c0.304,0.048,0.596,0.116,0.876,0.204v-1.008c0-0.488-0.116-0.838-0.348-1.05c-0.232-0.212-0.616-0.318-1.152-0.318
			c-0.496,0-1.02,0.08-1.572,0.24c-0.088,0.024-0.158,0.046-0.21,0.066c-0.052,0.02-0.094,0.03-0.126,0.03
			c-0.096,0-0.144-0.052-0.144-0.156v-0.192c0-0.12,0.052-0.2,0.156-0.24c0.304-0.12,0.63-0.212,0.978-0.276
			C29.157,10.462,29.499,10.43,29.836,10.43z M29.667,13.731c-1.12,0-1.68,0.432-1.68,1.296c0,0.752,0.396,1.128,1.188,1.128
			c0.304,0,0.632-0.06,0.984-0.18c0.352-0.12,0.708-0.296,1.068-0.528v-1.5C30.684,13.803,30.163,13.731,29.667,13.731z"/>
		<path d="M40.459,10.43c0.552,0,0.972,0.154,1.26,0.462c0.288,0.308,0.432,0.762,0.432,1.362v4.213c0,0.12-0.06,0.18-0.18,0.18
			h-0.324c-0.12,0-0.18-0.06-0.18-0.18v-3.925c0-0.528-0.09-0.908-0.27-1.14c-0.18-0.232-0.474-0.348-0.882-0.348
			c-0.768,0-1.493,0.252-2.173,0.756c0.024,0.192,0.036,0.38,0.036,0.564v4.093c0,0.12-0.06,0.18-0.18,0.18h-0.324
			c-0.12,0-0.18-0.06-0.18-0.18v-3.925c0-0.528-0.09-0.908-0.27-1.14c-0.18-0.232-0.474-0.348-0.882-0.348
			c-0.744,0-1.456,0.244-2.137,0.732v4.681c0,0.12-0.06,0.18-0.18,0.18h-0.324c-0.12,0-0.18-0.06-0.18-0.18v-5.677
			c0-0.12,0.06-0.18,0.18-0.18h0.24c0.12,0,0.188,0.06,0.204,0.18l0.048,0.48c0.36-0.264,0.736-0.47,1.128-0.618
			c0.392-0.148,0.78-0.222,1.164-0.222c0.752,0,1.256,0.308,1.512,0.924c0.384-0.304,0.786-0.534,1.206-0.69
			C39.624,10.509,40.042,10.43,40.459,10.43z"/>
		<path d="M45.932,10.43c1.384,0,2.076,0.596,2.076,1.789v4.249c0,0.12-0.06,0.18-0.18,0.18h-0.252c-0.12,0-0.184-0.06-0.192-0.18
			l-0.048-0.516c-0.688,0.552-1.409,0.828-2.161,0.828c-0.552,0-0.99-0.158-1.314-0.474c-0.324-0.316-0.486-0.738-0.486-1.266
			c0-0.584,0.198-1.044,0.594-1.38c0.396-0.336,0.942-0.504,1.639-0.504c0.256,0,0.536,0.024,0.84,0.072
			c0.304,0.048,0.596,0.116,0.876,0.204v-1.008c0-0.488-0.116-0.838-0.348-1.05c-0.232-0.212-0.616-0.318-1.152-0.318
			c-0.496,0-1.02,0.08-1.572,0.24c-0.088,0.024-0.158,0.046-0.21,0.066c-0.052,0.02-0.094,0.03-0.126,0.03
			c-0.096,0-0.144-0.052-0.144-0.156v-0.192c0-0.12,0.052-0.2,0.156-0.24c0.304-0.12,0.63-0.212,0.978-0.276
			C45.254,10.462,45.596,10.43,45.932,10.43z M45.764,13.731c-1.12,0-1.681,0.432-1.681,1.296c0,0.752,0.396,1.128,1.188,1.128
			c0.304,0,0.632-0.06,0.984-0.18c0.352-0.12,0.708-0.296,1.069-0.528v-1.5C46.78,13.803,46.26,13.731,45.764,13.731z"/>
		<path d="M53.746,16.228v0.24c0,0.12-0.06,0.18-0.18,0.18h-4.225c-0.12,0-0.18-0.06-0.18-0.18v-0.252c0-0.08,0.01-0.144,0.03-0.192
			c0.02-0.048,0.058-0.104,0.114-0.168l3.649-4.645h-3.493c-0.12,0-0.18-0.06-0.18-0.18v-0.24c0-0.12,0.06-0.18,0.18-0.18h4.081
			c0.12,0,0.18,0.06,0.18,0.18v0.252c0,0.064-0.01,0.124-0.03,0.18c-0.02,0.056-0.062,0.12-0.126,0.192l-3.661,4.634h3.661
			C53.686,16.048,53.746,16.108,53.746,16.228z"/>
		<path d="M57.275,16.828c-0.872,0-1.555-0.278-2.047-0.834c-0.492-0.556-0.738-1.346-0.738-2.371s0.246-1.813,0.738-2.365
			c0.492-0.552,1.174-0.828,2.047-0.828c0.872,0,1.554,0.276,2.046,0.828c0.492,0.552,0.738,1.34,0.738,2.365
			s-0.246,1.814-0.738,2.371C58.829,16.55,58.147,16.828,57.275,16.828z M57.275,16.204c1.384,0,2.077-0.86,2.077-2.581
			c0-1.712-0.692-2.569-2.077-2.569c-1.384,0-2.076,0.856-2.076,2.569C55.198,15.344,55.89,16.204,57.275,16.204z"/>
		<path d="M64.549,10.43c0.592,0,1.04,0.154,1.344,0.462c0.304,0.308,0.456,0.762,0.456,1.362v4.213c0,0.12-0.06,0.18-0.18,0.18
			h-0.324c-0.12,0-0.18-0.06-0.18-0.18v-3.925c0-0.528-0.1-0.908-0.3-1.14c-0.2-0.232-0.52-0.348-0.96-0.348
			c-0.424,0-0.828,0.066-1.212,0.198c-0.384,0.132-0.76,0.322-1.128,0.57v4.645c0,0.12-0.06,0.18-0.18,0.18H61.56
			c-0.12,0-0.18-0.06-0.18-0.18v-5.677c0-0.12,0.06-0.18,0.18-0.18h0.24c0.12,0,0.188,0.06,0.204,0.18l0.048,0.516
			c0.384-0.28,0.792-0.496,1.224-0.648C63.708,10.507,64.133,10.43,64.549,10.43z"/>
		<path d="M73.035,10.43c1.384,0,2.076,0.596,2.076,1.789v4.249c0,0.12-0.06,0.18-0.18,0.18H74.68c-0.12,0-0.184-0.06-0.192-0.18
			l-0.048-0.516c-0.688,0.552-1.409,0.828-2.161,0.828c-0.552,0-0.99-0.158-1.314-0.474c-0.324-0.316-0.486-0.738-0.486-1.266
			c0-0.584,0.198-1.044,0.594-1.38c0.396-0.336,0.942-0.504,1.639-0.504c0.256,0,0.536,0.024,0.84,0.072
			c0.304,0.048,0.596,0.116,0.876,0.204v-1.008c0-0.488-0.116-0.838-0.348-1.05c-0.232-0.212-0.616-0.318-1.152-0.318
			c-0.496,0-1.02,0.08-1.572,0.24c-0.088,0.024-0.158,0.046-0.21,0.066c-0.052,0.02-0.094,0.03-0.126,0.03
			c-0.096,0-0.144-0.052-0.144-0.156v-0.192c0-0.12,0.052-0.2,0.156-0.24c0.304-0.12,0.63-0.212,0.978-0.276
			C72.357,10.462,72.699,10.43,73.035,10.43z M72.867,13.731c-1.12,0-1.68,0.432-1.68,1.296c0,0.752,0.396,1.128,1.188,1.128
			c0.304,0,0.632-0.06,0.984-0.18c0.352-0.12,0.708-0.296,1.068-0.528v-1.5C73.883,13.803,73.363,13.731,72.867,13.731z"/>
		<path d="M76.696,7.946c0-0.12,0.06-0.18,0.18-0.18H77.2c0.12,0,0.18,0.06,0.18,0.18v7.658c0,0.176,0.034,0.3,0.102,0.372
			c0.068,0.072,0.19,0.108,0.366,0.108c0.048,0,0.102-0.004,0.162-0.012c0.06-0.008,0.11-0.012,0.15-0.012
			c0.112,0,0.168,0.056,0.168,0.168v0.228c0,0.096-0.052,0.156-0.156,0.18c-0.048,0.016-0.118,0.028-0.21,0.036
			c-0.092,0.008-0.174,0.012-0.246,0.012c-0.32,0-0.57-0.094-0.75-0.282c-0.18-0.188-0.27-0.45-0.27-0.786V7.946z"/>
		<path d="M83.233,16c0.104-0.032,0.18-0.058,0.228-0.078c0.048-0.02,0.092-0.03,0.132-0.03c0.096,0,0.144,0.052,0.144,0.156v0.168
			c0,0.128-0.044,0.212-0.132,0.252c-0.576,0.24-1.188,0.36-1.837,0.36c-0.92,0-1.623-0.266-2.107-0.798
			c-0.484-0.532-0.726-1.31-0.726-2.335c0-0.504,0.064-0.958,0.192-1.362c0.128-0.404,0.314-0.748,0.558-1.032
			c0.244-0.284,0.542-0.5,0.894-0.648c0.352-0.148,0.748-0.222,1.188-0.222c0.696,0,1.234,0.16,1.614,0.48
			c0.38,0.32,0.57,0.768,0.57,1.345c0,0.568-0.202,0.986-0.606,1.254c-0.404,0.268-1.03,0.402-1.879,0.402
			c-0.304,0-0.61-0.018-0.918-0.054c-0.308-0.036-0.614-0.098-0.918-0.186c0,0.864,0.182,1.502,0.546,1.914
			c0.364,0.412,0.91,0.618,1.638,0.618C82.289,16.204,82.761,16.136,83.233,16z M81.709,11.043c-0.6,0-1.074,0.176-1.422,0.528
			c-0.348,0.352-0.558,0.868-0.63,1.548c0.312,0.08,0.622,0.14,0.93,0.18c0.308,0.04,0.618,0.06,0.93,0.06
			c0.6,0,1.04-0.088,1.321-0.264c0.28-0.176,0.42-0.456,0.42-0.84C83.257,11.447,82.741,11.043,81.709,11.043z"/>
		<path d="M87.252,13.983l-1.741,2.533c-0.064,0.088-0.148,0.132-0.252,0.132h-0.336c-0.104,0-0.156-0.044-0.156-0.132
			c0-0.032,0.028-0.084,0.084-0.156l2.053-2.857l-1.873-2.617c-0.048-0.072-0.072-0.12-0.072-0.144c0-0.088,0.052-0.132,0.156-0.132
			h0.372c0.104,0,0.188,0.044,0.252,0.132l1.573,2.233l1.572-2.233c0.064-0.088,0.144-0.132,0.24-0.132h0.324
			c0.104,0,0.156,0.044,0.156,0.132c0,0.032-0.024,0.084-0.072,0.156l-1.849,2.557l2.053,2.905c0.048,0.072,0.072,0.124,0.072,0.156
			c0,0.088-0.052,0.132-0.156,0.132h-0.372c-0.096,0-0.176-0.044-0.24-0.132L87.252,13.983z"/>
		<path d="M93.082,10.43c1.384,0,2.076,0.596,2.076,1.789v4.249c0,0.12-0.06,0.18-0.18,0.18h-0.252c-0.12,0-0.184-0.06-0.192-0.18
			l-0.048-0.516c-0.688,0.552-1.409,0.828-2.161,0.828c-0.552,0-0.99-0.158-1.314-0.474c-0.324-0.316-0.486-0.738-0.486-1.266
			c0-0.584,0.198-1.044,0.594-1.38c0.396-0.336,0.942-0.504,1.639-0.504c0.256,0,0.536,0.024,0.84,0.072
			c0.304,0.048,0.596,0.116,0.876,0.204v-1.008c0-0.488-0.116-0.838-0.348-1.05c-0.232-0.212-0.616-0.318-1.152-0.318
			c-0.496,0-1.02,0.08-1.572,0.24c-0.088,0.024-0.158,0.046-0.21,0.066c-0.052,0.02-0.094,0.03-0.126,0.03
			c-0.096,0-0.144-0.052-0.144-0.156v-0.192c0-0.12,0.052-0.2,0.156-0.24c0.304-0.12,0.63-0.212,0.978-0.276
			C92.404,10.462,92.746,10.43,93.082,10.43z M92.914,13.731c-1.12,0-1.68,0.432-1.68,1.296c0,0.752,0.396,1.128,1.188,1.128
			c0.304,0,0.632-0.06,0.984-0.18c0.352-0.12,0.708-0.296,1.068-0.528v-1.5C93.93,13.803,93.41,13.731,92.914,13.731z"/>
	</g>
</g>
</svg>
