<svg id="DE_Download_on_the" data-name="DE Download on the" xmlns="http://www.w3.org/2000/svg" viewBox="0 0 200 53.37"><defs><style>.cls-1{fill:#fff;}</style></defs><title>Zeichenfläche 1</title><path class="cls-1" d="M31.69,24.8a10.6,10.6,0,0,1,5-8.89,10.85,10.85,0,0,0-8.55-4.62c-3.6-.38-7.08,2.15-8.92,2.15s-4.69-2.12-7.73-2.05A11.38,11.38,0,0,0,2,17.23C-2.18,24.4.91,34.94,4.88,40.74c2,2.84,4.31,6,7.34,5.9s4.08-1.89,7.67-1.89,4.59,1.89,7.69,1.82,5.2-2.85,7.11-5.72a23.43,23.43,0,0,0,3.25-6.62A10.23,10.23,0,0,1,31.69,24.8Z"/><path class="cls-1" d="M25.84,7.48A10.43,10.43,0,0,0,28.23,0a10.63,10.63,0,0,0-6.87,3.55,9.93,9.93,0,0,0-2.45,7.2A8.78,8.78,0,0,0,25.84,7.48Z"/><path class="cls-1" d="M74.75,46.22H70.6l-2.27-7.14h-7.9l-2.17,7.14h-4L62,21.9h4.84ZM67.64,36.08l-2.06-6.35q-.33-1-1.23-4.59h-.07q-.36,1.55-1.16,4.59l-2,6.35Z"/><path class="cls-1" d="M94.89,37.24a10,10,0,0,1-2.42,7.07,7.07,7.07,0,0,1-5.38,2.31,5.38,5.38,0,0,1-5-2.49H82v9.24h-3.9V34.46q0-2.82-.14-5.78h3.43l.22,2.78h.07a6.93,6.93,0,0,1,11.1-.69A9.68,9.68,0,0,1,94.89,37.24Zm-4,.14a7.22,7.22,0,0,0-1.16-4.22,4,4,0,0,0-3.39-1.73,4,4,0,0,0-2.62,1,4.42,4.42,0,0,0-1.53,2.51A5.1,5.1,0,0,0,82,36.08V39a4.68,4.68,0,0,0,1.17,3.23,3.89,3.89,0,0,0,3,1.32,4,4,0,0,0,3.43-1.7A7.47,7.47,0,0,0,90.92,37.38Z"/><path class="cls-1" d="M115.07,37.24a10,10,0,0,1-2.42,7.07,7.06,7.06,0,0,1-5.38,2.31,5.38,5.38,0,0,1-5-2.49h-.07v9.24h-3.9V34.46q0-2.82-.14-5.78h3.43l.22,2.78h.07a6.94,6.94,0,0,1,11.1-.69A9.7,9.7,0,0,1,115.07,37.24Zm-4,.14a7.22,7.22,0,0,0-1.16-4.22,4,4,0,0,0-3.39-1.73,4,4,0,0,0-2.62,1,4.42,4.42,0,0,0-1.53,2.51,5.2,5.2,0,0,0-.18,1.19V39a4.69,4.69,0,0,0,1.17,3.23,3.9,3.9,0,0,0,3.05,1.32,4,4,0,0,0,3.43-1.7A7.47,7.47,0,0,0,111.1,37.38Z"/><path class="cls-1" d="M137.63,39.4a6.5,6.5,0,0,1-2.16,5.05,9.58,9.58,0,0,1-6.63,2.13,11.59,11.59,0,0,1-6.31-1.51l.9-3.25a10.66,10.66,0,0,0,5.63,1.55,5.3,5.3,0,0,0,3.43-1,3.25,3.25,0,0,0,1.23-2.66,3.4,3.4,0,0,0-1-2.5,9.43,9.43,0,0,0-3.36-1.88Q123,33,123,28.37a6.18,6.18,0,0,1,2.24-4.92,8.84,8.84,0,0,1,6-1.92,11.81,11.81,0,0,1,5.52,1.16l-1,3.18a9.59,9.59,0,0,0-4.66-1.12,4.73,4.73,0,0,0-3.21,1,2.89,2.89,0,0,0-1,2.2A3,3,0,0,0,128,30.35a12.65,12.65,0,0,0,3.54,1.88,12,12,0,0,1,4.62,3A6.16,6.16,0,0,1,137.63,39.4Z"/><path class="cls-1" d="M150.51,31.61h-4.3v8.52q0,3.25,2.27,3.25a6.87,6.87,0,0,0,1.73-.18l.11,3a8.81,8.81,0,0,1-3,.43,4.66,4.66,0,0,1-3.61-1.41q-1.3-1.41-1.3-4.73V31.6h-2.56V28.68h2.56V25.47l3.82-1.16v4.37h4.3Z"/><path class="cls-1" d="M169.9,37.31A9.62,9.62,0,0,1,167.59,44a8.24,8.24,0,0,1-6.42,2.67A7.85,7.85,0,0,1,155,44.06a9.34,9.34,0,0,1-2.29-6.46,9.55,9.55,0,0,1,2.36-6.68,8.2,8.2,0,0,1,6.37-2.6,8,8,0,0,1,6.21,2.56A9.24,9.24,0,0,1,169.9,37.31Zm-4,.13a7.92,7.92,0,0,0-1-4.16,3.85,3.85,0,0,0-3.5-2.1,3.91,3.91,0,0,0-3.57,2.1,8.07,8.07,0,0,0-1,4.23,7.92,7.92,0,0,0,1,4.16,4,4,0,0,0,7,0A7.92,7.92,0,0,0,165.86,37.44Z"/><path class="cls-1" d="M182.56,32.11a6.56,6.56,0,0,0-1.22-.11,3.68,3.68,0,0,0-3.18,1.55,5.85,5.85,0,0,0-1,3.47v9.2h-3.9l0-12q0-3-.14-5.52h3.39l.15,3.36h.11a6,6,0,0,1,1.95-2.78,4.71,4.71,0,0,1,2.81-.94,6.26,6.26,0,0,1,1,.07Z"/><path class="cls-1" d="M200,36.62a9.12,9.12,0,0,1-.15,1.77H188.16a5.1,5.1,0,0,0,1.7,4,5.8,5.8,0,0,0,3.83,1.22,12.91,12.91,0,0,0,4.73-.83l.61,2.71a14.68,14.68,0,0,1-5.88,1.08,8.51,8.51,0,0,1-6.41-2.4,8.85,8.85,0,0,1-2.33-6.44,10.06,10.06,0,0,1,2.16-6.61,7.48,7.48,0,0,1,6.14-2.82,6.54,6.54,0,0,1,5.74,2.82A9.46,9.46,0,0,1,200,36.62Zm-3.72-1a5.33,5.33,0,0,0-.76-3,3.4,3.4,0,0,0-3.1-1.63,3.7,3.7,0,0,0-3.1,1.59,5.85,5.85,0,0,0-1.16,3h8.12Z"/><path class="cls-1" d="M63.32,13.19H56.52v-12h1.92V11.58h4.88Z"/><path class="cls-1" d="M72.34,13.19H70.62l-.14-1h-.05a3,3,0,0,1-2.52,1.19,2.6,2.6,0,0,1-2-.78,2.45,2.45,0,0,1-.67-1.76,2.68,2.68,0,0,1,1.32-2.41,6.85,6.85,0,0,1,3.71-.82V7.46q0-1.7-1.79-1.7a4,4,0,0,0-2.25.64l-.39-1.26a5.53,5.53,0,0,1,3-.74q3.38,0,3.38,3.56v3.17A13.25,13.25,0,0,0,72.34,13.19Zm-2-3V8.9q-3.17-.05-3.17,1.74a1.3,1.3,0,0,0,.37,1,1.34,1.34,0,0,0,.93.34,1.94,1.94,0,0,0,1.17-.4,1.62,1.62,0,0,0,.66-1A1.51,1.51,0,0,0,70.36,10.23Z"/><path class="cls-1" d="M83.23,13.19h-1.7l-.09-1.38h-.05a2.86,2.86,0,0,1-2.77,1.58A3.24,3.24,0,0,1,76,12.16,4.76,4.76,0,0,1,75,9,5,5,0,0,1,76.12,5.6a3.44,3.44,0,0,1,2.66-1.21,2.58,2.58,0,0,1,2.43,1.17h0V.62h1.92V10.87Q83.16,12.13,83.23,13.19Zm-2-3.64V8.12a2.82,2.82,0,0,0-.05-.6,2.17,2.17,0,0,0-.69-1.16,1.88,1.88,0,0,0-1.28-.47,2,2,0,0,0-1.68.85,3.64,3.64,0,0,0-.61,2.18A3.4,3.4,0,0,0,77.51,11a2,2,0,0,0,1.67.85,1.84,1.84,0,0,0,1.51-.71A2.37,2.37,0,0,0,81.25,9.55Z"/><path class="cls-1" d="M93.66,8.47a4.63,4.63,0,0,1-.07.87H87.84a2.51,2.51,0,0,0,.83,2,2.85,2.85,0,0,0,1.88.6,6.33,6.33,0,0,0,2.32-.41l.3,1.33a7.21,7.21,0,0,1-2.89.53,4.18,4.18,0,0,1-3.15-1.18A4.35,4.35,0,0,1,86,9a4.93,4.93,0,0,1,1.06-3.24,3.67,3.67,0,0,1,3-1.38,3.21,3.21,0,0,1,2.82,1.38A4.61,4.61,0,0,1,93.66,8.47ZM91.83,8a2.61,2.61,0,0,0-.37-1.47,1.67,1.67,0,0,0-1.52-.8,1.82,1.82,0,0,0-1.53.78A2.88,2.88,0,0,0,87.84,8Z"/><path class="cls-1" d="M103.93,13.19H102V8.25Q102,6,100.27,6a1.73,1.73,0,0,0-1.38.63,2.23,2.23,0,0,0-.53,1.48v5.11H96.44V7q0-1.14-.07-2.47h1.68l.09,1.35h.05a2.77,2.77,0,0,1,1-1,3.24,3.24,0,0,1,1.74-.48,2.75,2.75,0,0,1,2,.78,3.8,3.8,0,0,1,1,2.86Z"/><path class="cls-1" d="M114.6,2a1.1,1.1,0,0,1-.34.83,1.21,1.21,0,0,1-.87.32,1.09,1.09,0,0,1-.81-.33,1.11,1.11,0,0,1-.33-.82,1.07,1.07,0,0,1,.34-.82,1.24,1.24,0,0,1,1.67,0A1.07,1.07,0,0,1,114.6,2Zm-.21,11.19h-1.92V4.57h1.92Z"/><path class="cls-1" d="M130.14,13.19h-1.88V8.36c0-1.59-.55-2.39-1.63-2.39a1.51,1.51,0,0,0-1.25.59A2.16,2.16,0,0,0,124.9,8v5.24H123V8.11a2.72,2.72,0,0,0-.4-1.56A1.34,1.34,0,0,0,121.45,6a1.55,1.55,0,0,0-1.28.64,2.28,2.28,0,0,0-.5,1.45v5.13h-1.88V7q0-1.14-.07-2.47h1.65l.09,1.31h.05a2.88,2.88,0,0,1,2.63-1.49A2.34,2.34,0,0,1,124.52,6h0a3.36,3.36,0,0,1,1-1.08,3,3,0,0,1,1.75-.53,2.5,2.5,0,0,1,1.9.78,4.09,4.09,0,0,1,.92,2.91v5.11Z"/></svg>