<?xml version="1.0" encoding="utf-8"?>
<!-- Generator: Adobe Illustrator 16.0.3, SVG Export Plug-In . SVG Version: 6.00 Build 0)  -->
<!DOCTYPE svg PUBLIC "-//W3C//DTD SVG 1.1//EN" "http://www.w3.org/Graphics/SVG/1.1/DTD/svg11.dtd">
<svg version="1.1" id="SemiBold" xmlns="http://www.w3.org/2000/svg" xmlns:xlink="http://www.w3.org/1999/xlink" x="0px" y="0px"
	 width="196.85px" height="55.151px" viewBox="0 0 196.85 55.151" enable-background="new 0 0 196.85 55.151" xml:space="preserve">
<g>
	<g>
		<path fill="#FFFFFF" d="M137.7,42.459l-1.614,1.522c-0.372,0.205-0.743,0.443-1.113,0.612c-1.121,0.509-2.261,0.637-3.274,0.637
			c-1.078,0-2.768-0.069-4.491-1.316c-2.396-1.688-3.442-4.587-3.442-7.114c0-5.232,4.259-7.798,7.732-7.798
			c1.215,0,2.462,0.304,3.476,0.945c1.686,1.114,2.122,2.563,2.364,3.34l-7.934,3.205l-2.598,0.202
			c0.841,4.289,3.743,6.784,6.95,6.784c1.602,0,2.791-0.522,3.882-1.062C137.638,42.417,137.856,42.303,137.7,42.459z
			 M132.914,33.926c0.645-0.234,0.979-0.437,0.979-0.906c0-1.348-1.525-2.904-3.345-2.904c-1.349,0-3.879,1.05-3.879,4.695
			c0,0.569,0.067,1.175,0.102,1.781L132.914,33.926z"/>
		<path fill="#FFFFFF" d="M121.113,42.197c0,1.312,0.234,1.516,1.343,1.618c0.578,0.068,1.154,0.099,1.725,0.166l-1.248,0.743
			h-5.947c0.78-1.012,0.914-1.112,0.914-1.787v-0.753l-0.013-20.063h-2.626l2.527-1.218h4.826c-1.046,0.605-1.358,0.975-1.493,2.155
			L121.113,42.197z"/>
		<path fill="#FFFFFF" d="M111.891,30.658c0.774,0.637,2.392,1.988,2.392,4.553c0,2.499-1.409,3.677-2.83,4.792
			c-0.436,0.438-0.945,0.915-0.945,1.651c0,0.746,0.51,1.151,0.877,1.453l1.219,0.941c1.482,1.251,2.833,2.398,2.833,4.728
			c0,3.175-3.072,6.375-8.877,6.375c-4.89,0-7.254-2.328-7.254-4.825c0-1.216,0.604-2.937,2.601-4.115
			c2.092-1.279,4.927-1.45,6.444-1.55c-0.474-0.612-1.015-1.253-1.015-2.299c0-0.572,0.172-0.913,0.338-1.315
			c-0.369,0.035-0.741,0.071-1.079,0.071c-3.579,0-5.603-2.67-5.603-5.302c0-1.552,0.708-3.273,2.162-4.521
			c1.924-1.584,4.218-1.857,6.041-1.857h6.954l-2.162,1.221H111.891z M109.499,45.639c-0.276-0.036-0.442-0.036-0.776-0.036
			c-0.306,0-2.129,0.066-3.541,0.54c-0.747,0.273-2.906,1.08-2.906,3.478c0,2.392,2.331,4.116,5.938,4.116
			c3.239,0,4.96-1.553,4.96-3.644C113.173,48.372,112.06,47.464,109.499,45.639z M110.47,39.227c0.78-0.778,0.848-1.854,0.848-2.466
			c0-2.427-1.447-6.207-4.252-6.207c-0.875,0-1.823,0.439-2.361,1.118c-0.57,0.703-0.741,1.615-0.741,2.492
			c0,2.26,1.317,6.008,4.217,6.008C109.025,40.172,109.936,39.761,110.47,39.227z"/>
		<path fill="#FFFFFF" d="M90.969,45.161c-5.364,0-8.234-4.178-8.234-7.959c0-4.419,3.608-8.2,8.74-8.2
			c4.961,0,8.068,3.884,8.068,7.962C99.543,40.946,96.472,45.161,90.969,45.161z M95.188,42.431c0.816-1.08,1.014-2.428,1.014-3.742
			c0-2.972-1.416-8.64-5.601-8.64c-1.113,0-2.234,0.435-3.042,1.146c-1.318,1.181-1.553,2.664-1.553,4.12
			c0,3.334,1.647,8.833,5.737,8.833C93.064,44.147,94.411,43.509,95.188,42.431z"/>
		<path fill="#FFFFFF" d="M73.01,45.161c-5.365,0-8.23-4.178-8.23-7.959c0-4.419,3.609-8.2,8.739-8.2
			c4.958,0,8.062,3.884,8.062,7.962C81.58,40.946,78.514,45.161,73.01,45.161z M77.23,42.431c0.81-1.08,1.012-2.428,1.012-3.742
			c0-2.972-1.42-8.64-5.601-8.64c-1.117,0-2.226,0.435-3.036,1.146c-1.32,1.181-1.554,2.664-1.554,4.12
			c0,3.334,1.654,8.833,5.737,8.833C75.106,44.147,76.451,43.509,77.23,42.431z"/>
		<path fill="#FFFFFF" d="M62.635,43.99l-4.524,1.035c-1.833,0.289-3.479,0.544-5.222,0.544c-8.727,0-12.051-6.424-12.051-11.45
			c0-6.14,4.711-11.831,12.778-11.831c1.707,0,3.35,0.251,4.846,0.658c2.371,0.667,3.479,1.487,4.173,1.969l-2.628,2.496
			l-1.108,0.248l0.79-1.26c-1.07-1.045-3.037-2.974-6.77-2.974c-4.991,0-8.757,3.794-8.757,9.333c0,5.949,4.3,11.545,11.194,11.545
			c2.026,0,3.069-0.407,4.016-0.787v-5.1l-4.776,0.257l2.532-1.36h6.703l-0.819,0.789c-0.222,0.188-0.251,0.252-0.313,0.504
			c-0.033,0.288-0.063,1.204-0.063,1.526V43.99z"/>
	</g>
	<g>
		<path fill="#FFFFFF" d="M147.428,42.603v8.596h-1.707V29.327h1.707v2.49c1.111-1.609,3.144-2.886,5.504-2.886
			c4.232,0,7.084,3.211,7.084,8.294c0,5.049-2.852,8.327-7.084,8.327C150.703,45.553,148.708,44.404,147.428,42.603z
			 M158.182,37.226c0-3.831-1.997-6.753-5.538-6.753c-2.199,0-4.302,1.729-5.216,3.235v7.001c0.914,1.51,3.017,3.301,5.216,3.301
			C156.185,44.01,158.182,41.063,158.182,37.226z"/>
		<path fill="#FFFFFF" d="M162.347,45.159V23.288h1.706v21.871H162.347z"/>
		<path fill="#FFFFFF" d="M183.207,49.784c0.364,0.162,0.987,0.263,1.383,0.263c1.044,0,1.771-0.427,2.424-1.936l1.245-2.82
			l-6.725-15.964h1.904l5.769,13.834l5.712-13.834h1.931l-8.201,19.313c-0.851,1.99-2.189,2.947-4.029,2.947
			c-0.552,0-1.279-0.099-1.706-0.229L183.207,49.784z"/>
		<path fill="#FFFFFF" d="M178.221,45.111c-0.114-0.549-0.2-1.032-0.263-1.437c-0.053-0.403-0.082-0.815-0.082-1.234
			c-0.586,0.859-1.415,1.574-2.474,2.138c-1.06,0.566-2.066,0.845-3.448,0.845c-1.663,0-2.953-0.409-3.875-1.239
			c-0.918-0.829-1.38-1.952-1.38-3.373c0-1.419,0.669-2.571,2.003-3.452c1.334-0.885,3.059-1.324,5.192-1.324h3.981v-1.968
			c0-1.133-0.387-2.023-1.157-2.67c-0.774-0.646-1.86-0.974-3.269-0.974c-1.287,0-2.331,0.299-3.126,0.881
			c-0.788,0.594-1.185,1.33-1.185,2.217h-1.747l-0.036-0.085c-0.063-1.195,0.484-2.245,1.647-3.15
			c1.157-0.905,2.675-1.36,4.542-1.36c1.86,0,3.366,0.448,4.502,1.342c1.134,0.885,1.703,2.164,1.703,3.836v7.811
			c0,0.561,0.026,1.103,0.097,1.631c0.072,0.529,0.187,1.057,0.34,1.567H178.221z M172.163,43.868c1.45,0,2.492-0.324,3.558-0.965
			c1.058-0.638,1.777-1.469,2.155-2.475v-3.04h-4c-1.528,0-2.793,0.338-3.788,1.021c-0.997,0.68-1.503,1.503-1.503,2.46
			c0,0.902,0.32,1.625,0.957,2.172C170.18,43.594,171.052,43.868,172.163,43.868z"/>
	</g>
</g>
<g>
	<polygon fill="none" points="18.548,36.334 24.023,30.858 24.022,30.858 18.548,36.334 1.07,18.858 1.069,18.858 18.548,36.337 
		1.042,53.843 1.042,53.843 18.548,36.337 24.048,41.837 24.051,41.837 	"/>
	
		<linearGradient id="SVGID_1_" gradientUnits="userSpaceOnUse" x1="503.3447" y1="-451.4058" x2="480.2675" y2="-465.8484" gradientTransform="matrix(0.7071 0.7071 -0.7071 0.7071 -660.2404 -1.796)">
		<stop  offset="0" style="stop-color:#D6FFA1"/>
		<stop  offset="0.3264" style="stop-color:#93E2A7"/>
		<stop  offset="1" style="stop-color:#00A3B5"/>
	</linearGradient>
	<path fill="url(#SVGID_1_)" d="M24.022,30.858L2.685,19.126c-0.604-0.331-1.163-0.408-1.615-0.268l17.478,17.476L24.022,30.858z"/>
	
		<linearGradient id="SVGID_2_" gradientUnits="userSpaceOnUse" x1="489.9297" y1="-463.7427" x2="519.8475" y2="-455.9218" gradientTransform="matrix(0.7071 0.7071 -0.7071 0.7071 -660.2404 -1.796)">
		<stop  offset="0" style="stop-color:#FF177B"/>
		<stop  offset="0.6721" style="stop-color:#FFA976"/>
		<stop  offset="1" style="stop-color:#FFEC73"/>
	</linearGradient>
	<path fill="url(#SVGID_2_)" d="M24.051,41.837l7.283-4.005c1.477-0.815,1.477-2.142,0-2.954l-7.311-4.02l-5.476,5.476
		L24.051,41.837z"/>
	
		<linearGradient id="SVGID_3_" gradientUnits="userSpaceOnUse" x1="506.6289" y1="-440.4526" x2="474.1844" y2="-459.541" gradientTransform="matrix(0.7071 0.7071 -0.7071 0.7071 -660.2404 -1.796)">
		<stop  offset="0" style="stop-color:#63FFD4"/>
		<stop  offset="0.4854" style="stop-color:#32A0BA"/>
		<stop  offset="0.8349" style="stop-color:#1262A9"/>
		<stop  offset="1" style="stop-color:#064AA2"/>
	</linearGradient>
	<path fill="url(#SVGID_3_)" d="M1.069,18.858C0.42,19.062,0,19.719,0,20.713l0.004,31.284c0,0.982,0.407,1.63,1.038,1.846
		l17.506-17.506L1.069,18.858z"/>
	
		<linearGradient id="SVGID_4_" gradientUnits="userSpaceOnUse" x1="518.4082" y1="-455.6074" x2="498.4315" y2="-429.2891" gradientTransform="matrix(0.7071 0.7071 -0.7071 0.7071 -660.2404 -1.796)">
		<stop  offset="0" style="stop-color:#FF4521"/>
		<stop  offset="0.3411" style="stop-color:#D43E65"/>
		<stop  offset="0.7935" style="stop-color:#9F36B9"/>
		<stop  offset="1" style="stop-color:#8A33DB"/>
	</linearGradient>
	<path fill="url(#SVGID_4_)" d="M1.042,53.843c0.454,0.154,1.024,0.082,1.643-0.258l21.363-11.748l-5.5-5.5L1.042,53.843z"/>
</g>
<g>
	<g>
		<path fill="#FFFFFF" d="M41.837,9.732l0.881-1.425c0.416,0.48,1.008,0.896,1.824,0.896c1.137,0,1.873-0.784,1.873-1.937V0h1.873
			v7.283c0,2.434-1.537,3.586-3.602,3.586C43.582,10.869,42.605,10.532,41.837,9.732z"/>
		<path fill="#FFFFFF" d="M50.958,10.677V0h7.314v1.649H52.83v2.753h5.331v1.648H52.83v2.978h5.442v1.648H50.958z"/>
		<path fill="#FFFFFF" d="M63.135,10.677V1.649h-3.233V0h8.339v1.649h-3.232v9.027H63.135z"/>
		<path fill="#FFFFFF" d="M69.807,10.677V9.156l5.441-7.507h-5.441V0h7.891v1.505l-5.474,7.523h5.586v1.648H69.807z"/>
		<path fill="#FFFFFF" d="M82.591,10.677V1.649h-3.233V0h8.339v1.649h-3.232v9.027H82.591z"/>
		<path fill="#FFFFFF" d="M94.207,10.677V0h5.25c1.969,0,3.041,1.217,3.041,2.722c0,1.328-0.864,2.241-1.856,2.449
			c1.152,0.176,2.064,1.313,2.064,2.608c0,1.665-1.088,2.897-3.105,2.897H94.207z M100.577,3.025c0-0.784-0.544-1.376-1.488-1.376
			h-3.01v2.753h3.01C100.033,4.402,100.577,3.842,100.577,3.025z M100.785,7.539c0-0.8-0.56-1.488-1.616-1.488h-3.09v2.978h3.09
			C100.177,9.028,100.785,8.468,100.785,7.539z"/>
		<path fill="#FFFFFF" d="M104.99,10.677V0h7.314v1.649h-5.442v2.753h5.331v1.648h-5.331v2.978h5.442v1.648H104.99z"/>
		<path fill="#FFFFFF" d="M114.623,10.677V0h1.872v10.677H114.623z"/>
	</g>
</g>
<g>
</g>
<g>
</g>
<g>
</g>
<g>
</g>
<g>
</g>
<g>
</g>
</svg>
