<?xml version="1.0" encoding="utf-8"?>
<!-- Generator: Adobe Illustrator 19.0.0, SVG Export Plug-In . SVG Version: 6.00 Build 0)  -->
<svg version="1.1" id="artwork" xmlns="http://www.w3.org/2000/svg" xmlns:xlink="http://www.w3.org/1999/xlink" x="0px" y="0px"
	 viewBox="0 0 200 46.9" style="enable-background:new 0 0 200 46.9;" xml:space="preserve">
<g>
	<path style="fill:#FFFFFF;" d="M100.4,25.6c-4.1,0-7.4,3.1-7.4,7.3c0,4.2,3.3,7.3,7.4,7.3c4.1,0,7.4-3.1,7.4-7.3
		C107.8,28.7,104.5,25.6,100.4,25.6z M100.4,37.4c-2.2,0-4.1-1.8-4.1-4.5c0-2.6,1.9-4.5,4.1-4.5c2.2,0,4.1,1.8,4.1,4.5
		C104.6,35.6,102.6,37.4,100.4,37.4z M84.3,25.6c-4.1,0-7.4,3.1-7.4,7.3c0,4.2,3.3,7.3,7.4,7.3c4.1,0,7.4-3.1,7.4-7.3
		C91.7,28.7,88.4,25.6,84.3,25.6z M84.3,37.4c-2.2,0-4.1-1.8-4.1-4.5c0-2.6,1.9-4.5,4.1-4.5c2.2,0,4.1,1.8,4.1,4.5
		C88.5,35.6,86.6,37.4,84.3,37.4z M65.2,27.9V31h7.5c-0.2,1.8-0.8,3-1.7,3.9c-1.1,1.1-2.8,2.3-5.8,2.3c-4.6,0-8.2-3.7-8.2-8.3
		s3.6-8.3,8.2-8.3c2.5,0,4.3,1,5.6,2.2l2.2-2.2c-1.9-1.8-4.3-3.1-7.8-3.1c-6.3,0-11.6,5.1-11.6,11.4c0,6.3,5.3,11.4,11.6,11.4
		c3.4,0,6-1.1,8-3.2c2.1-2.1,2.7-5,2.7-7.3c0-0.7-0.1-1.4-0.2-1.9H65.2z M143.4,30.3c-0.6-1.6-2.5-4.7-6.3-4.7c-3.8,0-6.9,3-6.9,7.3
		c0,4.1,3.1,7.3,7.3,7.3c3.4,0,5.3-2.1,6.1-3.3l-2.5-1.7c-0.8,1.2-2,2-3.6,2c-1.6,0-2.8-0.8-3.6-2.2l9.8-4.1L143.4,30.3z
		 M133.4,32.7c-0.1-2.8,2.2-4.3,3.8-4.3c1.3,0,2.4,0.6,2.7,1.6L133.4,32.7z M125.4,39.8h3.2V18.3h-3.2V39.8z M120.2,27.2H120
		c-0.7-0.9-2.1-1.6-3.9-1.6c-3.7,0-7,3.2-7,7.4c0,4.1,3.4,7.3,7,7.3c1.8,0,3.1-0.8,3.9-1.7h0.1v1.1c0,2.8-1.5,4.3-3.9,4.3
		c-2,0-3.2-1.4-3.7-2.6l-2.8,1.2c0.8,1.9,2.9,4.3,6.5,4.3c3.8,0,7-2.2,7-7.6V26h-3.1V27.2z M116.5,37.4c-2.2,0-4.1-1.9-4.1-4.4
		c0-2.6,1.9-4.5,4.1-4.5c2.2,0,3.9,1.9,3.9,4.5C120.4,35.5,118.6,37.4,116.5,37.4z M158.5,18.3h-7.7v21.6h3.2v-8.2h4.5
		c3.6,0,7.1-2.6,7.1-6.7S162.1,18.3,158.5,18.3z M158.6,28.7H154v-7.4h4.6c2.4,0,3.8,2,3.8,3.7C162.4,26.6,161,28.7,158.6,28.7z
		 M178.5,25.6c-2.3,0-4.7,1-5.7,3.3l2.9,1.2c0.6-1.2,1.7-1.6,2.9-1.6c1.7,0,3.4,1,3.4,2.8v0.2c-0.6-0.3-1.8-0.8-3.4-0.8
		c-3.1,0-6.2,1.7-6.2,4.9c0,2.9,2.5,4.7,5.4,4.7c2.2,0,3.4-1,4.1-2.1h0.1v1.7h3.1v-8.3C185.1,27.7,182.2,25.6,178.5,25.6z
		 M178.1,37.4c-1.1,0-2.5-0.5-2.5-1.8c0-1.7,1.8-2.3,3.4-2.3c1.4,0,2.1,0.3,2.9,0.7C181.7,36,180,37.4,178.1,37.4z M196.4,26
		l-3.7,9.4h-0.1l-3.8-9.4h-3.5l5.7,13.1l-3.3,7.3h3.4L200,26H196.4z M167.4,39.8h3.2V18.3h-3.2V39.8z"/>
	<g>
		
			<linearGradient id="SVGID_1_" gradientUnits="userSpaceOnUse" x1="20.4188" y1="184.8537" x2="-8.555" y2="155.8799" gradientTransform="matrix(1 0 0 -1 0 187.9417)">
			<stop  offset="0" style="stop-color:#00A0FF"/>
			<stop  offset="6.574450e-003" style="stop-color:#00A1FF"/>
			<stop  offset="0.2601" style="stop-color:#00BEFF"/>
			<stop  offset="0.5122" style="stop-color:#00D2FF"/>
			<stop  offset="0.7604" style="stop-color:#00DFFF"/>
			<stop  offset="1" style="stop-color:#00E3FF"/>
		</linearGradient>
		<path style="fill:url(#SVGID_1_);" d="M0.8,1.1C0.3,1.6,0,2.4,0,3.5v38.2c0,1.1,0.3,1.9,0.8,2.4l0.1,0.1l21.4-21.4v-0.3v-0.3
			L0.9,0.9L0.8,1.1z"/>
		
			<linearGradient id="SVGID_2_" gradientUnits="userSpaceOnUse" x1="41.1959" y1="165.3592" x2="-0.5786" y2="165.3592" gradientTransform="matrix(1 0 0 -1 0 187.9417)">
			<stop  offset="0" style="stop-color:#FFE000"/>
			<stop  offset="0.4087" style="stop-color:#FFBD00"/>
			<stop  offset="0.7754" style="stop-color:#FFA500"/>
			<stop  offset="1" style="stop-color:#FF9C00"/>
		</linearGradient>
		<path style="fill:url(#SVGID_2_);" d="M29.4,30l-7.1-7.1v-0.3v-0.3l7.1-7.1l0.2,0.1l8.4,4.8c2.4,1.4,2.4,3.6,0,5l-8.4,4.8L29.4,30
			z"/>
		
			<linearGradient id="SVGID_3_" gradientUnits="userSpaceOnUse" x1="25.6451" y1="161.3977" x2="-13.6456" y2="122.1069" gradientTransform="matrix(1 0 0 -1 0 187.9417)">
			<stop  offset="0" style="stop-color:#FF3A44"/>
			<stop  offset="1" style="stop-color:#C31162"/>
		</linearGradient>
		<path style="fill:url(#SVGID_3_);" d="M29.6,29.9l-7.3-7.3L0.8,44.1c0.8,0.8,2.1,0.9,3.6,0.1L29.6,29.9"/>
		
			<linearGradient id="SVGID_4_" gradientUnits="userSpaceOnUse" x1="-4.6187" y1="199.5863" x2="12.9263" y2="182.0414" gradientTransform="matrix(1 0 0 -1 0 187.9417)">
			<stop  offset="0" style="stop-color:#32A071"/>
			<stop  offset="6.850000e-002" style="stop-color:#2DA771"/>
			<stop  offset="0.4762" style="stop-color:#15CF74"/>
			<stop  offset="0.8009" style="stop-color:#06E775"/>
			<stop  offset="1" style="stop-color:#00F076"/>
		</linearGradient>
		<path style="fill:url(#SVGID_4_);" d="M29.6,15.3L4.4,1C2.9,0.1,1.6,0.2,0.8,1.1l21.5,21.5L29.6,15.3z"/>
		<g>
			<path style="opacity:0.2;enable-background:new    ;" d="M29.4,29.7L4.4,44c-1.4,0.8-2.7,0.7-3.5,0l0,0l-0.1,0.1l0,0l0.1,0.1l0,0
				c0.8,0.7,2.1,0.8,3.5,0l25.2-14.3L29.4,29.7z"/>
			<path style="opacity:0.12;enable-background:new    ;" d="M0.8,43.8C0.3,43.3,0,42.5,0,41.4v0.3c0,1.1,0.3,1.9,0.8,2.4L0.9,44
				L0.8,43.8z"/>
		</g>
		<path style="opacity:0.12;enable-background:new    ;" d="M38.1,24.8l-8.6,4.9l0.2,0.2l8.4-4.8c1.2-0.7,1.8-1.6,1.8-2.5l0,0
			C39.8,23.4,39.1,24.2,38.1,24.8z"/>
		<path style="opacity:0.25;fill:#FFFFFF;enable-background:new    ;" d="M4.4,1.2l33.7,19.1c1.1,0.6,1.7,1.4,1.8,2.2l0,0
			c0-0.9-0.6-1.8-1.8-2.5L4.4,1C2-0.4,0,0.7,0,3.5v0.3C0,1,2-0.2,4.4,1.2z"/>
	</g>
</g>
<g>
	<path style="fill:#FFFFFF;stroke:#FFFFFF;stroke-width:0.2;stroke-miterlimit:10;" d="M57,10.7c-0.8,0-1.4-0.2-1.9-0.6
		c-0.5-0.4-0.9-1-1.1-1.8l1.2-0.5c0.3,1.1,0.9,1.6,1.9,1.6c0.6,0,1.1-0.2,1.4-0.6C58.9,8.5,59,7.9,59,7.2V0.1h1.3v7.1
		c0,1.1-0.3,2-0.9,2.6C58.8,10.4,58,10.7,57,10.7z"/>
	<path style="fill:#FFFFFF;stroke:#FFFFFF;stroke-width:0.2;stroke-miterlimit:10;" d="M68.6,1.4h-4.7v3.3h4.3v1.2h-4.3v3.3h4.7v1.3
		h-6V0.1h6V1.4z"/>
	<path style="fill:#FFFFFF;stroke:#FFFFFF;stroke-width:0.2;stroke-miterlimit:10;" d="M74.2,10.5h-1.3V1.4H70V0.1h7.1v1.3h-2.9
		V10.5z"/>
	<path style="fill:#FFFFFF;stroke:#FFFFFF;stroke-width:0.2;stroke-miterlimit:10;" d="M78.2,10.5V9.1l5.5-7.7h-5.3V0.1h6.8v1.4
		l-5.5,7.7h5.6v1.3H78.2z"/>
	<path style="fill:#FFFFFF;stroke:#FFFFFF;stroke-width:0.2;stroke-miterlimit:10;" d="M90.8,10.5h-1.3V1.4h-2.9V0.1h7.1v1.3h-2.9
		V10.5z"/>
	<path style="fill:#FFFFFF;stroke:#FFFFFF;stroke-width:0.2;stroke-miterlimit:10;" d="M98.8,10.5V0.1h3.7c0.8,0,1.5,0.3,2.1,0.8
		c0.6,0.5,0.9,1.2,0.9,2c0,0.5-0.1,0.9-0.4,1.3c-0.3,0.4-0.6,0.7-1,0.9v0.1c0.5,0.2,0.9,0.5,1.3,0.9c0.3,0.4,0.5,0.9,0.5,1.5
		c0,0.8-0.3,1.6-0.9,2.1c-0.6,0.6-1.4,0.8-2.2,0.8H98.8z M100.1,4.6h2.4c0.5,0,0.9-0.2,1.2-0.5c0.3-0.3,0.5-0.7,0.5-1.1
		s-0.1-0.8-0.4-1.1c-0.3-0.3-0.7-0.5-1.2-0.5h-2.5V4.6z M100.1,9.2h2.7c0.5,0,0.9-0.2,1.2-0.5c0.3-0.4,0.5-0.7,0.5-1.2
		c0-0.4-0.2-0.8-0.5-1.2c-0.3-0.4-0.8-0.5-1.3-0.5h-2.6V9.2z"/>
	<path style="fill:#FFFFFF;stroke:#FFFFFF;stroke-width:0.2;stroke-miterlimit:10;" d="M113.7,1.4H109v3.3h4.3v1.2H109v3.3h4.7v1.3
		h-6V0.1h6V1.4z"/>
	<path style="fill:#FFFFFF;stroke:#FFFFFF;stroke-width:0.2;stroke-miterlimit:10;" d="M115.8,10.5V0.1h1.3v10.4H115.8z"/>
</g>
</svg>
