<?xml version="1.0" encoding="utf-8"?>
<!-- Generator: Adobe Illustrator 22.0.1, SVG Export Plug-In . SVG Version: 6.00 Build 0)  -->
<svg version="1.1" id="Layer_1" xmlns="http://www.w3.org/2000/svg" xmlns:xlink="http://www.w3.org/1999/xlink" x="0px" y="0px"
	 viewBox="0 0 2324.4 489.1" style="enable-background:new 0 0 2324.4 489.1;" xml:space="preserve">
<style type="text/css">
	.st0{fill:#4285F4;}
	.st1{fill:#34A853;}
	.st2{fill:#EA4335;}
	.st3{fill:#FBBC05;}
	.st4{fill:#414141;}
</style>
<g>
	<circle class="st0" cx="156.3" cy="156.3" r="156.3"/>
	<path class="st1" d="M512,171.5c0,17.5-14.2,31.8-31.8,31.8s-31.8-14.2-31.8-31.8c0-17.5,14.2-31.8,31.8-31.8S512,154,512,171.5z"
		/>
	<path class="st2" d="M454.8,249c0,35.1-28.4,63.5-63.5,63.5c-35.1,0-63.5-28.4-63.5-63.5c0-35.1,28.4-63.5,63.5-63.5
		C426.4,185.5,454.8,213.9,454.8,249z"/>
	<path class="st3" d="M467.5,412.9c0,42.1-34.1,76.2-76.2,76.2s-76.2-34.1-76.2-76.2c0-42.1,34.1-76.2,76.2-76.2
		C433.4,336.7,467.5,370.8,467.5,412.9z"/>
</g>
<g>
	<path class="st4" d="M790.7,295c-3.4,4.8-10.1,9.3-19.8,13.5c-9.8,4.2-21.8,6.3-36,6.3c-18.7,0-33.9-6.7-45.5-20
		c-11.6-13.3-17.5-30.7-17.5-52v-26.7c0-20.5,5.7-37.2,17-50.1c11.3-12.9,26-19.4,44.1-19.4c17.3,0,31,4.5,41.2,13.4
		c10.1,8.9,15.3,20.5,15.6,34.6l-0.2,0.7h-5.1c-0.6-12.7-5.3-22.9-14-30.8c-8.7-7.9-21.2-11.8-37.5-11.8c-16.5,0-29.9,5.9-39.9,17.7
		c-10.1,11.8-15.1,27-15.1,45.5v27c0,19.5,5.2,35.3,15.6,47.6c10.4,12.2,24.2,18.4,41.3,18.4c12.1,0,22.6-1.8,31.6-5.3
		c9-3.5,15.1-7.3,18.1-11.3v-47.6h-50v-6.2h56V295z"/>
	<path class="st4" d="M820.7,249.4c0-17.8,4.9-32.4,14.8-43.7c9.8-11.3,22.6-17,38.4-17c15.8,0,28.6,5.7,38.5,17
		c9.8,11.3,14.8,25.9,14.8,43.7v4.7c0,17.9-4.9,32.5-14.8,43.8c-9.8,11.3-22.6,17-38.2,17c-15.8,0-28.6-5.7-38.5-17
		c-9.9-11.3-14.8-25.9-14.8-43.8V249.4z M826.7,254.1c0,15.3,4.3,28.2,12.8,38.8c8.5,10.6,20,15.9,34.5,15.9
		c14.2,0,25.6-5.3,34.1-15.9c8.5-10.6,12.8-23.5,12.8-38.7v-4.7c0-14.9-4.3-27.7-12.9-38.5c-8.6-10.7-20-16.1-34.3-16.1
		c-14.3,0-25.7,5.4-34.3,16.1c-8.5,10.7-12.8,23.6-12.8,38.5V254.1z"/>
	<path class="st4" d="M946.6,249.4c0-17.8,4.9-32.4,14.8-43.7c9.8-11.3,22.6-17,38.4-17c15.8,0,28.6,5.7,38.5,17
		c9.8,11.3,14.8,25.9,14.8,43.7v4.7c0,17.9-4.9,32.5-14.8,43.8c-9.8,11.3-22.6,17-38.2,17c-15.8,0-28.6-5.7-38.5-17
		c-9.9-11.3-14.8-25.9-14.8-43.8V249.4z M952.6,254.1c0,15.3,4.3,28.2,12.8,38.8c8.5,10.6,20,15.9,34.5,15.9
		c14.2,0,25.6-5.3,34.1-15.9c8.5-10.6,12.8-23.5,12.8-38.7v-4.7c0-14.9-4.3-27.7-12.9-38.5c-8.6-10.7-20-16.1-34.3-16.1
		c-14.3,0-25.7,5.4-34.3,16.1c-8.5,10.7-12.8,23.6-12.8,38.5V254.1z"/>
	<path class="st4" d="M1076.3,251.7c0-19.2,4-34.5,12.1-45.9s19.3-17,33.7-17c9.4,0,17.6,2.1,24.6,6.4s12.5,10.1,16.6,17.6l0.9-21.8
		h5.2v122.2c0,15.4-4.1,27.3-12.2,35.8c-8.1,8.4-19.4,12.6-33.7,12.6c-5.9,0-12.1-0.6-18.5-1.9c-6.4-1.2-12-2.9-16.8-5.1l1.8-6.1
		c5.5,2.4,10.7,4.2,15.8,5.3c5.1,1.2,10.9,1.7,17.4,1.7c13.1,0,23-3.7,29.8-10.9c6.8-7.3,10.2-17.8,10.2-31.5v-19.3
		c-4.1,6.4-9.7,11.5-16.7,15.3c-7,3.8-15.2,5.7-24.6,5.7c-14.3,0-25.5-5.5-33.5-16.4c-8-10.9-12.1-25.8-12.1-44.5V251.7z
		 M1082.5,254c0,16.8,3.3,30.1,10,40c6.7,9.9,16.4,14.8,29.3,14.8c10.6,0,19.3-2.4,26.3-7.1c7-4.8,12-11.1,15.2-19v-57.5
		c-3-8.6-7.7-15.8-14.2-21.6c-6.5-5.8-15.5-8.7-27-8.7c-12.9,0-22.7,5.3-29.4,15.8c-6.7,10.5-10.1,24.2-10.1,41V254z"/>
	<path class="st4" d="M1215.4,312.5h-6.1V137.3h6.1V312.5z"/>
	<path class="st4" d="M1296.7,314.9c-13.9,0-25.8-5.6-35.9-16.8c-10.1-11.2-15.1-25.1-15.1-41.7v-7.2c0-17.4,4.9-31.9,14.6-43.3
		c9.7-11.4,21.7-17.1,36-17.1c13.7,0,24.9,4.5,33.5,13.5c8.6,9,13,21,13,36.2v9.3h-91.1v1.5v7.2c0,14.7,4.3,27.1,12.9,37.2
		c8.6,10.1,19.3,15.2,32,15.2c9.1,0,16.6-1.2,22.7-3.7c6.1-2.5,11.3-6.2,15.7-11.1l3.3,4.7c-4.8,5.3-10.6,9.3-17.5,12.1
		C1314.1,313.5,1306,314.9,1296.7,314.9z M1296.4,194.8c-12.1,0-22.1,4.4-30.1,13.2c-8,8.8-12.5,19.8-13.6,33l0.3,0.7h83.8V238
		c0-12.4-3.7-22.6-11.2-30.8C1318.1,198.9,1308.4,194.8,1296.4,194.8z"/>
	<path class="st4" d="M1515.5,263.7h-80l-18.2,48.9h-6.6l61.1-163.5h7.4l61.2,163.5h-6.6L1515.5,263.7z M1437.8,257.6h75.5
		l-34.3-92.1l-3.1-9.2h-0.7l-3,9.2L1437.8,257.6z"/>
	<path class="st4" d="M1638,282.8c0-6.4-2.8-12.3-8.3-17.6c-5.5-5.3-15.1-9.4-28.8-12.4c-14.5-3.1-24.9-7-31.4-11.8
		c-6.5-4.8-9.7-12-9.7-21.5c0-8.7,3.7-16,11-21.8c7.3-5.9,17.2-8.8,29.6-8.8c13.4,0,24,3.1,31.7,9.4c7.7,6.3,11.4,14.5,11,24.6
		l-0.2,0.7h-5.2c0-7.9-3.4-14.7-10.1-20.3c-6.7-5.6-15.8-8.4-27.2-8.4c-11.4,0-20,2.5-25.8,7.4c-5.8,4.9-8.8,10.6-8.8,17
		c0,6.4,2.5,11.8,7.4,16.3s14.7,8.4,29.4,11.8c13.5,3.1,23.8,7.4,30.8,12.9c7,5.4,10.5,13,10.5,22.7c0,9.5-3.9,17.2-11.7,23.1
		c-7.8,5.9-18.1,8.9-31,8.9c-14.2,0-25.3-3.2-33.3-9.5c-8-6.3-11.8-14-11.3-23.1l0.2-0.7h4.9c0.6,9.6,4.7,16.5,12.4,20.8
		s16.7,6.4,27.1,6.4c11.2,0,20.1-2.6,26.7-7.9C1634.7,295.7,1638,289.7,1638,282.8z"/>
	<path class="st4" d="M1752.5,282.8c0-6.4-2.8-12.3-8.3-17.6c-5.5-5.3-15.1-9.4-28.8-12.4c-14.5-3.1-24.9-7-31.4-11.8
		c-6.5-4.8-9.7-12-9.7-21.5c0-8.7,3.7-16,11-21.8c7.3-5.9,17.2-8.8,29.6-8.8c13.4,0,24,3.1,31.7,9.4c7.7,6.3,11.4,14.5,11,24.6
		l-0.2,0.7h-5.2c0-7.9-3.4-14.7-10.1-20.3c-6.7-5.6-15.8-8.4-27.2-8.4c-11.4,0-20,2.5-25.8,7.4c-5.8,4.9-8.8,10.6-8.8,17
		c0,6.4,2.5,11.8,7.4,16.3s14.7,8.4,29.4,11.8c13.5,3.1,23.8,7.4,30.8,12.9c7,5.4,10.5,13,10.5,22.7c0,9.5-3.9,17.2-11.7,23.1
		c-7.8,5.9-18.1,8.9-31,8.9c-14.2,0-25.3-3.2-33.3-9.5c-8-6.3-11.8-14-11.3-23.1l0.2-0.7h4.9c0.6,9.6,4.7,16.5,12.4,20.8
		s16.7,6.4,27.1,6.4c11.2,0,20.1-2.6,26.7-7.9C1749.2,295.7,1752.5,289.7,1752.5,282.8z"/>
	<path class="st4" d="M1800,152.8h-6.1v-15.5h6.1V152.8z M1800,312.5h-6.1V191h6.1V312.5z"/>
	<path class="st4" d="M1914.3,282.8c0-6.4-2.8-12.3-8.3-17.6c-5.5-5.3-15.1-9.4-28.8-12.4c-14.5-3.1-24.9-7-31.4-11.8
		c-6.5-4.8-9.7-12-9.7-21.5c0-8.7,3.7-16,11-21.8c7.3-5.9,17.2-8.8,29.6-8.8c13.4,0,24,3.1,31.7,9.4c7.7,6.3,11.4,14.5,11,24.6
		l-0.2,0.7h-5.2c0-7.9-3.4-14.7-10.1-20.3c-6.7-5.6-15.8-8.4-27.2-8.4c-11.4,0-20,2.5-25.8,7.4c-5.8,4.9-8.8,10.6-8.8,17
		c0,6.4,2.5,11.8,7.4,16.3s14.7,8.4,29.4,11.8c13.5,3.1,23.8,7.4,30.8,12.9c7,5.4,10.5,13,10.5,22.7c0,9.5-3.9,17.2-11.7,23.1
		c-7.8,5.9-18.1,8.9-31,8.9c-14.2,0-25.3-3.2-33.3-9.5c-8-6.3-11.8-14-11.3-23.1l0.2-0.7h4.9c0.6,9.6,4.7,16.5,12.4,20.8
		s16.7,6.4,27.1,6.4c11.2,0,20.1-2.6,26.7-7.9C1911,295.7,1914.3,289.7,1914.3,282.8z"/>
	<path class="st4" d="M1966.9,158.2V191h29.9v6.2h-29.9v84c0,10,1.7,17.1,5.1,21.3c3.4,4.2,7.8,6.3,13.4,6.3c2,0,3.8-0.1,5.4-0.2
		c1.6-0.1,3.7-0.4,6.5-0.8l1.1,5.5c-1.9,0.6-3.8,1-5.8,1.2s-4.3,0.3-6.9,0.3c-8.2,0-14.4-2.7-18.6-8c-4.2-5.3-6.3-13.9-6.3-25.7v-84
		h-22.5V191h22.5v-32.8H1966.9z"/>
	<path class="st4" d="M2101.6,290.1c-4.2,7.3-10.4,13.3-18.8,17.9c-8.3,4.6-18.4,6.9-30.2,6.9c-11.3,0-20.2-3.1-26.6-9.3
		c-6.4-6.2-9.7-14.5-9.7-25c0-10.2,4.8-18.7,14.4-25.6c9.6-6.9,21.7-10.3,36.1-10.3h34.7V227c0-10.1-3.2-18-9.7-23.6
		c-6.5-5.7-15.6-8.5-27.3-8.5c-11,0-19.9,2.7-26.6,8c-6.7,5.3-10.1,12.2-10.1,20.6l-5.1-0.2l-0.2-0.6c-0.4-9.4,3.2-17.4,11-24
		c7.8-6.6,18.1-9.8,30.9-9.8c13,0,23.5,3.3,31.3,9.9c7.9,6.6,11.8,16.1,11.8,28.5v60.9c0,4.3,0.2,8.4,0.7,12.5c0.5,4,1.3,8,2.4,12
		h-6.7c-1-5.3-1.6-9.3-2-12c-0.3-2.7-0.5-5.5-0.5-8.6V290.1z M2052.7,308.9c12.1,0,22.3-2.7,30.6-8c8.3-5.3,14.5-12.9,18.4-22.8
		v-27.3h-34.4c-12.6,0-23.2,2.9-31.8,8.7c-8.6,5.8-13,13-13,21.5c0,8.2,2.8,14.8,8.3,20C2036.2,306.3,2043.5,308.9,2052.7,308.9z"/>
	<path class="st4" d="M2151.9,191l0.8,25c3.7-8.7,9-15.4,16.1-20.2c7-4.8,15.7-7.1,26.1-7.1c13.3,0,23.2,4.2,29.8,12.5
		c6.6,8.3,9.9,21.6,9.9,39.7v71.5h-6.1v-71.8c0-16.8-3-28.7-9-35.6c-6-6.9-14.2-10.3-24.5-10.3c-13.1,0-23,3.9-29.6,11.7
		c-6.7,7.8-10.8,17.8-12.5,30v75.9h-6.1V191H2151.9z"/>
	<path class="st4" d="M2285.2,158.2V191h29.9v6.2h-29.9v84c0,10,1.7,17.1,5.1,21.3c3.4,4.2,7.8,6.3,13.4,6.3c2,0,3.8-0.1,5.4-0.2
		c1.6-0.1,3.7-0.4,6.5-0.8l1.1,5.5c-1.9,0.6-3.8,1-5.8,1.2s-4.3,0.3-6.9,0.3c-8.2,0-14.4-2.7-18.6-8c-4.2-5.3-6.3-13.9-6.3-25.7v-84
		h-22.5V191h22.5v-32.8H2285.2z"/>
</g>
</svg>
