<svg id="artwork" xmlns="http://www.w3.org/2000/svg" xmlns:xlink="http://www.w3.org/1999/xlink" viewBox="0 0 200 46.9"><defs><style>.cls-1,.cls-8,.cls-9{fill:#fff;}.cls-2{fill:url(#Unbenannter_Verlauf);}.cls-3{fill:url(#Unbenannter_Verlauf_2);}.cls-4{fill:url(#Unbenannter_Verlauf_3);}.cls-5{fill:url(#Unbenannter_Verlauf_4);}.cls-6{opacity:0.2;}.cls-6,.cls-7,.cls-8{isolation:isolate;}.cls-7{opacity:0.12;}.cls-8{opacity:0.25;}.cls-9{stroke:#fff;stroke-miterlimit:10;stroke-width:0.2px;}</style><linearGradient id="Unbenannter_Verlauf" x1="20.39" y1="815.12" x2="-8.58" y2="844.09" gradientTransform="translate(0 -812.06)" gradientUnits="userSpaceOnUse"><stop offset="0" stop-color="#00a0ff"/><stop offset="0.01" stop-color="#00a1ff"/><stop offset="0.26" stop-color="#00beff"/><stop offset="0.51" stop-color="#00d2ff"/><stop offset="0.76" stop-color="#00dfff"/><stop offset="1" stop-color="#00e3ff"/></linearGradient><linearGradient id="Unbenannter_Verlauf_2" x1="41.2" y1="834.66" x2="-0.58" y2="834.66" gradientTransform="translate(0 -812.06)" gradientUnits="userSpaceOnUse"><stop offset="0" stop-color="#ffe000"/><stop offset="0.41" stop-color="#ffbd00"/><stop offset="0.78" stop-color="orange"/><stop offset="1" stop-color="#ff9c00"/></linearGradient><linearGradient id="Unbenannter_Verlauf_3" x1="25.65" y1="838.61" x2="-13.64" y2="877.9" gradientTransform="translate(0 -812.06)" gradientUnits="userSpaceOnUse"><stop offset="0" stop-color="#ff3a44"/><stop offset="1" stop-color="#c31162"/></linearGradient><linearGradient id="Unbenannter_Verlauf_4" x1="-4.63" y1="800.43" x2="12.91" y2="817.97" gradientTransform="translate(0 -812.06)" gradientUnits="userSpaceOnUse"><stop offset="0" stop-color="#32a071"/><stop offset="0.07" stop-color="#2da771"/><stop offset="0.48" stop-color="#15cf74"/><stop offset="0.8" stop-color="#06e775"/><stop offset="1" stop-color="#00f076"/></linearGradient></defs><title>Zeichenfläche 1</title><path class="cls-1" d="M100.4,25.6a7.3,7.3,0,1,0,7.4,7.3A7.24,7.24,0,0,0,100.4,25.6Zm0,11.8a4.22,4.22,0,0,1-4.1-4.5,4.28,4.28,0,0,1,4.1-4.5,4.22,4.22,0,0,1,4.1,4.5A4.16,4.16,0,0,1,100.4,37.4ZM84.3,25.6a7.3,7.3,0,1,0,7.4,7.3A7.24,7.24,0,0,0,84.3,25.6Zm0,11.8a4.22,4.22,0,0,1-4.1-4.5,4.28,4.28,0,0,1,4.1-4.5,4.22,4.22,0,0,1,4.1,4.5A4.11,4.11,0,0,1,84.3,37.4ZM65.2,27.9V31h7.5A6.16,6.16,0,0,1,71,34.9a7.67,7.67,0,0,1-5.8,2.3,8.3,8.3,0,0,1,0-16.6,8,8,0,0,1,5.6,2.2L73,20.6a10.75,10.75,0,0,0-7.8-3.1A11.57,11.57,0,0,0,53.6,28.9,11.57,11.57,0,0,0,65.2,40.3a10.46,10.46,0,0,0,8-3.2,10.26,10.26,0,0,0,2.7-7.3,10.07,10.07,0,0,0-.2-1.9Zm78.2,2.4c-.6-1.6-2.5-4.7-6.3-4.7a7,7,0,0,0-6.9,7.3,7.3,7.3,0,0,0,13.4,4l-2.5-1.7a4.2,4.2,0,0,1-3.6,2,4,4,0,0,1-3.6-2.2l9.8-4.1Zm-10,2.4a4.06,4.06,0,0,1,3.8-4.3,2.64,2.64,0,0,1,2.7,1.6Zm-8,7.1h3.2V18.3h-3.2Zm-5.2-12.6H120a4.91,4.91,0,0,0-3.9-1.6,7.36,7.36,0,0,0,0,14.7,5.11,5.11,0,0,0,3.9-1.7h.1v1.1c0,2.8-1.5,4.3-3.9,4.3a4,4,0,0,1-3.7-2.6l-2.8,1.2a7,7,0,0,0,6.5,4.3c3.8,0,7-2.2,7-7.6V26h-3.1v1.2Zm-3.7,10.2a4.26,4.26,0,0,1-4.1-4.4,4.28,4.28,0,0,1,4.1-4.5c2.2,0,3.9,1.9,3.9,4.5A4.16,4.16,0,0,1,116.5,37.4Zm42-19.1h-7.7V39.9H154V31.7h4.5a6.85,6.85,0,0,0,7.1-6.7A6.85,6.85,0,0,0,158.5,18.3Zm.1,10.4H154V21.3h4.6a3.77,3.77,0,0,1,3.8,3.7A3.84,3.84,0,0,1,158.6,28.7Zm19.9-3.1a6,6,0,0,0-5.7,3.3l2.9,1.2a3,3,0,0,1,2.9-1.6c1.7,0,3.4,1,3.4,2.8v.2a7.62,7.62,0,0,0-3.4-.8c-3.1,0-6.2,1.7-6.2,4.9,0,2.9,2.5,4.7,5.4,4.7a4.5,4.5,0,0,0,4.1-2.1h.1v1.7h3.1V31.6C185.1,27.7,182.2,25.6,178.5,25.6Zm-.4,11.8c-1.1,0-2.5-.5-2.5-1.8,0-1.7,1.8-2.3,3.4-2.3a5.62,5.62,0,0,1,2.9.7A3.79,3.79,0,0,1,178.1,37.4ZM196.4,26l-3.7,9.4h-.1L188.8,26h-3.5L191,39.1l-3.3,7.3h3.4L200,26Zm-29,13.8h3.2V18.3h-3.2Z"/><path class="cls-2" d="M.8,1.1A3.29,3.29,0,0,0,0,3.5V41.7a3.29,3.29,0,0,0,.8,2.4l.1.1L22.3,22.8v-.6L.9.9Z"/><path class="cls-3" d="M29.4,30l-7.1-7.1v-.6l7.1-7.1.2.1L38,20.1c2.4,1.4,2.4,3.6,0,5l-8.4,4.8Z"/><path class="cls-4" d="M29.6,29.9l-7.3-7.3L.8,44.1c.8.8,2.1.9,3.6.1L29.6,29.9"/><path class="cls-5" d="M29.6,15.3,4.4,1C2.9.1,1.6.2.8,1.1L22.3,22.6Z"/><path class="cls-6" d="M29.4,29.7,4.4,44A3,3,0,0,1,.9,44h0l-.1.1h0l.1.1h0a3,3,0,0,0,3.5,0L29.6,29.9Z"/><path class="cls-7" d="M.8,43.8A3.29,3.29,0,0,1,0,41.4v.3a3.29,3.29,0,0,0,.8,2.4L.9,44Z"/><path class="cls-7" d="M38.1,24.8l-8.6,4.9.2.2,8.4-4.8a3.06,3.06,0,0,0,1.8-2.5h0A3.39,3.39,0,0,1,38.1,24.8Z"/><path class="cls-8" d="M4.4,1.2,38.1,20.3a3.12,3.12,0,0,1,1.8,2.2h0A3.06,3.06,0,0,0,38.1,20L4.4,1C2-.4,0,.7,0,3.5v.3C0,1,2-.2,4.4,1.2Z"/><path class="cls-9" d="M57,10.7a2.88,2.88,0,0,1-1.9-.6A3.27,3.27,0,0,1,54,8.3l1.2-.5a1.83,1.83,0,0,0,1.9,1.6,1.68,1.68,0,0,0,1.4-.6A1.94,1.94,0,0,0,59,7.2V.1h1.3V7.2a3.57,3.57,0,0,1-.9,2.6A3.24,3.24,0,0,1,57,10.7Z"/><path class="cls-9" d="M68.6,1.4H63.9V4.7h4.3V5.9H63.9V9.2h4.7v1.3h-6V.1h6Z"/><path class="cls-9" d="M74.2,10.5H72.9V1.4H70V.1h7.1V1.4H74.2Z"/><path class="cls-9" d="M78.2,10.5V9.1l5.5-7.7H78.4V.1h6.8V1.5L79.7,9.2h5.6v1.3Z"/><path class="cls-9" d="M90.8,10.5H89.5V1.4H86.6V.1h7.1V1.4H90.8Z"/><path class="cls-9" d="M98.8,10.5V.1h3.7a3.23,3.23,0,0,1,2.1.8,2.52,2.52,0,0,1,.9,2,2,2,0,0,1-.4,1.3,2.84,2.84,0,0,1-1,.9v.1a3.81,3.81,0,0,1,1.3.9,2.46,2.46,0,0,1,.5,1.5,2.72,2.72,0,0,1-.9,2.1,3,3,0,0,1-2.2.8Zm1.3-5.9h2.4a1.66,1.66,0,0,0,1.2-.5,1.61,1.61,0,0,0,.5-1.1,1.5,1.5,0,0,0-.4-1.1,1.66,1.66,0,0,0-1.2-.5h-2.5Zm0,4.6h2.7a1.66,1.66,0,0,0,1.2-.5,1.85,1.85,0,0,0,.5-1.2,2.08,2.08,0,0,0-.5-1.2,1.54,1.54,0,0,0-1.3-.5h-2.6Z"/><path class="cls-9" d="M113.7,1.4H109V4.7h4.3V5.9H109V9.2h4.7v1.3h-6V.1h6Z"/><path class="cls-9" d="M115.8,10.5V.1h1.3V10.5Z"/></svg>