<?xml version="1.0" encoding="utf-8"?>
<!-- Generator: Adobe Illustrator 19.0.0, SVG Export Plug-In . SVG Version: 6.00 Build 0)  -->
<svg version="1.1" id="Ebene_1" xmlns="http://www.w3.org/2000/svg" xmlns:xlink="http://www.w3.org/1999/xlink" x="0px" y="0px"
	 viewBox="463.6 375 200 48.5" style="enable-background:new 463.6 375 200 48.5;" xml:space="preserve">
<g id="Layer_1">
	<path style="fill:#FFFFFF;" d="M555.7,400.7c0-0.7,0.2-1.2,0.7-1.7c0.5-0.5,1.1-0.7,1.7-0.7c0.7,0,1.3,0.2,1.8,0.7
		c0.5,0.5,0.7,1,0.7,1.7s-0.2,1.2-0.7,1.7c-0.5,0.5-1.1,0.7-1.8,0.7c-0.7,0-1.3-0.2-1.8-0.7C556,401.9,555.7,401.4,555.7,400.7
		 M560.2,423h-4.1v-17.3h4.1V423z"/>
	<path style="fill:#FFFFFF;" d="M572.6,420.1c0.6,0,1.3-0.1,2-0.4c0.7-0.3,1.4-0.7,2-1.1v3.8c-0.7,0.4-1.4,0.7-2.2,0.8
		c-0.8,0.2-1.7,0.3-2.7,0.3c-2.6,0-4.6-0.8-6.2-2.4c-1.6-1.6-2.4-3.7-2.4-6.2c0-2.8,0.8-5.1,2.5-6.9c1.6-1.8,3.9-2.7,6.9-2.7
		c0.8,0,1.5,0.1,2.3,0.3c0.8,0.2,1.4,0.4,1.9,0.7v3.9c-0.6-0.5-1.3-0.8-1.9-1.1s-1.3-0.4-2-0.4c-1.6,0-2.9,0.5-3.9,1.6
		c-1,1-1.5,2.5-1.5,4.2c0,1.7,0.5,3.1,1.4,4.1C569.7,419.6,571,420.1,572.6,420.1"/>
	<path style="fill:#FFFFFF;" d="M588.2,405.4c0.3,0,0.6,0,0.9,0.1c0.3,0.1,0.5,0.1,0.7,0.2v4.1c-0.2-0.2-0.5-0.3-0.9-0.4
		c-0.4-0.1-0.9-0.2-1.5-0.2c-1,0-1.9,0.4-2.5,1.3c-0.7,0.8-1,2.2-1,3.9v8.7h-4.1v-17.3h4.1v2.7h0.1c0.4-1,0.9-1.7,1.7-2.2
		C586.3,405.7,587.2,405.4,588.2,405.4"/>
	<path style="fill:#FFFFFF;" d="M590,414.7c0-2.9,0.8-5.1,2.4-6.8c1.6-1.7,3.9-2.5,6.7-2.5c2.7,0,4.8,0.8,6.3,2.4s2.3,3.8,2.3,6.5
		c0,2.8-0.8,5-2.4,6.7s-3.8,2.5-6.6,2.5c-2.7,0-4.8-0.8-6.4-2.4C590.8,419.5,590,417.4,590,414.7 M594.2,414.5
		c0,1.8,0.4,3.2,1.2,4.1c0.8,1,2,1.4,3.5,1.4c1.5,0,2.6-0.5,3.4-1.4c0.8-1,1.2-2.4,1.2-4.2c0-1.9-0.4-3.3-1.2-4.2
		c-0.8-1-1.9-1.4-3.4-1.4c-1.5,0-2.6,0.5-3.5,1.5C594.6,411.2,594.2,412.7,594.2,414.5"/>
	<path style="fill:#FFFFFF;" d="M613.8,410.3c0,0.6,0.2,1,0.5,1.4c0.4,0.3,1.2,0.7,2.5,1.3c1.6,0.7,2.8,1.4,3.4,2.2s1,1.8,1,3
		c0,1.6-0.6,2.9-1.9,3.9c-1.3,1-2.9,1.5-5.1,1.5c-0.7,0-1.5-0.1-2.4-0.3c-0.9-0.2-1.6-0.4-2.2-0.7v-4c0.7,0.5,1.5,0.9,2.4,1.2
		c0.8,0.3,1.6,0.5,2.3,0.5c0.9,0,1.6-0.1,2-0.4c0.4-0.3,0.7-0.7,0.7-1.3c0-0.6-0.2-1-0.7-1.4s-1.3-0.8-2.6-1.3
		c-1.5-0.6-2.6-1.3-3.2-2.1c-0.6-0.8-1-1.8-1-3c0-1.6,0.6-2.8,1.9-3.8c1.2-1,2.9-1.5,4.8-1.5c0.6,0,1.3,0.1,2,0.2
		c0.8,0.1,1.4,0.3,1.9,0.5v3.9c-0.5-0.4-1.2-0.7-1.9-0.9c-0.7-0.3-1.4-0.4-2.2-0.4c-0.8,0-1.4,0.2-1.8,0.5
		C614,409.3,613.8,409.7,613.8,410.3"/>
	<path style="fill:#FFFFFF;" d="M623,414.7c0-2.9,0.8-5.1,2.4-6.8c1.6-1.7,3.9-2.5,6.7-2.5c2.7,0,4.8,0.8,6.3,2.4s2.3,3.8,2.3,6.5
		c0,2.8-0.8,5-2.4,6.7s-3.8,2.5-6.6,2.5c-2.7,0-4.8-0.8-6.4-2.4C623.8,419.5,623,417.4,623,414.7 M627.3,414.5
		c0,1.8,0.4,3.2,1.2,4.1c0.8,1,2,1.4,3.5,1.4c1.5,0,2.6-0.5,3.4-1.4c0.8-1,1.2-2.4,1.2-4.2c0-1.9-0.4-3.3-1.2-4.2
		c-0.8-1-1.9-1.4-3.4-1.4c-1.5,0-2.6,0.5-3.5,1.5C627.7,411.2,627.3,412.7,627.3,414.5"/>
	<path style="fill:#FFFFFF;" d="M654.3,409.1v8.9c0,1.9,0.4,3.2,1.3,4.1c0.9,0.9,2.2,1.4,3.9,1.4c0.6,0,1.2-0.1,1.8-0.2
		c0.6-0.1,1-0.2,1.3-0.4v-3.4c-0.2,0.2-0.5,0.3-0.9,0.4c-0.3,0.1-0.6,0.2-0.8,0.2c-0.8,0-1.4-0.2-1.8-0.7s-0.6-1.2-0.6-2.3V409h4.1
		v-3.3h-4.1v-5.1l-4.1,1.3v3.9h-6.1v-2.1c0-1,0.2-1.8,0.7-2.4c0.5-0.5,1.1-0.8,2-0.8c0.4,0,0.8,0.1,1.2,0.2c0.3,0.1,0.6,0.2,0.7,0.3
		v-3.5c-0.3-0.1-0.6-0.2-1-0.2c-0.4-0.1-0.8-0.1-1.3-0.1c-1.9,0-3.4,0.6-4.5,1.7c-1.2,1.2-1.8,2.6-1.8,4.5v2.4h-2.9v3.3h2.9v14h4.1
		v-14L654.3,409.1L654.3,409.1z"/>
	<polygon style="fill:#FFFFFF;" points="552.2,398.9 552.2,423 548,423 548,404.1 548,404.1 540.5,423 537.7,423 530,404.1 
		530,404.1 530,423 526.1,423 526.1,398.9 532.1,398.9 539,416.8 539.2,416.8 546.5,398.9 	"/>
	<rect x="463.6" y="375" style="fill:#F25022;" width="22.9" height="22.9"/>
	<rect x="488.8" y="375" style="fill:#7FBA00;" width="22.9" height="22.9"/>
	<rect x="463.6" y="400.2" style="fill:#00A4EF;" width="22.9" height="22.9"/>
	<rect x="488.8" y="400.2" style="fill:#FFB900;" width="22.9" height="22.9"/>
	<g style="enable-background:new    ;">
		<path style="fill:#FFFFFF;" d="M534.8,387.7h-1.7v-5.3h-5.8v5.3h-1.7v-11.8h1.7v5.1h5.8v-5.1h1.7V387.7z"/>
		<path style="fill:#FFFFFF;" d="M544.6,383.9h-5.9c0,0.9,0.3,1.5,0.7,2c0.5,0.5,1.1,0.7,1.8,0.7c1,0,1.9-0.3,2.6-0.9v1.4
			c-0.3,0.2-0.8,0.4-1.3,0.6c-0.5,0.1-1,0.2-1.6,0.2c-1.3,0-2.3-0.4-3-1.1c-0.7-0.8-1.1-1.8-1.1-3.2c0-0.9,0.2-1.6,0.5-2.3
			c0.3-0.7,0.8-1.2,1.4-1.6s1.3-0.6,2-0.6c1.1,0,2,0.4,2.6,1.1c0.6,0.7,0.9,1.7,0.9,3V383.9z M542.9,382.6c0-0.7-0.2-1.3-0.5-1.7
			c-0.3-0.4-0.8-0.6-1.4-0.6c-0.6,0-1,0.2-1.5,0.6c-0.4,0.4-0.7,1-0.8,1.6H542.9z"/>
		<path style="fill:#FFFFFF;" d="M551.1,380.8c-0.1-0.1-0.3-0.1-0.5-0.2c-0.2-0.1-0.4-0.1-0.6-0.1c-0.6,0-1,0.3-1.4,0.8
			c-0.4,0.5-0.5,1.2-0.5,2v4.3h-1.6v-8.4h1.6v1.7h0c0.2-0.6,0.5-1,0.9-1.4c0.4-0.3,0.8-0.5,1.3-0.5c0.3,0,0.6,0,0.8,0.1V380.8z"/>
		<path style="fill:#FFFFFF;" d="M559.6,387.7H558v-1.3h0c-0.6,1-1.4,1.5-2.6,1.5c-2,0-3-1.2-3-3.6v-5.1h1.6v4.9
			c0,1.6,0.6,2.4,1.9,2.4c0.6,0,1.1-0.2,1.5-0.7c0.4-0.4,0.6-1,0.6-1.8v-4.9h1.6V387.7z"/>
		<path style="fill:#FFFFFF;" d="M569.5,387.7h-1.6v-4.8c0-0.9-0.1-1.5-0.4-1.9c-0.3-0.4-0.8-0.6-1.4-0.6c-0.6,0-1.1,0.2-1.5,0.7
			c-0.4,0.5-0.6,1.1-0.6,1.8v4.8h-1.6v-8.4h1.6v1.4h0c0.6-1.1,1.6-1.6,2.8-1.6c0.9,0,1.6,0.3,2.1,0.9c0.5,0.6,0.7,1.5,0.7,2.6V387.7
			z"/>
		<path style="fill:#FFFFFF;" d="M576.2,387.6c-0.1,0.1-0.4,0.2-0.6,0.2c-0.3,0.1-0.5,0.1-0.7,0.1c-1.6,0-2.3-0.9-2.3-2.6v-4.7H571
			v-1.3h1.4v-2l1.6-0.5v2.5h2.1v1.3h-2.1v4.4c0,0.6,0.1,1,0.3,1.2c0.2,0.2,0.5,0.3,1,0.3c0.3,0,0.6-0.1,0.9-0.3V387.6z"/>
		<path style="fill:#FFFFFF;" d="M584.9,383.9H579c0,0.9,0.3,1.5,0.7,2c0.5,0.5,1.1,0.7,1.8,0.7c1,0,1.9-0.3,2.6-0.9v1.4
			c-0.3,0.2-0.8,0.4-1.3,0.6c-0.5,0.1-1,0.2-1.6,0.2c-1.3,0-2.3-0.4-3-1.1c-0.7-0.8-1.1-1.8-1.1-3.2c0-0.9,0.2-1.6,0.5-2.3
			c0.3-0.7,0.8-1.2,1.4-1.6c0.6-0.4,1.3-0.6,2-0.6c1.1,0,2,0.4,2.6,1.1c0.6,0.7,0.9,1.7,0.9,3V383.9z M583.2,382.6
			c0-0.7-0.2-1.3-0.5-1.7c-0.3-0.4-0.8-0.6-1.4-0.6c-0.6,0-1,0.2-1.5,0.6c-0.4,0.4-0.7,1-0.8,1.6H583.2z"/>
		<path style="fill:#FFFFFF;" d="M591.4,380.8c-0.1-0.1-0.3-0.1-0.5-0.2c-0.2-0.1-0.4-0.1-0.6-0.1c-0.6,0-1,0.3-1.4,0.8
			c-0.4,0.5-0.5,1.2-0.5,2v4.3h-1.6v-8.4h1.6v1.7h0c0.2-0.6,0.5-1,0.9-1.4c0.4-0.3,0.8-0.5,1.3-0.5c0.3,0,0.6,0,0.8,0.1V380.8z"/>
		<path style="fill:#FFFFFF;" d="M594.5,387.7h-1.6v-12.5h1.6V387.7z"/>
		<path style="fill:#FFFFFF;" d="M603.3,387.7h-1.6v-1.2h0c-0.6,1-1.4,1.4-2.5,1.4c-0.8,0-1.5-0.2-1.9-0.7c-0.5-0.4-0.7-1-0.7-1.8
			c0-1.6,1-2.5,2.9-2.8l2.4-0.3c0-1.3-0.6-1.9-1.7-1.9c-1,0-1.9,0.3-2.8,1v-1.5c0.9-0.5,1.9-0.8,2.9-0.8c2.1,0,3.1,1.1,3.1,3.2
			V387.7z M601.7,383.5l-1.9,0.3c-0.6,0.1-1,0.2-1.3,0.5c-0.3,0.2-0.4,0.6-0.4,1c0,0.4,0.1,0.7,0.4,1c0.3,0.2,0.6,0.3,1.1,0.3
			c0.6,0,1.1-0.2,1.5-0.6c0.4-0.4,0.6-1,0.6-1.6V383.5z"/>
		<path style="fill:#FFFFFF;" d="M613,387.7h-1.6v-1.4h0c-0.6,1.1-1.6,1.6-2.8,1.6c-1.1,0-1.9-0.4-2.5-1.1c-0.6-0.8-1-1.8-1-3.1
			c0-1.4,0.4-2.5,1.1-3.4c0.7-0.8,1.6-1.3,2.8-1.3c1.1,0,1.9,0.4,2.5,1.3h0v-5.2h1.6V387.7z M611.4,382.7c0-0.6-0.2-1.2-0.7-1.6
			c-0.4-0.4-1-0.7-1.6-0.7c-0.8,0-1.4,0.3-1.8,0.8c-0.4,0.6-0.7,1.4-0.7,2.4c0,0.9,0.2,1.6,0.6,2.1c0.4,0.5,1,0.8,1.7,0.8
			c0.7,0,1.2-0.3,1.7-0.8c0.5-0.5,0.7-1.2,0.7-2V382.7z"/>
		<path style="fill:#FFFFFF;" d="M622.6,383.9h-5.9c0,0.9,0.3,1.5,0.7,2c0.5,0.5,1.1,0.7,1.8,0.7c1,0,1.9-0.3,2.6-0.9v1.4
			c-0.3,0.2-0.8,0.4-1.3,0.6c-0.5,0.1-1,0.2-1.6,0.2c-1.3,0-2.3-0.4-3-1.1c-0.7-0.8-1.1-1.8-1.1-3.2c0-0.9,0.2-1.6,0.5-2.3
			c0.3-0.7,0.8-1.2,1.4-1.6c0.6-0.4,1.3-0.6,2-0.6c1.1,0,2,0.4,2.6,1.1c0.6,0.7,0.9,1.7,0.9,3V383.9z M620.9,382.6
			c0-0.7-0.2-1.3-0.5-1.7c-0.3-0.4-0.8-0.6-1.4-0.6c-0.6,0-1,0.2-1.5,0.6c-0.4,0.4-0.7,1-0.8,1.6H620.9z"/>
		<path style="fill:#FFFFFF;" d="M631.7,387.7h-1.6v-4.8c0-0.9-0.1-1.5-0.4-1.9c-0.3-0.4-0.8-0.6-1.4-0.6c-0.6,0-1.1,0.2-1.5,0.7
			c-0.4,0.5-0.6,1.1-0.6,1.8v4.8h-1.6v-8.4h1.6v1.4h0c0.6-1.1,1.6-1.6,2.8-1.6c0.9,0,1.6,0.3,2.1,0.9c0.5,0.6,0.7,1.5,0.7,2.6V387.7
			z"/>
		<path style="fill:#FFFFFF;" d="M645.1,379.2l-3.3,8.4h-1.7l-3.2-8.4h1.8l2,5.9c0.1,0.4,0.2,0.8,0.3,1.3h0c0-0.1,0.1-0.3,0.1-0.6
			c0.1-0.3,0.1-0.5,0.2-0.7l2-5.9H645.1z"/>
		<path style="fill:#FFFFFF;" d="M654.3,383.4c0,1.4-0.4,2.5-1.2,3.3c-0.8,0.8-1.8,1.2-3.1,1.2c-1.3,0-2.3-0.4-3.1-1.2
			c-0.8-0.8-1.1-1.8-1.1-3.2c0-1.4,0.4-2.5,1.2-3.3c0.8-0.8,1.9-1.2,3.2-1.2c1.3,0,2.3,0.4,3,1.2C654,381,654.3,382,654.3,383.4z
			 M652.6,383.4c0-1-0.2-1.8-0.7-2.3c-0.4-0.5-1.1-0.8-1.9-0.8c-0.8,0-1.5,0.3-1.9,0.8c-0.5,0.5-0.7,1.3-0.7,2.3
			c0,1,0.2,1.7,0.7,2.2s1.1,0.8,1.9,0.8c0.8,0,1.5-0.3,1.9-0.8C652.4,385.2,652.6,384.5,652.6,383.4z"/>
		<path style="fill:#FFFFFF;" d="M663.6,387.7H662v-4.8c0-0.9-0.1-1.5-0.4-1.9c-0.3-0.4-0.8-0.6-1.4-0.6c-0.6,0-1.1,0.2-1.5,0.7
			c-0.4,0.5-0.6,1.1-0.6,1.8v4.8h-1.6v-8.4h1.6v1.4h0c0.6-1.1,1.6-1.6,2.8-1.6c0.9,0,1.6,0.3,2.1,0.9c0.5,0.6,0.7,1.5,0.7,2.6V387.7
			z"/>
	</g>
</g>
</svg>
