<svg id="svg2" xmlns="http://www.w3.org/2000/svg" viewBox="0 0 425 160.1"><defs><style>.cls-1{fill:#fff;}.cls-2{opacity:0.8;}</style></defs><title>Zeichenfläche 1</title><g id="layer1"><g id="g4649"><path id="path3777" class="cls-1" d="M20.63,32.53a22.19,22.19,0,0,1,2.9.21,24.91,24.91,0,0,1,3.33.43,26.47,26.47,0,0,1,2.9.54,13.65,13.65,0,0,1,2,.43l-1.72,8.7a29.19,29.19,0,0,0-4-1,30.87,30.87,0,0,0-7-.64,24.79,24.79,0,0,0-5.59.64q-2.69.54-3.55.75v47H0V36.08a63.33,63.33,0,0,1,8.81-2.36,54.14,54.14,0,0,1,11.82-1.18"/><path id="path3779" class="cls-1" d="M60.47,82.4q3.55,0,6.23-.11a31.15,31.15,0,0,0,4.62-.64V65a12.05,12.05,0,0,0-3.55-.86A33.13,33.13,0,0,0,62,63.7a39.13,39.13,0,0,0-4.84.32,14.43,14.43,0,0,0-4.62,1.4,9.28,9.28,0,0,0-3.44,2.79,7.11,7.11,0,0,0-1.4,4.62q0,5.37,3.44,7.52t9.35,2m-.86-50.08a27.65,27.65,0,0,1,10.1,1.61,15.33,15.33,0,0,1,6.66,4.41A15.93,15.93,0,0,1,80,45.11a32.1,32.1,0,0,1,1.07,8.6V88.63l-3.65.64q-2.26.32-5.16.64T66,90.46q-3.33.32-6.66.32a36.81,36.81,0,0,1-8.7-1,20.06,20.06,0,0,1-6.88-3,14.45,14.45,0,0,1-4.51-5.59,19.37,19.37,0,0,1-1.61-8.28,16.3,16.3,0,0,1,1.83-8,15.44,15.44,0,0,1,5.16-5.37,23.64,23.64,0,0,1,7.52-3,41,41,0,0,1,9-1,23.6,23.6,0,0,1,3.12.21,19,19,0,0,1,3,.43q1.5.21,2.58.43t1.5.32V54.24a21.76,21.76,0,0,0-.54-4.84,10.72,10.72,0,0,0-1.93-4.3,9.13,9.13,0,0,0-3.87-3,14,14,0,0,0-6.23-1.18,44.77,44.77,0,0,0-8.7.75,28.19,28.19,0,0,0-5.48,1.4l-1.18-8.28a29.32,29.32,0,0,1,6.45-1.61,52.31,52.31,0,0,1,9.78-.86"/><path id="path3781" class="cls-1" d="M97.6,35.33q3.44-.86,9-1.83a79,79,0,0,1,13.11-1,23.78,23.78,0,0,1,9,1.5,15.36,15.36,0,0,1,6.13,4.19q.75-.54,2.36-1.5a23.19,23.19,0,0,1,4-1.83,32.59,32.59,0,0,1,5.27-1.61,28.28,28.28,0,0,1,16.77,1.18,14.4,14.4,0,0,1,6.34,5.27,19.66,19.66,0,0,1,3.12,8.17,57.79,57.79,0,0,1,.86,10.32V89.6h-10V60.37a57.67,57.67,0,0,0-.54-8.49A15.12,15.12,0,0,0,161.23,46a7.72,7.72,0,0,0-3.65-3.44,12.75,12.75,0,0,0-5.91-1.18,21.79,21.79,0,0,0-8.38,1.4,15.63,15.63,0,0,0-4.41,2.36,36.91,36.91,0,0,1,1.29,6.13,54.61,54.61,0,0,1,.43,7V89.6h-10V60.37a57.66,57.66,0,0,0-.54-8.49A16.4,16.4,0,0,0,128.12,46a7.72,7.72,0,0,0-3.65-3.44,12.48,12.48,0,0,0-5.8-1.18q-1.5,0-3.22.11t-3.33.32q-1.5.11-2.79.32t-1.72.32V89.6h-10V35.33"/><path id="path3783" class="cls-1" d="M200.16,89.6h-10V33.72h10V89.6"/><path id="rect3761" class="cls-1" d="M248.51,0V44a17.57,17.57,0,0,1,0,35.15v44H425V0Zm0,79.11V44h-.18a17.57,17.57,0,0,0,0,35.15Zm100.35-46.9a25.53,25.53,0,0,1,10.51,2.16,22.74,22.74,0,0,1,8.27,5.89,26.84,26.84,0,0,1,5.49,9.34,35,35,0,0,1,1.94,11.93,35.4,35.4,0,0,1-1.94,12,27.17,27.17,0,0,1-5.49,9.26,23.9,23.9,0,0,1-8.27,6,28,28,0,0,1-21.05,0,25,25,0,0,1-8.38-6,28.13,28.13,0,0,1-5.38-9.26,35.4,35.4,0,0,1-1.94-12,35,35,0,0,1,1.94-11.93,27.77,27.77,0,0,1,5.38-9.34,23.76,23.76,0,0,1,8.38-5.89A25.7,25.7,0,0,1,348.85,32.22Zm-50.41,1.39h10v55.9h-10ZM348.85,41a13.85,13.85,0,0,0-11.61,5.56c-2.79,3.65-4.21,8.63-4.21,14.94s1.42,11.32,4.21,15a14,14,0,0,0,11.61,5.49,13.69,13.69,0,0,0,11.5-5.49q4.3-5.59,4.28-15T360.35,46.6A13.56,13.56,0,0,0,348.85,41Z"/></g><g id="text3822" class="cls-2"><path id="path4026" class="cls-1" d="M7.28,157.25q5.17,0,5.17-3.54a3.35,3.35,0,0,0-.48-1.84,4,4,0,0,0-1.22-1.33,8,8,0,0,0-1.8-1q-1-.41-2.11-.82a24,24,0,0,1-2.45-1,9.34,9.34,0,0,1-2-1.33A6.05,6.05,0,0,1,1,144.6,6.17,6.17,0,0,1,.54,142a5.91,5.91,0,0,1,2.11-4.83,8.89,8.89,0,0,1,5.81-1.73,14.64,14.64,0,0,1,3.88.48,8.65,8.65,0,0,1,2.58,1l-1.05,2.69a8.86,8.86,0,0,0-2.14-.85,10.83,10.83,0,0,0-3.26-.44,7.28,7.28,0,0,0-1.77.2,4.53,4.53,0,0,0-1.43.61,3.14,3.14,0,0,0-1,1.05,3,3,0,0,0-.34,1.46,3.15,3.15,0,0,0,.37,1.6,3.89,3.89,0,0,0,1.05,1.16,10.11,10.11,0,0,0,1.56.88q.92.41,2,.82,1.53.61,2.79,1.22a8.71,8.71,0,0,1,2.21,1.46,5.72,5.72,0,0,1,1.46,2,7,7,0,0,1,.51,2.82,5.54,5.54,0,0,1-2.28,4.76,10.51,10.51,0,0,1-6.36,1.67,15.32,15.32,0,0,1-2.58-.2,19.79,19.79,0,0,1-2.07-.41q-.92-.27-1.6-.54t-1-.51l1-2.72a14.88,14.88,0,0,0,2.38,1,12.23,12.23,0,0,0,3.91.54"/><path id="path4028" class="cls-1" d="M18.91,147.79a14.89,14.89,0,0,1,.88-5.34,11.19,11.19,0,0,1,2.45-3.84,10.22,10.22,0,0,1,3.6-2.35,12.33,12.33,0,0,1,4.39-.78,11.69,11.69,0,0,1,4.28.78,9.89,9.89,0,0,1,3.57,2.35,10.8,10.8,0,0,1,2.41,3.84,16,16,0,0,1,0,10.68A11.15,11.15,0,0,1,38.09,157a10.11,10.11,0,0,1-3.57,2.31,11.69,11.69,0,0,1-4.28.78,12.33,12.33,0,0,1-4.39-.78,10.45,10.45,0,0,1-3.6-2.31,11.56,11.56,0,0,1-2.45-3.88,14.89,14.89,0,0,1-.88-5.34m3.47,0a13.25,13.25,0,0,0,.54,3.91,8.91,8.91,0,0,0,1.53,3,7.16,7.16,0,0,0,2.45,1.9,8,8,0,0,0,3.26.65,7.75,7.75,0,0,0,3.23-.65,6.83,6.83,0,0,0,2.41-1.9,8.57,8.57,0,0,0,1.56-3,13.26,13.26,0,0,0,.54-3.91,12.92,12.92,0,0,0-.54-3.88,8.53,8.53,0,0,0-1.56-3,6.5,6.5,0,0,0-2.41-1.87,7.42,7.42,0,0,0-3.23-.68,7.65,7.65,0,0,0-3.26.68,6.8,6.8,0,0,0-2.45,1.87,8.87,8.87,0,0,0-1.53,3,12.92,12.92,0,0,0-.54,3.88"/><path id="path4030" class="cls-1" d="M46.3,159.59V136H60.51v2.82H49.59V146h9.69v2.79H49.59v10.85H46.3"/><path id="path4032" class="cls-1" d="M80.78,136v2.86H73.36v20.71h-3.3V138.89H62.65V136H80.78"/><path id="path4034" class="cls-1" d="M97.69,143.61q-1.43,4.56-2.89,8.43t-2.92,7.55h-3.3q-1.8-5.2-3.2-11T82.83,136H86.3q.48,2.65,1,5.3t1.05,5.17q.54,2.48,1.09,4.76t1.12,4.22q1.36-3.57,2.89-7.82t2.86-8.84h2.86q1.33,4.56,2.89,8.84t2.92,7.82q.54-1.9,1.09-4.18t1.05-4.76q.54-2.52,1.05-5.17t1-5.34h3.37q-1.22,6.8-2.62,12.58t-3.13,11h-3.3q-1.5-3.67-2.92-7.55t-2.86-8.43"/><path id="path4036" class="cls-1" d="M131.54,159.59q-.58-1.53-1.09-3t-1.05-3H118.73l-2.14,6h-3.43q1.36-3.74,2.55-6.9t2.31-6.05q1.16-2.86,2.28-5.44t2.35-5.17h3q1.22,2.55,2.35,5.17t2.24,5.44q1.16,2.86,2.35,6.05t2.55,6.9h-3.6m-3.09-8.74q-1.09-3-2.18-5.71t-2.21-5.34q-1.19,2.55-2.28,5.34t-2.11,5.71h8.77"/><path id="path4038" class="cls-1" d="M149.84,149.73q.54.68,1.36,1.8t1.73,2.45q.88,1.33,1.73,2.79a26.49,26.49,0,0,1,1.5,2.82h-3.6q-.68-1.29-1.5-2.62t-1.6-2.52q-.82-1.22-1.63-2.28t-1.43-1.84q-.44,0-.92,0h-3.88v9.21h-3.3V136.37a17.52,17.52,0,0,1,3.09-.44q1.73-.14,3.16-.14,5,0,7.55,1.87a7.16,7.16,0,0,1,1.36,9.59,7.21,7.21,0,0,1-3.64,2.48m-5-11.05q-2.11,0-3.23.1v8.87H144a24.86,24.86,0,0,0,3.06-.17,6.77,6.77,0,0,0,2.28-.65,3.46,3.46,0,0,0,1.46-1.33,4.6,4.6,0,0,0,.51-2.31,4.37,4.37,0,0,0-.51-2.21,3.74,3.74,0,0,0-1.39-1.39,5.86,5.86,0,0,0-2-.71,14.29,14.29,0,0,0-2.48-.2"/><path id="path4040" class="cls-1" d="M159.7,159.59V136h14.38v2.82H163v7h9.86v2.75H163v8.16h11.93v2.82H159.7"/><path id="path4042" class="cls-1" d="M206.27,147.79a13.77,13.77,0,0,1-1,5.34,10,10,0,0,1-2.69,3.74,11.74,11.74,0,0,1-4.15,2.21,18.65,18.65,0,0,1-5.3.71q-1.43,0-3.16-.14a17.51,17.51,0,0,1-3.09-.44V136.37a17.52,17.52,0,0,1,3.09-.44q1.73-.14,3.16-.14a17.86,17.86,0,0,1,5.3.75,11.06,11.06,0,0,1,4.15,2.21,9.68,9.68,0,0,1,2.69,3.74,13.52,13.52,0,0,1,1,5.3m-12.82,9.11q4.69,0,7-2.38a9.34,9.34,0,0,0,2.31-6.73,9.21,9.21,0,0,0-2.31-6.7q-2.31-2.41-7-2.41-1.39,0-2.18,0l-1.05.07v18l1.05.07q.78,0,2.18,0"/><path id="path4044" class="cls-1" d="M211.16,159.59V136h14.38v2.82H214.46v7h9.86v2.75h-9.86v8.16h11.93v2.82H211.16"/><path id="path4046" class="cls-1" d="M249.59,136q-1.29,3.74-2.48,6.94t-2.28,6q-1.12,2.86-2.24,5.47t-2.24,5.13h-3.09Q236.1,157,235,154.46T232.73,149q-1.12-2.86-2.31-6T228,136h3.64q1.84,5.37,3.6,10.34t3.64,9.32q1.87-4.32,3.64-9.28T246.06,136h3.54"/><path id="path4048" class="cls-1" d="M252.87,159.59V136h14.38v2.82H256.16v7H266v2.75h-9.86v8.16H268.1v2.82H252.87"/><path id="path4050" class="cls-1" d="M286.44,156.74v2.86H272.26V136h3.3v20.71h10.88"/><path id="path4052" class="cls-1" d="M287.44,147.79a14.89,14.89,0,0,1,.88-5.34,11.19,11.19,0,0,1,2.45-3.84,10.22,10.22,0,0,1,3.6-2.35,12.33,12.33,0,0,1,4.39-.78,11.69,11.69,0,0,1,4.28.78,9.89,9.89,0,0,1,3.57,2.35,10.8,10.8,0,0,1,2.41,3.84,16,16,0,0,1,0,10.68,11.15,11.15,0,0,1-2.41,3.88,10.11,10.11,0,0,1-3.57,2.31,11.69,11.69,0,0,1-4.28.78,12.33,12.33,0,0,1-4.39-.78,10.45,10.45,0,0,1-3.6-2.31,11.56,11.56,0,0,1-2.45-3.88,14.89,14.89,0,0,1-.88-5.34m3.47,0a13.25,13.25,0,0,0,.54,3.91,8.91,8.91,0,0,0,1.53,3,7.16,7.16,0,0,0,2.45,1.9,8,8,0,0,0,3.26.65,7.75,7.75,0,0,0,3.23-.65,6.83,6.83,0,0,0,2.41-1.9,8.57,8.57,0,0,0,1.56-3,13.25,13.25,0,0,0,.54-3.91,12.92,12.92,0,0,0-.54-3.88,8.53,8.53,0,0,0-1.56-3,6.5,6.5,0,0,0-2.41-1.87,7.42,7.42,0,0,0-3.23-.68,7.65,7.65,0,0,0-3.26.68,6.8,6.8,0,0,0-2.45,1.87,8.87,8.87,0,0,0-1.53,3,12.92,12.92,0,0,0-.54,3.88"/><path id="path4054" class="cls-1" d="M321.08,135.79q5,0,7.62,1.9a6.38,6.38,0,0,1,2.69,5.61,7.61,7.61,0,0,1-.75,3.5,6,6,0,0,1-2.11,2.35,9.66,9.66,0,0,1-3.33,1.29,22.08,22.08,0,0,1-4.45.41h-2.62v8.74h-3.3V136.37a17.52,17.52,0,0,1,3.09-.44q1.73-.14,3.16-.14m.27,2.89q-2.11,0-3.23.1V148h2.48a20.76,20.76,0,0,0,3.06-.2,7.27,7.27,0,0,0,2.28-.75,3.78,3.78,0,0,0,1.46-1.46,4.8,4.8,0,0,0,.51-2.35,4.22,4.22,0,0,0-.54-2.24,3.67,3.67,0,0,0-1.43-1.39,5.78,5.78,0,0,0-2.07-.75,14.89,14.89,0,0,0-2.52-.2"/><path id="path4056" class="cls-1" d="M346,156.33q-.34-.82-.92-2.07l-1.19-2.72q-.65-1.46-1.39-3t-1.36-2.92q-.65-1.39-1.22-2.48t-.88-1.67q-.37,4-.61,8.7t-.41,9.42h-3.23q.14-3.06.31-6.15t.37-6.12q.24-3,.48-5.88t.58-5.41h2.89q.92,1.5,2,3.54t2.11,4.28q1.05,2.21,2,4.45l1.8,4,1.8-4q1-2.24,2-4.45t2.11-4.28q1.05-2,2-3.54h2.89q1.16,11.39,1.73,23.56h-3.23q-.17-4.76-.41-9.42t-.61-8.7q-.34.58-.92,1.67t-1.19,2.48l-1.39,2.92q-.71,1.53-1.36,3t-1.22,2.72q-.54,1.26-.88,2.07H346"/><path id="path4058" class="cls-1" d="M365.09,159.59V136h14.38v2.82H368.39v7h9.86v2.75h-9.86v8.16h11.93v2.82H365.09"/><path id="path4060" class="cls-1" d="M400.63,159.59q-.75-1.26-1.73-2.82t-2.07-3.23q-1.12-1.7-2.35-3.43t-2.38-3.33q-1.19-1.63-2.31-3.06t-2.07-2.52v18.39h-3.23V136h2.62q1.6,1.7,3.4,4t3.6,4.66q1.8,2.38,3.37,4.69t2.69,4.11V136h3.23v23.56h-2.75"/><path id="path4062" class="cls-1" d="M425,136v2.86h-7.41v20.71h-3.3V138.89h-7.41V136H425"/></g></g></svg>