<?xml version="1.0" encoding="UTF-8" standalone="no"?>
<!-- Created with Inkscape (http://www.inkscape.org/) -->

<svg
   xmlns:dc="http://purl.org/dc/elements/1.1/"
   xmlns:cc="http://creativecommons.org/ns#"
   xmlns:rdf="http://www.w3.org/1999/02/22-rdf-syntax-ns#"
   xmlns:svg="http://www.w3.org/2000/svg"
   xmlns="http://www.w3.org/2000/svg"
   xmlns:sodipodi="http://sodipodi.sourceforge.net/DTD/sodipodi-0.dtd"
   xmlns:inkscape="http://www.inkscape.org/namespaces/inkscape"
   width="425"
   height="160.10146"
   id="svg2"
   version="1.1"
   inkscape:version="0.48.4 r9939"
   sodipodi:docname="logo.svg"
   inkscape:export-filename="/daten/proj/rami.io/wp-content/themes/ramiio/img/logo.png"
   inkscape:export-xdpi="105.36863"
   inkscape:export-ydpi="105.36863">
  <defs
     id="defs4" />
  <sodipodi:namedview
     id="base"
     pagecolor="#880231"
     bordercolor="#666666"
     borderopacity="1.0"
     inkscape:pageopacity="1"
     inkscape:pageshadow="2"
     inkscape:zoom="1.4"
     inkscape:cx="128.18436"
     inkscape:cy="20.4647"
     inkscape:document-units="px"
     inkscape:current-layer="layer1"
     showgrid="false"
     inkscape:window-width="1916"
     inkscape:window-height="1041"
     inkscape:window-x="1680"
     inkscape:window-y="18"
     inkscape:window-maximized="0"
     fit-margin-top="0"
     fit-margin-left="0"
     fit-margin-right="0"
     fit-margin-bottom="0" />
  <metadata
     id="metadata7">
    <rdf:RDF>
      <cc:Work
         rdf:about="">
        <dc:format>image/svg+xml</dc:format>
        <dc:type
           rdf:resource="http://purl.org/dc/dcmitype/StillImage" />
        <dc:title></dc:title>
      </cc:Work>
    </rdf:RDF>
  </metadata>
  <g
     inkscape:label="Ebene 1"
     inkscape:groupmode="layer"
     id="layer1"
     transform="translate(-171.7533,-76.717869)">
    <g
       id="g4649"
       style="fill:#ffffff;fill-opacity:1"
       transform="matrix(1.1715049,0,0,1.1715049,-29.456529,-40.615669)">
      <path
         d="m 189.36657,127.92805 c 0.73386,5e-5 1.55948,0.0612 2.47687,0.18347 0.97848,0.0612 1.92642,0.18352 2.8438,0.36694 0.91733,0.12236 1.74295,0.27526 2.47686,0.45868 0.79501,0.12236 1.376,0.24468 1.74298,0.36694 l -1.46777,7.43059 c -0.67276,-0.24459 -1.80416,-0.51979 -3.39422,-0.82562 -1.52895,-0.3669 -3.51656,-0.55037 -5.96282,-0.55041 -1.5901,4e-5 -3.18019,0.18351 -4.77025,0.55041 -1.52895,0.30583 -2.53804,0.51988 -3.02728,0.64215 l 0,40.08848 -8.53141,0 0,-45.68436 c 2.01817,-0.73383 4.52561,-1.40656 7.52232,-2.01818 2.99668,-0.67268 6.36032,-1.00904 10.09092,-1.00909"
         style="font-size:91.73565674px;font-style:normal;font-variant:normal;font-weight:normal;font-stretch:normal;text-align:start;line-height:125%;letter-spacing:0px;word-spacing:0px;writing-mode:lr-tb;text-anchor:start;fill:#ffffff;fill-opacity:1;stroke:none;font-family:Ubuntu;-inkscape-font-specification:Ubuntu"
         id="path3777"
         inkscape:connector-curvature="0" />
      <path
         d="m 223.3747,170.49339 c 2.01816,1e-5 3.79171,-0.0306 5.32067,-0.0917 1.59005,-0.12231 2.90493,-0.30578 3.94463,-0.55042 l 0,-14.21902 c -0.6116,-0.30577 -1.62069,-0.5504 -3.02727,-0.73389 -1.34549,-0.24461 -2.99673,-0.36692 -4.95373,-0.36694 -1.28432,2e-5 -2.66036,0.0918 -4.1281,0.27521 -1.40664,0.18349 -2.72151,0.58101 -3.94464,1.19256 -1.162,0.55043 -2.14051,1.34547 -2.93554,2.38513 -0.79505,0.97853 -1.19257,2.2934 -1.19256,3.94463 -1e-5,3.05787 0.9785,5.19836 2.93554,6.4215 1.95701,1.16199 4.61734,1.74298 7.981,1.74297 m -0.73388,-42.74881 c 3.42477,5e-5 6.29915,0.45872 8.62315,1.37603 2.38509,0.85625 4.28096,2.10997 5.68761,3.76116 1.46773,1.59013 2.5074,3.51658 3.11901,5.77935 0.61153,2.20169 0.91732,4.64797 0.91736,7.33885 l 0,29.81409 c -0.73393,0.12232 -1.7736,0.30579 -3.11901,0.55041 -1.28434,0.18348 -2.75211,0.36695 -4.40332,0.55042 -1.65127,0.18347 -3.4554,0.33636 -5.4124,0.45868 -1.8959,0.18347 -3.79177,0.2752 -5.68761,0.2752 -2.69093,0 -5.16779,-0.2752 -7.43059,-0.82562 -2.26282,-0.55041 -4.21985,-1.40661 -5.87108,-2.5686 -1.65125,-1.22313 -2.93555,-2.81322 -3.8529,-4.77025 -0.91736,-1.95702 -1.37604,-4.31156 -1.37603,-7.06364 -1e-5,-2.62974 0.51983,-4.89255 1.5595,-6.78844 1.10082,-1.89585 2.56859,-3.42478 4.40331,-4.58679 1.83471,-1.16195 3.9752,-2.01815 6.4215,-2.56859 2.44627,-0.55039 5.01486,-0.8256 7.7058,-0.82563 0.85617,3e-5 1.74295,0.0612 2.66033,0.18348 0.91733,0.0612 1.77353,0.1835 2.5686,0.36694 0.85617,0.12234 1.59005,0.24465 2.20165,0.36694 0.61154,0.12234 1.03964,0.21408 1.2843,0.27521 l 0,-2.38513 c -3e-5,-1.40658 -0.15292,-2.78261 -0.45868,-4.1281 -0.30581,-1.40658 -0.85623,-2.62972 -1.65124,-3.66943 -0.79507,-1.10079 -1.8959,-1.95699 -3.30248,-2.5686 -1.34548,-0.67269 -3.11904,-1.00905 -5.32067,-1.00909 -2.81325,4e-5 -5.29011,0.21409 -7.43059,0.64215 -2.07935,0.36698 -3.63886,0.7645 -4.67852,1.19256 l -1.00909,-7.06364 c 1.10082,-0.48921 2.93553,-0.94789 5.50414,-1.37604 2.56858,-0.48921 5.35123,-0.73383 8.34795,-0.73388"
         style="font-size:91.73565674px;font-style:normal;font-variant:normal;font-weight:normal;font-stretch:normal;text-align:start;line-height:125%;letter-spacing:0px;word-spacing:0px;writing-mode:lr-tb;text-anchor:start;fill:#ffffff;fill-opacity:1;stroke:none;font-family:Ubuntu;-inkscape-font-specification:Ubuntu"
         id="path3779"
         inkscape:connector-curvature="0" />
      <path
         d="m 255.06793,130.31318 c 1.95702,-0.48921 4.52562,-1.00905 7.7058,-1.55951 3.24131,-0.55037 6.97189,-0.82557 11.19175,-0.82562 3.05782,5e-5 5.62642,0.42815 7.70579,1.2843 2.07931,0.79509 3.82228,1.98765 5.22894,3.57769 0.42806,-0.30574 1.10078,-0.73384 2.01818,-1.2843 0.91731,-0.55037 2.04872,-1.0702 3.39422,-1.55951 1.34541,-0.55036 2.84376,-1.00904 4.49505,-1.37603 1.65119,-0.42805 3.42474,-0.6421 5.32066,-0.64215 3.66937,5e-5 6.66607,0.55046 8.9901,1.65124 2.3239,1.03972 4.12804,2.53806 5.4124,4.49505 1.34539,1.95707 2.23217,4.28103 2.66034,6.97191 0.48918,2.69094 0.73381,5.62648 0.73388,8.80662 l 0,26.78681 -8.53141,0 0,-24.9521 c -7e-5,-2.8132 -0.15296,-5.2289 -0.45868,-7.24711 -0.24469,-2.01815 -0.76453,-3.69997 -1.55951,-5.04546 -0.73394,-1.34542 -1.77361,-2.32394 -3.11901,-2.93555 -1.28436,-0.67268 -2.96618,-1.00905 -5.04546,-1.00909 -2.87444,4e-5 -5.25956,0.39756 -7.15538,1.19257 -1.83476,0.73392 -3.08848,1.40665 -3.76117,2.01818 0.48922,1.59012 0.85616,3.3331 1.10083,5.22893 0.24459,1.8959 0.3669,3.88351 0.36695,5.96282 l 0,26.78681 -8.53142,0 0,-24.9521 c -4e-5,-2.8132 -0.15293,-5.2289 -0.45868,-7.24711 -0.30582,-2.01815 -0.85623,-3.69997 -1.65124,-5.04546 -0.73392,-1.34542 -1.77359,-2.32394 -3.11901,-2.93555 -1.28433,-0.67268 -2.93557,-1.00905 -4.95373,-1.00909 -0.85622,4e-5 -1.77358,0.0306 -2.75207,0.0917 -0.97853,0.0612 -1.92647,0.15293 -2.8438,0.2752 -0.85622,0.0612 -1.65126,0.15294 -2.38513,0.27521 -0.7339,0.12236 -1.22316,0.21409 -1.46777,0.27521 l 0,40.27195 -8.53142,0 0,-46.3265"
         style="font-size:91.73565674px;font-style:normal;font-variant:normal;font-weight:normal;font-stretch:normal;text-align:start;line-height:125%;letter-spacing:0px;word-spacing:0px;writing-mode:lr-tb;text-anchor:start;fill:#ffffff;fill-opacity:1;stroke:none;font-family:Ubuntu;-inkscape-font-specification:Ubuntu"
         id="path3781"
         inkscape:connector-curvature="0" />
      <path
         sodipodi:nodetypes="ccccc"
         d="m 342.61386,176.63968 -8.53142,0 0,-47.70254 8.53142,0 0,47.70254"
         style="font-size:91.73565674px;font-style:normal;font-variant:normal;font-weight:normal;font-stretch:normal;text-align:start;line-height:125%;letter-spacing:0px;word-spacing:0px;writing-mode:lr-tb;text-anchor:start;fill:#ffffff;fill-opacity:1;stroke:none;font-family:Ubuntu;-inkscape-font-specification:Ubuntu"
         id="path3783"
         inkscape:connector-curvature="0" />
      <path
         inkscape:connector-curvature="0"
         style="fill:#ffffff;fill-opacity:1;stroke:none"
         d="m 383.87829,100.15625 0,37.53125 c 8.21162,0.0846 14.84375,6.76836 14.84375,15 0,8.23153 -6.63228,14.91523 -14.84375,15 l 0,37.53125 150.65625,0 0,-105.0625 -150.65625,0 z m 0,67.53125 0,-30 c -0.0525,-5.4e-4 -0.10361,0 -0.15625,0 -8.28427,0 -15,6.71573 -15,15 0,8.28427 6.71573,15 15,15 0.0528,0 0.10363,5.4e-4 0.15625,0 z m 85.65625,-40.03125 c 3.24129,5e-5 6.21665,0.62066 8.96875,1.84375 2.75203,1.16203 5.10543,2.82964 7.0625,5.03125 2.01814,2.2017 3.58662,4.84978 4.6875,7.96875 1.10077,3.05789 1.6562,6.45695 1.65625,10.1875 -5e-5,3.79176 -0.55548,7.22341 -1.65625,10.28125 -1.10088,3.05786 -2.66936,5.70461 -4.6875,7.90625 -1.95707,2.20166 -4.31047,3.90186 -7.0625,5.125 -2.7521,1.16198 -5.72746,1.75 -8.96875,1.75 -3.24135,0 -6.24795,-0.58802 -9,-1.75 -2.75208,-1.22314 -5.13808,-2.92334 -7.15625,-5.125 -1.95704,-2.20164 -3.49293,-4.84839 -4.59375,-7.90625 -1.10083,-3.05784 -1.65626,-6.48949 -1.65625,-10.28125 -10e-6,-3.73055 0.55542,-7.12961 1.65625,-10.1875 1.10082,-3.11897 2.63671,-5.76705 4.59375,-7.96875 2.01817,-2.20161 4.40417,-3.86922 7.15625,-5.03125 2.75205,-1.22309 5.75865,-1.8437 9,-1.84375 z m -43.03125,1.1875 8.53125,0 0,47.71875 -8.53125,0 0,-47.71875 z m 43.03125,6.34375 c -4.15871,4e-5 -7.45999,1.56987 -9.90625,4.75 -2.38515,3.11904 -3.59377,7.36821 -3.59375,12.75 -2e-5,5.38185 1.2086,9.6636 3.59375,12.84375 2.44626,3.11903 5.74754,4.68751 9.90625,4.6875 4.15865,1e-5 7.42734,-1.56847 9.8125,-4.6875 2.44625,-3.18015 3.65621,-7.4619 3.65625,-12.84375 -4e-5,-5.38179 -1.21,-9.63096 -3.65625,-12.75 -2.38516,-3.18013 -5.65385,-4.74996 -9.8125,-4.75 z"
         id="rect3761" />
    </g>
    <g
       style="font-size:34.00071334999999806px;font-style:normal;font-variant:normal;font-weight:normal;font-stretch:normal;line-height:125%;letter-spacing:0px;word-spacing:0px;opacity:0.8;fill:#ffffff;fill-opacity:1;stroke:none;font-family:Ubuntu;-inkscape-font-specification:Ubuntu"
       id="text3822">
      <path
         d="m 179.02945,233.96326 c 3.44539,0 5.16809,-1.17869 5.16811,-3.53607 -2e-5,-0.72534 -0.15869,-1.33736 -0.47601,-1.83604 -0.29469,-0.52134 -0.7027,-0.96335 -1.22403,-1.32603 -0.52136,-0.38533 -1.12203,-0.714 -1.80204,-0.98602 -0.65735,-0.27199 -1.36003,-0.544 -2.10804,-0.81602 -0.86136,-0.29466 -1.67738,-0.62333 -2.44805,-0.98602 -0.77069,-0.38533 -1.43937,-0.82734 -2.00605,-1.32603 -0.56668,-0.52133 -1.02002,-1.13334 -1.36002,-1.83603 -0.31735,-0.70267 -0.47602,-1.55269 -0.47601,-2.55006 -1e-5,-2.06269 0.70268,-3.67205 2.10804,-4.8281 1.40536,-1.156 3.3434,-1.73401 5.81412,-1.73403 1.42802,2e-5 2.72005,0.15869 3.87608,0.47601 1.17868,0.29469 2.04003,0.62336 2.58406,0.98602 l -1.05402,2.68605 c -0.47603,-0.29465 -1.19004,-0.57799 -2.14205,-0.85002 -0.92936,-0.29465 -2.01739,-0.44198 -3.26407,-0.442 -0.63469,2e-5 -1.22403,0.068 -1.76803,0.204 -0.54402,0.13602 -1.02003,0.34003 -1.42803,0.61201 -0.40802,0.27203 -0.73669,0.62337 -0.98603,1.05402 -0.22667,0.40803 -0.34001,0.89537 -0.34,1.46203 -1e-5,0.6347 0.12466,1.16738 0.37401,1.59804 0.24933,0.43069 0.60067,0.81603 1.05402,1.15602 0.45333,0.31736 0.97468,0.61203 1.56403,0.88402 0.612,0.27202 1.28068,0.54403 2.00604,0.81602 1.02001,0.40802 1.94936,0.81603 2.78806,1.22402 0.86134,0.40802 1.59802,0.89537 2.21005,1.46203 0.63466,0.56669 1.122,1.24671 1.46203,2.04005 0.33999,0.77069 0.50999,1.71137 0.51001,2.82206 -2e-5,2.06271 -0.75937,3.64941 -2.27805,4.7601 -1.49604,1.11069 -3.61542,1.66603 -6.35813,1.66603 -0.92936,0 -1.79071,-0.068 -2.58406,-0.204 -0.77068,-0.11334 -1.46203,-0.24934 -2.07404,-0.40801 -0.61202,-0.18134 -1.14469,-0.36268 -1.59803,-0.54401 -0.43068,-0.20401 -0.77069,-0.37401 -1.02003,-0.51001 l 0.98603,-2.72006 c 0.52134,0.29468 1.31469,0.62335 2.38005,0.98602 1.06535,0.36268 2.36871,0.54401 3.91008,0.54401"
         id="path4026" />
      <path
         d="m 190.66619,224.51106 c 0,-2.01736 0.29467,-3.79673 0.88402,-5.33811 0.61201,-1.54135 1.42803,-2.82204 2.44805,-3.84208 1.04268,-1.04267 2.24404,-1.82468 3.60408,-2.34605 1.38268,-0.52132 2.84471,-0.78199 4.38609,-0.78201 1.51868,2e-5 2.94671,0.26069 4.28409,0.78201 1.36001,0.52137 2.55003,1.30338 3.57007,2.34605 1.02,1.02004 1.82469,2.30073 2.41406,3.84208 0.61198,1.54138 0.91799,3.32075 0.91801,5.33811 -2e-5,2.01739 -0.30603,3.79676 -0.91801,5.33812 -0.58937,1.54137 -1.39406,2.83339 -2.41406,3.87608 -1.02004,1.02002 -2.21006,1.7907 -3.57007,2.31205 -1.33738,0.52134 -2.76541,0.78201 -4.28409,0.78201 -1.54138,0 -3.00341,-0.26067 -4.38609,-0.78201 -1.36004,-0.52135 -2.5614,-1.29203 -3.60408,-2.31205 -1.02002,-1.04269 -1.83604,-2.33471 -2.44805,-3.87608 -0.58935,-1.54136 -0.88402,-3.32073 -0.88402,-5.33812 m 3.46808,0 c -10e-6,1.42804 0.18133,2.7314 0.54401,3.91009 0.36266,1.15603 0.87267,2.14205 1.53003,2.95806 0.68,0.81602 1.49602,1.4507 2.44805,1.90404 0.97468,0.43068 2.0627,0.64601 3.26407,0.64601 1.20134,0 2.27803,-0.21533 3.23007,-0.64601 0.952,-0.45334 1.75668,-1.08802 2.41405,-1.90404 0.67999,-0.81601 1.20134,-1.80203 1.56403,-2.95806 0.36265,-1.17869 0.54399,-2.48205 0.54401,-3.91009 -2e-5,-1.42801 -0.18136,-2.72004 -0.54401,-3.87608 -0.36269,-1.17867 -0.88404,-2.17603 -1.56403,-2.99206 -0.65737,-0.816 -1.46205,-1.43934 -2.41405,-1.87004 -0.95204,-0.45332 -2.02873,-0.67999 -3.23007,-0.68001 -1.20137,2e-5 -2.28939,0.22669 -3.26407,0.68001 -0.95203,0.4307 -1.76805,1.05404 -2.44805,1.87004 -0.65736,0.81603 -1.16737,1.81339 -1.53003,2.99206 -0.36268,1.15604 -0.54402,2.44807 -0.54401,3.87608"
         id="path4028" />
      <path
         d="m 218.04845,236.30931 0,-23.56249 14.2123,0 0,2.82206 -10.91423,0 0,7.10614 9.69021,0 0,2.78806 -9.69021,0 0,10.84623 -3.29807,0"
         id="path4030" />
      <path
         d="m 252.52889,212.74682 0,2.85606 -7.41215,0 0,20.70643 -3.29807,0 0,-20.70643 -7.41216,0 0,-2.85606 18.12238,0"
         id="path4032" />
      <path
         d="m 269.44259,220.32898 c -0.95203,3.03741 -1.91538,5.84813 -2.89006,8.43217 -0.97469,2.58406 -1.94938,5.10011 -2.92406,7.54816 l -3.29807,0 c -1.20136,-3.46807 -2.26671,-7.12881 -3.19606,-10.98223 -0.90669,-3.8534 -1.75671,-8.04682 -2.55006,-12.58026 l 3.46808,0 c 0.31733,1.76806 0.646,3.53609 0.98602,5.30411 0.34,1.76805 0.69134,3.49075 1.05402,5.16811 0.36267,1.65471 0.72534,3.24141 1.08802,4.7601 0.36267,1.5187 0.73668,2.92406 1.12203,4.21608 0.90667,-2.38004 1.87002,-4.98676 2.89006,-7.82016 1.02,-2.85604 1.97202,-5.80277 2.85606,-8.84018 l 2.85606,0 c 0.884,3.03741 1.84735,5.98414 2.89006,8.84018 1.04266,2.8334 2.01735,5.44012 2.92406,7.82016 0.36265,-1.26935 0.72532,-2.66338 1.08802,-4.18208 0.36265,-1.51869 0.71399,-3.10539 1.05402,-4.7601 0.36265,-1.67736 0.71399,-3.40006 1.05402,-5.16811 0.33999,-1.79069 0.66866,-3.57005 0.98603,-5.33811 l 3.36607,0 c -0.81605,4.53344 -1.68874,8.72686 -2.61806,12.58026 -0.90671,3.85342 -1.9494,7.51416 -3.12806,10.98223 l -3.29807,0 c -0.99738,-2.44805 -1.97206,-4.9641 -2.92407,-7.54816 -0.95203,-2.58404 -1.90405,-5.39476 -2.85606,-8.43217"
         id="path4034" />
      <path
         d="m 303.29669,236.30931 c -0.38536,-1.02002 -0.74803,-2.01737 -1.08802,-2.99206 -0.34002,-0.99735 -0.69136,-2.00604 -1.05402,-3.02607 l -10.67622,0 -2.14205,6.01813 -3.43407,0 c 0.90668,-2.49338 1.7567,-4.79409 2.55005,-6.90214 0.79335,-2.13071 1.56403,-4.14808 2.31205,-6.05213 0.77068,-1.90403 1.53003,-3.7174 2.27805,-5.44012 0.74801,-1.74534 1.53002,-3.46805 2.34605,-5.1681 l 3.02606,0 c 0.816,1.70005 1.59802,3.42276 2.34605,5.1681 0.748,1.72272 1.49601,3.53609 2.24405,5.44012 0.77066,1.90405 1.55268,3.92142 2.34605,6.05213 0.79333,2.10805 1.64334,4.40876 2.55005,6.90214 l -3.60408,0 m -3.09406,-8.73818 c -0.72536,-1.97203 -1.45071,-3.87607 -2.17605,-5.71212 -0.70269,-1.85869 -1.43937,-3.63806 -2.21004,-5.33811 -0.79336,1.70005 -1.55271,3.47942 -2.27805,5.33811 -0.70269,1.83605 -1.40537,3.74009 -2.10804,5.71212 l 8.77218,0"
         id="path4036" />
      <path
         d="m 321.59281,226.4491 c 0.36265,0.45336 0.816,1.05403 1.36002,1.80204 0.56667,0.72536 1.14468,1.54137 1.73404,2.44805 0.58933,0.88403 1.16734,1.81338 1.73404,2.78806 0.58932,0.97469 1.088,1.91538 1.49603,2.82206 l -3.60408,0 c -0.45336,-0.86135 -0.95203,-1.73403 -1.49603,-2.61805 -0.52136,-0.88402 -1.05404,-1.7227 -1.59803,-2.51606 -0.54403,-0.81601 -1.08804,-1.57536 -1.63204,-2.27804 -0.52135,-0.70268 -0.99736,-1.31469 -1.42803,-1.83604 -0.29468,0.0227 -0.60069,0.034 -0.91802,0.034 -0.29468,1e-5 -0.60069,1e-5 -0.91802,0 l -2.95806,0 0,9.21419 -3.29807,0 0,-23.22249 c 0.92935,-0.22664 1.96071,-0.37398 3.09407,-0.44201 1.15602,-0.0906 2.21004,-0.13597 3.16206,-0.136 3.30939,3e-5 5.82544,0.62337 7.54816,1.87004 1.74535,1.24671 2.61804,3.10542 2.61806,5.57612 -2e-5,1.56405 -0.41936,2.90141 -1.25803,4.01208 -0.81603,1.1107 -2.02872,1.93805 -3.63807,2.48205 m -4.99811,-11.05023 c -1.40537,2e-5 -2.48206,0.034 -3.23007,0.102 l 0,8.87419 2.34605,0 c 1.13335,1e-5 2.15337,-0.0567 3.06007,-0.17 0.90667,-0.11333 1.66602,-0.32866 2.27804,-0.64602 0.63467,-0.31732 1.12201,-0.75933 1.46203,-1.32602 0.34,-0.58934 0.51,-1.36002 0.51001,-2.31205 -10e-6,-0.884 -0.17001,-1.62069 -0.51001,-2.21005 -0.34002,-0.58933 -0.80469,-1.054 -1.39402,-1.39403 -0.5667,-0.33999 -1.24671,-0.57799 -2.04005,-0.71401 -0.77069,-0.13599 -1.59804,-0.20399 -2.48205,-0.20401"
         id="path4038" />
      <path
         d="m 331.44982,236.30931 0,-23.56249 14.3823,0 0,2.82206 -11.08423,0 0,7.00414 9.8602,0 0,2.75406 -9.8602,0 0,8.16017 11.93425,0 0,2.82206 -15.23232,0"
         id="path4040" />
      <path
         d="m 378.02335,224.51106 c -2e-5,2.04006 -0.31736,3.81942 -0.95202,5.33812 -0.6347,1.49603 -1.53005,2.74272 -2.68606,3.74007 -1.15604,0.97469 -2.53873,1.71137 -4.14808,2.21005 -1.60938,0.47601 -3.37742,0.71401 -5.30411,0.71402 -0.95203,-1e-5 -2.00605,-0.0453 -3.16207,-0.13601 -1.13336,-0.068 -2.16472,-0.21534 -3.09406,-0.44201 l 0,-22.84848 c 0.92934,-0.22664 1.9607,-0.37398 3.09406,-0.44201 1.15602,-0.0906 2.21004,-0.13597 3.16207,-0.136 1.92669,3e-5 3.69473,0.24936 5.30411,0.74802 1.60935,0.47603 2.99204,1.21271 4.14808,2.21004 1.15601,0.97471 2.05136,2.2214 2.68606,3.74008 0.63466,1.49605 0.952,3.26408 0.95202,5.30411 m -12.81827,9.11219 c 3.12806,10e-6 5.46277,-0.79334 7.00415,-2.38005 1.54135,-1.60936 2.31203,-3.8534 2.31205,-6.73214 -2e-5,-2.87871 -0.7707,-5.11142 -2.31205,-6.69814 -1.54138,-1.60934 -3.87609,-2.41403 -7.00415,-2.41405 -0.92936,2e-5 -1.65471,0.0114 -2.17604,0.034 -0.49869,0.0227 -0.85003,0.0454 -1.05403,0.068 l 0,18.02038 c 0.204,0.0227 0.55534,0.0453 1.05403,0.068 0.52133,0.0227 1.24668,0.034 2.17604,0.034"
         id="path4042" />
      <path
         d="m 382.91575,236.30931 0,-23.56249 14.3823,0 0,2.82206 -11.08424,0 0,7.00414 9.86021,0 0,2.75406 -9.86021,0 0,8.16017 11.93425,0 0,2.82206 -15.23231,0"
         id="path4044" />
      <path
         d="m 421.34717,212.74682 c -0.86138,2.4934 -1.68873,4.80545 -2.48206,6.93614 -0.7707,2.10806 -1.53005,4.1141 -2.27804,6.01813 -0.74804,1.90405 -1.49605,3.72875 -2.24405,5.47411 -0.72536,1.72271 -1.47338,3.43408 -2.24405,5.13411 l -3.09406,0 c -0.77069,-1.70003 -1.53004,-3.4114 -2.27805,-5.13411 -0.72536,-1.74536 -1.47337,-3.57006 -2.24405,-5.47411 -0.74802,-1.90403 -1.5187,-3.91007 -2.31205,-6.01813 -0.79335,-2.13069 -1.60936,-4.44274 -2.44805,-6.93614 l 3.63808,0 c 1.22402,3.58143 2.42538,7.02683 3.60407,10.33621 1.17869,3.30942 2.39138,6.41481 3.63808,9.3162 1.24668,-2.87872 2.45937,-5.97278 3.63808,-9.2822 1.17867,-3.33205 2.3687,-6.78878 3.57007,-10.37021 l 3.53608,0"
         id="path4046" />
      <path
         d="m 424.61974,236.30931 0,-23.56249 14.3823,0 0,2.82206 -11.08423,0 0,7.00414 9.86021,0 0,2.75406 -9.86021,0 0,8.16017 11.93425,0 0,2.82206 -15.23232,0"
         id="path4048" />
      <path
         d="m 458.18907,233.45325 0,2.85606 -14.17829,0 0,-23.56249 3.29807,0 0,20.70643 10.88022,0"
         id="path4050" />
      <path
         d="m 459.19322,224.51106 c 0,-2.01736 0.29467,-3.79673 0.88402,-5.33811 0.61201,-1.54135 1.42802,-2.82204 2.44805,-3.84208 1.04268,-1.04267 2.24404,-1.82468 3.60407,-2.34605 1.38269,-0.52132 2.84472,-0.78199 4.3861,-0.78201 1.51868,2e-5 2.94671,0.26069 4.28408,0.78201 1.36001,0.52137 2.55004,1.30338 3.57008,2.34605 1.02,1.02004 1.82468,2.30073 2.41405,3.84208 0.61199,1.54138 0.918,3.32075 0.91802,5.33811 -2e-5,2.01739 -0.30603,3.79676 -0.91802,5.33812 -0.58937,1.54137 -1.39405,2.83339 -2.41405,3.87608 -1.02004,1.02002 -2.21007,1.7907 -3.57008,2.31205 -1.33737,0.52134 -2.7654,0.78201 -4.28408,0.78201 -1.54138,0 -3.00341,-0.26067 -4.3861,-0.78201 -1.36003,-0.52135 -2.56139,-1.29203 -3.60407,-2.31205 -1.02003,-1.04269 -1.83604,-2.33471 -2.44805,-3.87608 -0.58935,-1.54136 -0.88402,-3.32073 -0.88402,-5.33812 m 3.46807,0 c -1e-5,1.42804 0.18133,2.7314 0.54401,3.91009 0.36267,1.15603 0.87268,2.14205 1.53003,2.95806 0.68001,0.81602 1.49603,1.4507 2.44806,1.90404 0.97467,0.43068 2.06269,0.64601 3.26406,0.64601 1.20135,0 2.27804,-0.21533 3.23007,-0.64601 0.952,-0.45334 1.75669,-1.08802 2.41405,-1.90404 0.68,-0.81601 1.20134,-1.80203 1.56403,-2.95806 0.36266,-1.17869 0.544,-2.48205 0.54402,-3.91009 -2e-5,-1.42801 -0.18136,-2.72004 -0.54402,-3.87608 -0.36269,-1.17867 -0.88403,-2.17603 -1.56403,-2.99206 -0.65736,-0.816 -1.46205,-1.43934 -2.41405,-1.87004 -0.95203,-0.45332 -2.02872,-0.67999 -3.23007,-0.68001 -1.20137,2e-5 -2.28939,0.22669 -3.26406,0.68001 -0.95203,0.4307 -1.76805,1.05404 -2.44806,1.87004 -0.65735,0.81603 -1.16736,1.81339 -1.53003,2.99206 -0.36268,1.15604 -0.54402,2.44807 -0.54401,3.87608"
         id="path4052" />
      <path
         d="m 492.83161,212.50881 c 3.30939,3e-5 5.8481,0.6347 7.61616,1.90404 1.79068,1.24671 2.68603,3.11675 2.68605,5.61012 -2e-5,1.36004 -0.24936,2.5274 -0.74801,3.50207 -0.47603,0.95203 -1.17871,1.73405 -2.10805,2.34605 -0.9067,0.58936 -2.01739,1.02003 -3.33207,1.29203 -1.3147,0.27201 -2.7994,0.40802 -4.45409,0.40801 l -2.61806,0 0,8.73818 -3.29807,0 0,-23.22249 c 0.92935,-0.22664 1.96071,-0.37398 3.09407,-0.44201 1.15602,-0.0906 2.21004,-0.13597 3.16207,-0.136 m 0.272,2.89006 c -1.40537,2e-5 -2.48206,0.034 -3.23007,0.102 l 0,9.2482 2.48206,0 c 1.13334,1e-5 2.15336,-0.068 3.06006,-0.20401 0.90667,-0.15865 1.66602,-0.40799 2.27805,-0.74801 0.63466,-0.36266 1.12201,-0.85001 1.46203,-1.46203 0.33999,-0.612 0.50999,-1.39402 0.51001,-2.34605 -2e-5,-0.90667 -0.18135,-1.65468 -0.54401,-2.24405 -0.34002,-0.58933 -0.81603,-1.054 -1.42803,-1.39403 -0.58936,-0.36265 -1.28071,-0.61199 -2.07405,-0.74801 -0.79336,-0.13599 -1.63204,-0.20399 -2.51605,-0.20401"
         id="path4054" />
      <path
         d="m 517.80247,233.04524 c -0.22669,-0.54401 -0.53269,-1.23535 -0.91802,-2.07404 -0.36269,-0.83868 -0.75936,-1.74536 -1.19003,-2.72006 -0.43068,-0.97468 -0.89536,-1.97203 -1.39403,-2.99206 -0.47602,-1.04268 -0.92936,-2.01736 -1.36002,-2.92406 -0.43069,-0.92934 -0.8387,-1.75669 -1.22403,-2.48205 -0.36268,-0.72534 -0.65735,-1.28068 -0.88402,-1.66604 -0.24934,2.67474 -0.45335,5.57613 -0.61201,8.70418 -0.15868,3.10541 -0.29468,6.2448 -0.40801,9.4182 l -3.23007,0 c 0.0907,-2.04004 0.19267,-4.09141 0.30601,-6.15413 0.11333,-2.08537 0.238,-4.12541 0.37401,-6.12013 0.15866,-2.01736 0.31733,-3.97806 0.47601,-5.88212 0.18133,-1.90402 0.374,-3.70606 0.57801,-5.40611 l 2.89006,0 c 0.612,0.99737 1.26935,2.17606 1.97204,3.53607 0.70267,1.36005 1.40535,2.78808 2.10804,4.28409 0.70267,1.47338 1.38269,2.95808 2.04005,4.45409 0.65733,1.47338 1.25801,2.82207 1.80203,4.04609 0.544,-1.22402 1.14468,-2.57271 1.80204,-4.04609 0.65733,-1.49601 1.33735,-2.98071 2.04005,-4.45409 0.70266,-1.49601 1.40534,-2.92404 2.10804,-4.28409 0.70266,-1.36001 1.36001,-2.5387 1.97204,-3.53607 l 2.89006,0 c 0.77066,7.59351 1.34867,15.44766 1.73404,23.56249 l -3.23007,0 c -0.11336,-3.1734 -0.24936,-6.31279 -0.40801,-9.4182 -0.15869,-3.12805 -0.3627,-6.02944 -0.61201,-8.70418 -0.2267,0.38536 -0.5327,0.9407 -0.91802,1.66604 -0.3627,0.72536 -0.75937,1.55271 -1.19003,2.48205 -0.43069,0.9067 -0.89537,1.88138 -1.39402,2.92406 -0.47603,1.02003 -0.92938,2.01738 -1.36003,2.99206 -0.4307,0.9747 -0.8387,1.88138 -1.22403,2.72006 -0.36269,0.83869 -0.65736,1.53003 -0.88402,2.07404 l -2.65205,0"
         id="path4056" />
      <path
         d="m 536.84607,236.30931 0,-23.56249 14.38231,0 0,2.82206 -11.08424,0 0,7.00414 9.86021,0 0,2.75406 -9.86021,0 0,8.16017 11.93425,0 0,2.82206 -15.23232,0"
         id="path4058" />
      <path
         d="m 572.38743,236.30931 c -0.49869,-0.83868 -1.0767,-1.77937 -1.73403,-2.82206 -0.6347,-1.04268 -1.32605,-2.11937 -2.07405,-3.23007 -0.74803,-1.13335 -1.53004,-2.27804 -2.34604,-3.43407 -0.79337,-1.15601 -1.58672,-2.2667 -2.38005,-3.33207 -0.79336,-1.08801 -1.56405,-2.10803 -2.31205,-3.06006 -0.74803,-0.95201 -1.43937,-1.79069 -2.07405,-2.51606 l 0,18.39439 -3.23006,0 0,-23.56249 2.61805,0 c 1.06535,1.13338 2.19871,2.4594 3.40007,3.97808 1.22402,1.49605 2.42537,3.04875 3.60408,4.6581 1.20134,1.58671 2.32336,3.15074 3.36607,4.6921 1.06534,1.54137 1.96069,2.91273 2.68605,4.11408 l 0,-17.44236 3.23007,0 0,23.56249 -2.75406,0"
         id="path4060" />
      <path
         d="m 596.74948,212.74682 0,2.85606 -7.41216,0 0,20.70643 -3.29807,0 0,-20.70643 -7.41215,0 0,-2.85606 18.12238,0"
         id="path4062" />
    </g>
  </g>
</svg>
