<?xml version="1.0" encoding="utf-8"?>
<!-- Generator: Adobe Illustrator 19.0.0, SVG Export Plug-In . SVG Version: 6.00 Build 0)  -->
<svg version="1.1" id="Layer_1" xmlns="http://www.w3.org/2000/svg" xmlns:xlink="http://www.w3.org/1999/xlink" x="0px" y="0px"
	 viewBox="126 241 200 52.3" style="enable-background:new 126 241 200 52.3;" xml:space="preserve">
<g>
	<g>
		<g id="bag_1_">
			<path style="fill:#FFFFFF;" d="M143.6,282l-17.6-2.5v-14.8h17.6V282z M143.6,263.4H126v-14l17.6-2.5
				C143.6,247,143.6,263.4,143.6,263.4z M167.5,285.3l-22.6-3.2v-17.4h22.6V285.3z M167.5,263.4h-22.6v-16.6l22.6-3.2V263.4z"/>
		</g>
	</g>
	<text transform="matrix(0.9939 0 0 1 180.6386 256.5816)" style="fill:#FFFFFF; font-family:'SegoePro'; font-size:18.3289px;">Jetzt unter </text>
	<text transform="matrix(0.9939 0 0 1 180.6386 285.022)" style="fill:#FFFFFF; font-family:'SegoePro'; font-size:29.3578px;">W</text>
	<text transform="matrix(0.9939 0 0 1 207.3407 285.022)" style="fill:#FFFFFF; font-family:'SegoePro'; font-size:29.3578px;">i</text>
	<text transform="matrix(0.9939 0 0 1 213.3603 285.022)" style="fill:#FFFFFF; font-family:'SegoePro'; font-size:29.3578px;">n</text>
	<text transform="matrix(0.9939 0 0 1 229.8798 285.022)" style="fill:#FFFFFF; font-family:'SegoePro'; font-size:29.3578px;">d</text>
	<text transform="matrix(0.9939 0 0 1 246.0546 285.022)" style="fill:#FFFFFF; font-family:'SegoePro'; font-size:29.3578px;">o</text>
	<text transform="matrix(0.9939 0 0 1 261.9648 285.022)" style="fill:#FFFFFF; font-family:'SegoePro'; font-size:29.3578px;">ws</text>
	
		<text transform="matrix(0.9939 0 0 1 294.4472 285.022)" style="fill:#FFFFFF; font-family:'SegoePro'; font-size:29.3578px; letter-spacing:-2;"> </text>
	<text transform="matrix(0.9939 0 0 1 298.9013 285.022)" style="fill:#FFFFFF; font-family:'SegoePro'; font-size:29.3578px;">10</text>
</g>
</svg>
