<?xml version="1.0" encoding="utf-8"?>
<!-- Generator: Adobe Illustrator 21.0.0, SVG Export Plug-In . SVG Version: 6.00 Build 0)  -->
<svg version="1.1" id="Ebene_1" xmlns="http://www.w3.org/2000/svg" xmlns:xlink="http://www.w3.org/1999/xlink" x="0px" y="0px"
	 viewBox="0 0 1280 720" style="enable-background:new 0 0 1280 720;" xml:space="preserve">
<style type="text/css">
	.st0{fill:#2482FF;}
	.st1{fill:#FFFFFF;}
	.st2{font-family:'Lato';}
	.st3{font-size:120px;}
</style>
<rect class="st0" width="1280" height="720"/>
<g>
	<path class="st1" d="M949.6,385.3c0.7-1.3,0.2-3-1.2-3.6c-1.4-0.7-3-0.2-3.6,1.2c-0.3,0.6-24.5,32.8,5.5,85.5
		c28.6,50.2,0.2,112.1-0.1,112.8c-0.6,1.4,0,3,1.3,3.6c0.4,0.2,0.8,0.3,1.1,0.3c1,0,2-0.6,2.4-1.6c1.2-2.6,29.9-65.1-0.1-117.7
		C926.4,415.6,949.3,385.9,949.6,385.3z"/>
	<path class="st1" d="M1052.5,382.9c-0.7-1.3-2.3-1.9-3.6-1.2c-1.3,0.7-1.9,2.3-1.2,3.6c0.3,0.6,34,30.3,5.5,80.4
		c-30,52.6-1.3,115.1-0.1,117.7c0.5,1,1.4,1.6,2.4,1.6c0.4,0,0.8-0.1,1.1-0.3c1.4-0.6,1.9-2.2,1.3-3.6c-0.3-0.6-28.7-62.6-0.1-112.8
		C1087.9,415.7,1052.8,383.5,1052.5,382.9z"/>
	<path class="st1" d="M952.5,350.6l-12.8,11.7c-1.5,1.3-2.3,3.3-2.3,5.3c0,2,0.9,3.8,2.4,4.9l17.3,12.4c1.5,1,3.3,1.2,5.1,0.5
		c1.8-0.7,3.2-2.3,3.8-4.2l5.8-16.9c-3.7-1.5-7.2-3.4-10.5-5.8C958,356.2,955.1,353.5,952.5,350.6z"/>
	<path class="st1" d="M1057.2,367.5c0-2-0.9-4-2.3-5.3l-12.8-11.7c-2.6,2.9-5.5,5.6-8.8,7.9c-3.3,2.4-6.9,4.3-10.5,5.8l5.8,16.9
		c0.7,1.9,2.1,3.5,3.8,4.2s3.6,0.5,5.1-0.5l17.3-12.4C1056.4,371.4,1057.2,369.5,1057.2,367.5z"/>
	<path class="st1" d="M1099.2,149c-30.6-21.9-67.2-16.9-96.5,6.8c4.2,3.4,8.3,7.3,12.1,11.4c7.9-6.4,16.5-11.1,25.4-13.8
		c17.6-5.2,35.6-2.2,50.7,8.6c1.3,0.9,1.6,2.9,0.6,4.4c-1,1.5-2.8,2-4.1,1c-13.9-10-29.8-12.7-46.1-7.9c-7.9,2.3-15.4,6.5-22.5,12
		c3.9,4.6,7.6,9.5,11,14.8c30.6,47.7,46.6,134.5,5.4,164c-0.9,0.7-1.9,1.3-2.9,1.9c31-12.7,62.1-40.4,79.8-68
		C1142.8,236.5,1140.4,178.4,1099.2,149z"/>
	<path class="st1" d="M1029.9,350.4c41.2-29.5,25.1-116.3-5.4-164c-3.4-5.3-7.1-10.2-11-14.8c-1.3-1.5-2.6-3-4-4.4
		c-3.9-4.2-7.9-8-12.1-11.4c-29.3-23.7-65.9-28.7-96.5-6.8c-41.2,29.5-43.5,87.5-13,135.2c17.7,27.6,48.8,55.3,79.8,68
		c10.1,4.1,20.1,6.6,29.7,7.1c10.7,0.5,20.8-1.6,29.7-7.1C1028,351.6,1028.9,351,1029.9,350.4z M1009.9,202.1
		c-0.1,0.1-0.1,0.1-0.2,0.1c-1.4,0.8-3.2,0.2-4-1.4c-2.5-4.6-5.4-8.8-8.4-12.8c-1.2-1.6-2.5-3.1-3.8-4.6c-3.8-4.5-8-8.4-12.3-11.9
		c-7-5.5-14.6-9.7-22.5-12c-16.2-4.8-32.2-2.1-46.1,7.9c-1.3,0.9-3.1,0.5-4.1-1c-1-1.5-0.7-3.5,0.6-4.4c15-10.8,33-13.8,50.7-8.6
		c8.9,2.6,17.5,7.4,25.4,13.8c4.3,3.4,8.3,7.4,12.1,11.7c1.3,1.5,2.5,3,3.8,4.5c3.5,4.5,6.7,9.3,9.5,14.4
		C1011.4,199.4,1011.1,201.2,1009.9,202.1z"/>
</g>
<text transform="matrix(1 0 0 1 114.9279 389.512)" class="st1 st2 st3">200 Schulen</text>
</svg>
