<?xml version="1.0" encoding="utf-8"?>
<!-- Generator: Adobe Illustrator 21.0.2, SVG Export Plug-In . SVG Version: 6.00 Build 0)  -->
<svg version="1.1" id="Ebene_1" xmlns="http://www.w3.org/2000/svg" xmlns:xlink="http://www.w3.org/1999/xlink" x="0px" y="0px"
	 viewBox="0 0 1280 720" style="enable-background:new 0 0 1280 720;" xml:space="preserve">
<style type="text/css">
	.st0{fill:#2482FF;}
	.st1{fill:#FFFFFF;}
	.st2{enable-background:new    ;}
</style>
<rect y="0" class="st0" width="1280" height="720"/>
<g>
	<path class="st1" d="M949.6,385.3c0.7-1.3,0.2-3-1.2-3.6c-1.4-0.7-3-0.2-3.6,1.2c-0.3,0.6-24.5,32.8,5.5,85.5
		c28.6,50.2,0.2,112.1-0.1,112.8c-0.6,1.4,0,3,1.3,3.6c0.4,0.2,0.8,0.3,1.1,0.3c1,0,2-0.6,2.4-1.6c1.2-2.6,29.9-65.1-0.1-117.7
		C926.4,415.6,949.3,385.9,949.6,385.3z"/>
	<path class="st1" d="M1052.5,382.9c-0.7-1.3-2.3-1.9-3.6-1.2c-1.3,0.7-1.9,2.3-1.2,3.6c0.3,0.6,34,30.3,5.5,80.4
		c-30,52.6-1.3,115.1-0.1,117.7c0.5,1,1.4,1.6,2.4,1.6c0.4,0,0.8-0.1,1.1-0.3c1.4-0.6,1.9-2.2,1.3-3.6c-0.3-0.6-28.7-62.6-0.1-112.8
		C1087.9,415.7,1052.8,383.5,1052.5,382.9z"/>
	<path class="st1" d="M952.5,350.6l-12.8,11.7c-1.5,1.3-2.3,3.3-2.3,5.3s0.9,3.8,2.4,4.9l17.3,12.4c1.5,1,3.3,1.2,5.1,0.5
		s3.2-2.3,3.8-4.2l5.8-16.9c-3.7-1.5-7.2-3.4-10.5-5.8C958,356.2,955.1,353.5,952.5,350.6z"/>
	<path class="st1" d="M1057.2,367.5c0-2-0.9-4-2.3-5.3l-12.8-11.7c-2.6,2.9-5.5,5.6-8.8,7.9c-3.3,2.4-6.9,4.3-10.5,5.8l5.8,16.9
		c0.7,1.9,2.1,3.5,3.8,4.2s3.6,0.5,5.1-0.5l17.3-12.4C1056.4,371.4,1057.2,369.5,1057.2,367.5z"/>
	<path class="st1" d="M1099.2,149c-30.6-21.9-67.2-16.9-96.5,6.8c4.2,3.4,8.3,7.3,12.1,11.4c7.9-6.4,16.5-11.1,25.4-13.8
		c17.6-5.2,35.6-2.2,50.7,8.6c1.3,0.9,1.6,2.9,0.6,4.4s-2.8,2-4.1,1c-13.9-10-29.8-12.7-46.1-7.9c-7.9,2.3-15.4,6.5-22.5,12
		c3.9,4.6,7.6,9.5,11,14.8c30.6,47.7,46.6,134.5,5.4,164c-0.9,0.7-1.9,1.3-2.9,1.9c31-12.7,62.1-40.4,79.8-68
		C1142.8,236.5,1140.4,178.4,1099.2,149z"/>
	<path class="st1" d="M1029.9,350.4c41.2-29.5,25.1-116.3-5.4-164c-3.4-5.3-7.1-10.2-11-14.8c-1.3-1.5-2.6-3-4-4.4
		c-3.9-4.2-7.9-8-12.1-11.4c-29.3-23.7-65.9-28.7-96.5-6.8c-41.2,29.5-43.5,87.5-13,135.2c17.7,27.6,48.8,55.3,79.8,68
		c10.1,4.1,20.1,6.6,29.7,7.1c10.7,0.5,20.8-1.6,29.7-7.1C1028,351.6,1028.9,351,1029.9,350.4z M1009.9,202.1
		c-0.1,0.1-0.1,0.1-0.2,0.1c-1.4,0.8-3.2,0.2-4-1.4c-2.5-4.6-5.4-8.8-8.4-12.8c-1.2-1.6-2.5-3.1-3.8-4.6c-3.8-4.5-8-8.4-12.3-11.9
		c-7-5.5-14.6-9.7-22.5-12c-16.2-4.8-32.2-2.1-46.1,7.9c-1.3,0.9-3.1,0.5-4.1-1s-0.7-3.5,0.6-4.4c15-10.8,33-13.8,50.7-8.6
		c8.9,2.6,17.5,7.4,25.4,13.8c4.3,3.4,8.3,7.4,12.1,11.7c1.3,1.5,2.5,3,3.8,4.5c3.5,4.5,6.7,9.3,9.5,14.4
		C1011.4,199.4,1011.1,201.2,1009.9,202.1z"/>
</g>
<g class="st2">
	<path class="st1" d="M136.6,336c4.5-1,8.6-1.4,12.4-1.4c4.5,0,8.4,0.7,11.9,2c3.4,1.3,6.3,3.1,8.6,5.5c2.3,2.3,4,5.1,5.2,8.2
		c1.2,3.2,1.8,6.6,1.8,10.3c0,4.6-0.8,8.7-2.4,12.4c-1.6,3.7-3.8,6.8-6.5,9.5c-2.8,2.6-6.1,4.6-9.8,6c-3.8,1.4-7.8,2.1-12.2,2.1
		c-2.5,0-4.9-0.3-7.3-0.8c-2.3-0.5-4.5-1.2-6.5-2c-2-0.8-3.9-1.8-5.6-2.9c-1.7-1.1-3.2-2.2-4.6-3.4l3.3-4.6c0.7-1,1.7-1.6,2.8-1.6
		c0.8,0,1.7,0.3,2.7,0.9c1,0.6,2.2,1.3,3.7,2.1c1.4,0.8,3.1,1.5,5.1,2.1c1.9,0.6,4.2,0.9,6.9,0.9c3,0,5.7-0.5,8.1-1.4
		c2.4-1,4.5-2.3,6.2-4.1c1.7-1.8,3-3.9,4-6.4c0.9-2.5,1.4-5.3,1.4-8.3c0-2.7-0.4-5.1-1.2-7.3c-0.8-2.2-2-4-3.5-5.5
		c-1.6-1.5-3.6-2.7-5.9-3.5c-2.4-0.8-5.1-1.3-8.3-1.3c-2.2,0-4.4,0.2-6.8,0.5s-4.7,0.9-7.2,1.7l-6.7-2l6.9-40.2h40.7v4.7
		c0,1.5-0.5,2.8-1.4,3.8c-0.9,1-2.5,1.5-4.8,1.5h-27L136.6,336z"/>
	<path class="st1" d="M250.5,346.6c0,7.5-0.8,14-2.4,19.5c-1.6,5.5-3.8,10-6.6,13.6c-2.8,3.6-6.1,6.3-9.9,8
		c-3.8,1.8-7.9,2.6-12.3,2.6c-4.4,0-8.5-0.9-12.3-2.6c-3.8-1.8-7.1-4.4-9.9-8c-2.8-3.6-5-8.1-6.6-13.6c-1.6-5.5-2.4-12-2.4-19.5
		c0-7.5,0.8-14,2.4-19.6c1.6-5.5,3.8-10.1,6.6-13.7c2.8-3.6,6.1-6.3,9.9-8.1c3.8-1.8,7.9-2.6,12.3-2.6c4.4,0,8.4,0.9,12.3,2.6
		c3.8,1.8,7.1,4.5,9.9,8.1c2.8,3.6,5,8.2,6.6,13.7C249.7,332.5,250.5,339,250.5,346.6z M239.4,346.6c0-6.6-0.6-12.1-1.6-16.5
		c-1.1-4.5-2.6-8-4.4-10.8c-1.9-2.7-4-4.7-6.5-5.9c-2.4-1.2-5-1.8-7.6-1.8c-2.6,0-5.2,0.6-7.6,1.8c-2.4,1.2-4.6,3.1-6.4,5.9
		c-1.8,2.7-3.3,6.3-4.4,10.8c-1.1,4.5-1.6,10-1.6,16.5c0,6.6,0.5,12.1,1.6,16.5c1.1,4.4,2.6,8,4.4,10.7c1.8,2.7,4,4.7,6.4,5.8
		c2.4,1.2,5,1.8,7.6,1.8c2.6,0,5.2-0.6,7.6-1.8c2.4-1.2,4.6-3.1,6.5-5.8c1.9-2.7,3.3-6.3,4.4-10.7
		C238.9,358.6,239.4,353.1,239.4,346.6z"/>
	<path class="st1" d="M320.1,346.6c0,7.5-0.8,14-2.4,19.5c-1.6,5.5-3.8,10-6.6,13.6c-2.8,3.6-6.1,6.3-9.9,8
		c-3.8,1.8-7.9,2.6-12.3,2.6c-4.4,0-8.5-0.9-12.3-2.6c-3.8-1.8-7.1-4.4-9.9-8c-2.8-3.6-5-8.1-6.6-13.6c-1.6-5.5-2.4-12-2.4-19.5
		c0-7.5,0.8-14,2.4-19.6c1.6-5.5,3.8-10.1,6.6-13.7c2.8-3.6,6.1-6.3,9.9-8.1c3.8-1.8,7.9-2.6,12.3-2.6c4.4,0,8.4,0.9,12.3,2.6
		c3.8,1.8,7.1,4.5,9.9,8.1c2.8,3.6,5,8.2,6.6,13.7C319.3,332.5,320.1,339,320.1,346.6z M309,346.6c0-6.6-0.6-12.1-1.6-16.5
		c-1.1-4.5-2.6-8-4.4-10.8c-1.9-2.7-4-4.7-6.5-5.9c-2.4-1.2-5-1.8-7.6-1.8c-2.6,0-5.2,0.6-7.6,1.8c-2.4,1.2-4.6,3.1-6.4,5.9
		c-1.8,2.7-3.3,6.3-4.4,10.8c-1.1,4.5-1.6,10-1.6,16.5c0,6.6,0.5,12.1,1.6,16.5c1.1,4.4,2.6,8,4.4,10.7c1.8,2.7,4,4.7,6.4,5.8
		c2.4,1.2,5,1.8,7.6,1.8c2.6,0,5.2-0.6,7.6-1.8c2.4-1.2,4.6-3.1,6.5-5.8c1.9-2.7,3.3-6.3,4.4-10.7C308.5,358.6,309,353.1,309,346.6z
		"/>
	<path class="st1" d="M409.4,317c-0.4,0.6-0.8,1-1.2,1.3c-0.4,0.3-0.9,0.5-1.5,0.5c-0.7,0-1.5-0.3-2.4-1c-0.9-0.7-2.1-1.4-3.4-2.3
		c-1.4-0.8-3-1.6-5-2.3c-1.9-0.7-4.3-1-7.1-1c-2.6,0-4.9,0.4-6.9,1c-2,0.7-3.6,1.7-5,2.9c-1.3,1.2-2.4,2.6-3,4.2
		c-0.7,1.6-1,3.4-1,5.3c0,2.4,0.6,4.4,1.8,6c1.2,1.6,2.7,2.9,4.7,4c1.9,1.1,4.1,2.1,6.6,2.9c2.5,0.8,5,1.7,7.6,2.5s5.1,1.9,7.6,3
		c2.5,1.1,4.7,2.5,6.6,4.2c1.9,1.7,3.5,3.7,4.7,6.2c1.2,2.4,1.8,5.4,1.8,9c0,3.8-0.6,7.3-1.9,10.6c-1.3,3.3-3.1,6.2-5.6,8.6
		c-2.5,2.4-5.5,4.4-9.1,5.8c-3.6,1.4-7.6,2.1-12.2,2.1c-5.6,0-10.7-1-15.2-3c-4.6-2-8.5-4.7-11.7-8.2l3.4-5.5
		c0.3-0.4,0.7-0.8,1.2-1.1c0.5-0.3,1-0.5,1.5-0.5c0.5,0,1.1,0.2,1.8,0.6s1.4,1,2.3,1.6c0.8,0.6,1.8,1.3,2.9,2.1s2.3,1.5,3.7,2.1
		c1.4,0.6,2.9,1.2,4.7,1.6c1.8,0.4,3.7,0.6,5.9,0.6c2.8,0,5.2-0.4,7.4-1.1c2.2-0.8,4-1.8,5.5-3.2s2.6-3,3.5-5
		c0.8-1.9,1.2-4.1,1.2-6.4c0-2.6-0.6-4.7-1.8-6.4c-1.2-1.7-2.7-3-4.6-4.2c-1.9-1.1-4.1-2.1-6.6-2.8c-2.5-0.8-5-1.6-7.6-2.4
		c-2.6-0.8-5.1-1.8-7.6-2.8c-2.5-1.1-4.7-2.5-6.6-4.2c-1.9-1.7-3.5-3.9-4.6-6.5c-1.2-2.6-1.8-5.8-1.8-9.6c0-3,0.6-6,1.8-8.8
		c1.2-2.8,2.9-5.4,5.2-7.6c2.3-2.2,5-4,8.3-5.3c3.3-1.3,7.1-2,11.4-2c4.8,0,9.2,0.8,13.1,2.3c3.9,1.5,7.4,3.7,10.4,6.6L409.4,317z"
		/>
	<path class="st1" d="M469.9,339.5c-0.3,0.4-0.6,0.8-1,1c-0.3,0.2-0.8,0.4-1.3,0.4c-0.6,0-1.3-0.3-2-0.8s-1.6-1.1-2.7-1.7
		c-1.1-0.6-2.4-1.1-3.9-1.7c-1.5-0.5-3.4-0.8-5.7-0.8c-3,0-5.6,0.5-7.9,1.6c-2.3,1.1-4.2,2.6-5.7,4.6c-1.5,2-2.7,4.4-3.5,7.3
		c-0.8,2.8-1.2,6-1.2,9.5c0,3.7,0.4,7,1.3,9.8c0.8,2.9,2,5.3,3.6,7.2c1.5,1.9,3.4,3.4,5.6,4.4c2.2,1,4.6,1.5,7.4,1.5
		c2.6,0,4.7-0.3,6.4-0.9c1.7-0.6,3.1-1.3,4.2-2.1c1.1-0.8,2-1.4,2.8-2.1c0.7-0.6,1.5-0.9,2.2-0.9c0.9,0,1.6,0.3,2,1l3,3.9
		c-1.3,1.6-2.8,3-4.5,4.2c-1.7,1.2-3.5,2.1-5.4,2.9c-1.9,0.8-4,1.4-6.1,1.7c-2.1,0.4-4.3,0.5-6.5,0.5c-3.8,0-7.3-0.7-10.6-2.1
		c-3.3-1.4-6.1-3.4-8.5-6.1c-2.4-2.7-4.3-5.9-5.6-9.8c-1.4-3.9-2-8.3-2-13.3c0-4.5,0.6-8.7,1.9-12.5c1.3-3.8,3.1-7.1,5.5-9.9
		c2.4-2.8,5.4-5,8.9-6.5c3.5-1.6,7.6-2.3,12.2-2.3c4.3,0,8,0.7,11.3,2.1c3.3,1.4,6.1,3.3,8.7,5.8L469.9,339.5z"/>
	<path class="st1" d="M495.7,336.8c2.6-2.8,5.5-5,8.6-6.6c3.2-1.6,6.8-2.5,10.9-2.5c3.3,0,6.2,0.6,8.8,1.7c2.5,1.1,4.7,2.7,6.4,4.7
		c1.7,2,3,4.5,3.9,7.3c0.9,2.8,1.3,6,1.3,9.4v38.7h-10.7v-38.7c0-4.6-1-8.2-3.1-10.7c-2.1-2.5-5.3-3.8-9.6-3.8
		c-3.2,0-6.1,0.8-8.9,2.3c-2.7,1.5-5.3,3.6-7.6,6.2v44.8h-10.7v-88.4h10.7V336.8z"/>
	<path class="st1" d="M601.9,328.7v60.8h-6.4c-1.5,0-2.5-0.7-2.9-2.2l-0.8-6.5c-2.6,2.9-5.6,5.3-8.9,7c-3.3,1.8-7,2.7-11.3,2.7
		c-3.3,0-6.3-0.5-8.8-1.7c-2.5-1.1-4.7-2.6-6.4-4.6s-3-4.4-3.9-7.3c-0.9-2.8-1.3-6-1.3-9.4v-38.8H562v38.8c0,4.6,1,8.2,3.2,10.7
		c2.1,2.5,5.3,3.8,9.6,3.8c3.2,0,6.1-0.8,8.8-2.3c2.7-1.5,5.3-3.6,7.6-6.2v-44.8H601.9z"/>
	<path class="st1" d="M629.8,301.1v88.4h-10.7v-88.4H629.8z"/>
	<path class="st1" d="M696.4,381c-1.3,1.6-2.9,3-4.7,4.2c-1.8,1.2-3.8,2.2-5.9,2.9c-2.1,0.8-4.3,1.3-6.5,1.7
		c-2.2,0.4-4.5,0.6-6.7,0.6c-4.2,0-8.1-0.7-11.6-2.1s-6.6-3.5-9.2-6.2c-2.6-2.7-4.6-6.1-6-10.2c-1.4-4-2.2-8.7-2.2-13.9
		c0-4.2,0.6-8.2,1.9-11.9c1.3-3.7,3.2-6.9,5.6-9.6c2.4-2.7,5.4-4.8,8.9-6.4c3.5-1.5,7.5-2.3,11.9-2.3c3.6,0,7,0.6,10.1,1.8
		c3.1,1.2,5.8,3,8,5.3c2.3,2.3,4,5.1,5.3,8.5c1.3,3.4,1.9,7.2,1.9,11.6c0,1.7-0.2,2.8-0.5,3.4c-0.4,0.6-1,0.8-2,0.8h-40.6
		c0.1,3.8,0.6,7.2,1.6,10c0.9,2.8,2.3,5.2,3.9,7.1c1.7,1.9,3.7,3.3,6,4.3c2.3,0.9,4.9,1.4,7.8,1.4c2.7,0,5-0.3,6.9-0.9
		c1.9-0.6,3.6-1.3,5-2c1.4-0.7,2.6-1.4,3.5-2s1.8-0.9,2.4-0.9c0.9,0,1.6,0.3,2,1L696.4,381z M687.8,352.5c0-2.5-0.4-4.8-1-6.8
		c-0.7-2.1-1.7-3.8-3.1-5.3c-1.3-1.5-3-2.7-4.9-3.5c-1.9-0.8-4.1-1.2-6.5-1.2c-5.1,0-9.2,1.5-12.1,4.5c-3,3-4.8,7.1-5.5,12.4H687.8z
		"/>
	<path class="st1" d="M720.6,337.6c1.3-1.5,2.7-2.8,4.2-4c1.5-1.2,3-2.2,4.7-3.1c1.7-0.9,3.4-1.5,5.3-2c1.9-0.5,3.9-0.7,6-0.7
		c3.3,0,6.3,0.6,8.8,1.7c2.5,1.1,4.7,2.7,6.4,4.7c1.7,2,3,4.5,3.9,7.3c0.9,2.8,1.3,6,1.3,9.4v38.7h-10.7v-38.7
		c0-4.6-1.1-8.2-3.2-10.7c-2.1-2.5-5.3-3.8-9.6-3.8c-3.2,0-6.1,0.8-8.8,2.3c-2.7,1.5-5.3,3.6-7.6,6.2v44.8h-10.7v-60.8h6.4
		c1.5,0,2.5,0.7,2.8,2.2L720.6,337.6z"/>
</g>
</svg>
