<?xml version="1.0" encoding="utf-8"?>
<!-- Generator: Adobe Illustrator 21.0.2, SVG Export Plug-In . SVG Version: 6.00 Build 0)  -->
<svg version="1.1" id="Ebene_1" xmlns="http://www.w3.org/2000/svg" xmlns:xlink="http://www.w3.org/1999/xlink" x="0px" y="0px"
	 viewBox="0 0 400 300" style="enable-background:new 0 0 400 300;" xml:space="preserve">
<style type="text/css">
	.st0{fill:none;stroke:#64B5F6;stroke-width:2;stroke-miterlimit:10;}
	.st1{fill:#689F38;}
	.st2{fill:#1B5E20;}
	.st3{fill:none;stroke:#0D2F10;stroke-width:2;stroke-miterlimit:10;}
	.st4{fill:none;stroke:#0D2F10;stroke-width:2.4;stroke-miterlimit:10;}
	.st5{fill:#B71C1C;}
	.st6{fill:#D32F2F;}
	.st7{fill:#FFCC80;}
	.st8{fill:#FFB74D;}
	.st9{fill:#424242;}
	.st10{fill:#616161;}
	.st11{fill:#546E7A;}
	.st12{fill:#90A4AE;}
	.st13{fill:#FFFFFF;}
	.st14{fill:none;stroke:#D32F2F;stroke-width:1.5;stroke-linecap:square;}
	.st15{fill:#90A4AE;stroke:#FFFFFF;stroke-width:0.5;stroke-miterlimit:10;}
	.st16{fill:#757575;}
	.st17{clip-path:url(#SVGID_2_);fill:#FFCC80;}
	.st18{clip-path:url(#SVGID_4_);fill:#FFCC80;}
	.st19{fill:none;stroke:#FFFFFF;stroke-width:0.5;stroke-miterlimit:10;}
	.st20{fill:none;stroke:#FFFFFF;stroke-width:0.75;stroke-miterlimit:10;}
	.st21{clip-path:url(#SVGID_6_);fill:#FFCC80;}
	.st22{clip-path:url(#SVGID_8_);fill:#FFCC80;}
	.st23{fill:none;stroke:#0D2F10;stroke-width:1.8;stroke-miterlimit:10;}
	.st24{fill:#2E7D32;}
	.st25{fill:none;stroke:#124116;stroke-width:2;stroke-miterlimit:10;}
	.st26{fill:none;stroke:#124116;stroke-width:2.4;stroke-miterlimit:10;}
	.st27{display:none;opacity:0.5;}
</style>
<g id="Ebene_5">
	<path id="XMLID_4_" class="st0" d="M24.9,51.9c7.5-5.3,13,2.2,13,2.2s7.7-5.3,13,2.2"/>
	<path id="XMLID_79_" class="st0" d="M170.2,27.5c4-8.3,12.5-4.4,12.5-4.4s4.1-8.4,12.5-4.4"/>
	<path id="XMLID_80_" class="st0" d="M117.4,108.5c9-1.7,10.9,7.4,10.9,7.4s9.2-1.7,10.9,7.4"/>
	<path id="XMLID_123_" class="st0" d="M326.3,76.7c8.3-3.9,12.4,4.4,12.4,4.4s8.5-3.9,12.4,4.4"/>
	<path class="st1" d="M1.7,211.4c0,44.1,89.1,79.8,199,79.8s199-35.7,199-79.8c0-7.4-2.5-14.6-7.2-21.4H8.9
		C4.2,196.8,1.7,204,1.7,211.4z"/>
</g>
<g id="Ebene_4">
	<g id="XMLID_191_">
		<polygon id="XMLID_195_" class="st2" points="3.3,198 23,138.4 42.7,198 		"/>
		<line id="XMLID_194_" class="st3" x1="22" y1="160" x2="22" y2="207"/>
		<polyline id="XMLID_193_" class="st4" points="17.4,173.8 23,168.2 27.7,173.8 		"/>
		<polyline id="XMLID_192_" class="st4" points="14.4,189.5 23.3,180.7 30.7,189.5 		"/>
	</g>
	<g id="XMLID_113_">
		<polygon id="XMLID_117_" class="st2" points="360.3,197 380,137.4 399.7,197 		"/>
		<line id="XMLID_116_" class="st3" x1="379" y1="159" x2="379" y2="206"/>
		<polyline id="XMLID_115_" class="st4" points="374.4,172.8 380,167.2 384.7,172.8 		"/>
		<polyline id="XMLID_114_" class="st4" points="371.4,188.5 380.3,179.7 387.7,188.5 		"/>
	</g>
</g>
<g id="Ebene_1_1_">
	<g>
		<g>
			<rect x="81" y="150" class="st5" width="119" height="78"/>
			<rect id="Seite_15_" x="31" y="143" class="st6" width="58" height="85"/>
			<rect id="Mitte_15_" x="149" y="139" class="st6" width="51" height="89"/>
			<path class="st7" d="M153,139c0,0,1.3,0,3-0.1c0,0.8,0,1.8,0,2.6c-2,0-3,0-3,0C153,140.5,153,140,153,139z"/>
			<rect x="89" y="148.2" class="st8" width="60" height="3.7"/>
			<g>
				<path class="st9" d="M25.6,149.3c-0.4,0.4-0.2,0.7,0.3,0.7h122.6c0.6,0,1.2-0.4,1.4-0.9l5.2-10.5c0.2-0.5,0.9-0.6,1.4-0.6H199
					c0.6,0,1-0.9,1-1.5V106c0-0.6-0.4-1-1-1H66c-0.6,0-1.3,0.3-1.7,0.7L25.6,149.3z"/>
			</g>
			<path class="st7" d="M189.2,135.3c2.2-2.3,4.7-5,10.8-5v25c-6.5,0-12,3.9-15,9.1v-23.3c-0.7,0.2-20.7,0.3-29,0.4
				c0-0.8,0-1.8,0-2.6C165.2,138.5,187.6,137,189.2,135.3z"/>
			<path class="st10" d="M127.9,138.2l44.5-45.5c0.4-0.4,0.9-0.6,1.4-0.6H200v38.3c-10.6,0-10.9,8.8-16.5,8.8h-55.2
				C127.8,139,127.6,138.5,127.9,138.2z"/>
			<path class="st6" d="M200,99.5V123v4h-25v-4C175,110.4,183.7,99.5,200,99.5z"/>
			<rect x="88.5" y="214.8" class="st8" width="60" height="3.3"/>
			<path class="st11" d="M200,98.1c-8.4,0-13.4-4.6-13.4-7.1h1.4v-9h12V98.1z"/>
			<rect x="199" y="31" class="st11" width="1" height="51"/>
			<path class="st6" d="M200,138.5c-4.6,0-8.3,2.6-8.3,5.8s3.7,5.8,8.3,5.8s8.3-2.6,8.3-5.8S204.6,138.5,200,138.5 M200,136.9
				c5.6,0,10,3.3,10,7.5s-4.4,7.5-10,7.5s-10-3.3-10-7.5S194.4,136.9,200,136.9L200,136.9z"/>
			<g>
				<g>
					<path class="st12" d="M195.8,139.6c-2.4,1-3.9,2.8-3.9,4.8s1.5,3.7,3.9,4.8V139.6z"/>
					<path class="st13" d="M195.6,140c-2.1,1-3.4,2.6-3.4,4.4s1.3,3.4,3.4,4.4V140 M196.1,139.3v10.2c-2.6-1-4.4-2.9-4.4-5.1
						C191.7,142.2,193.5,140.2,196.1,139.3L196.1,139.3z"/>
				</g>
				<g>
					<path class="st12" d="M200,138.8c-0.6,0-1.5,0.1-2.2,0.2v10.7c0.6,0.1,1.5,0.2,2.2,0.2V138.8z"/>
					<path class="st13" d="M200,138.5c0,0.5,0,0,0,0.5c-0.1,0-0.3,0-0.5,0l0,0c-0.5,0-1,0.1-1.4,0.2v10.3c0.5,0.1,0.9,0.1,1.4,0.2
						l0,0h0.5c0,0.4,0,0.1,0,0.5c-0.8,0-1.6-0.1-2.4-0.3v-11.1C198.4,138.6,199.2,138.5,200,138.5z"/>
				</g>
				<path class="st12" d="M199.5,200.3c-0.5,0-1,0.1-1.4,0.2v-43.7c0.5-0.1,1-0.1,1.4-0.1l0,0h0.5v43.6L199.5,200.3L199.5,200.3z"/>
				<path class="st13" d="M197.6,156.4c0.8-0.1,1.6-0.2,2.4-0.2v0.3v0.3h-0.5l0,0c-0.5,0-0.9,0.1-1.4,0.1v43.7
					c0.4-0.1,0.9-0.1,1.4-0.2l0,0h0.5v0.2v0.2c-0.9,0-1.7,0.1-2.4,0.3V201V156.4z"/>
				<g>
					<path class="st12" d="M189.8,207.8V161c-1.3,1.3-2.5,2.8-3.5,4.5v42.3H189.8z M191.8,207.3c0.6-0.5,1-1.2,1.4-2.1
						c0.6-1.2,1.3-2.6,2.7-3.5v-44.6c-1.4,0.5-2.8,1.2-4.1,2.1L191.8,207.3L191.8,207.3z"/>
					<path class="st13" d="M195.6,157.5c-1.2,0.4-2.4,1.1-3.6,1.9v47.3c0.3-0.4,0.6-0.9,0.9-1.6c0.6-1.2,1.3-2.6,2.7-3.5
						L195.6,157.5 M189.5,161.5c-1.1,1.2-2.1,2.5-3,4v42h3V161.5 M196.1,156.8v45l0,0c-3.1,2-2.7,6.2-5.6,6.2c-3.8,0-4.4,0-4.4,0
						v-42.6c1.1-1.9,2.4-3.6,4-5v47.2h1.5v-48.4C192.9,158.1,194.4,157.3,196.1,156.8L196.1,156.8z"/>
				</g>
				<polygon class="st6" points="190,207.5 190,160.3 190,159.5 190,144.4 191.5,144.4 191.5,158.2 191.5,159.1 191.5,207.5 				"/>
				<polygon class="st6" points="196.1,156.8 196.1,155.8 196.1,149.5 196.1,139.3 196.1,138.3 197.6,138.3 197.6,138.8 
					197.6,149.9 197.6,155.4 197.6,156.4 197.6,201.1 197.6,201.1 197.6,203.7 196.1,203.7 196.1,201.8 196.1,201.8 				"/>
			</g>
			<path class="st14" d="M200.1,155.2c-6.3,0-11.7,4.2-14.5,9.7"/>
			<path class="st7" d="M148.5,216.4H194c0,0,0-6.1,0-8.4s1.6-5.3,6-5.3v-4.6c-8,0-6.5,8.4-9.3,8.4H190h-4v1.5h4v5.1h-41.5V216.4z"
				/>
			<g>
				<rect x="186.3" y="208.3" class="st12" width="3.5" height="4.6"/>
				<path class="st13" d="M186.5,208.5v4.1h3v-4.1H186.5 M186,208h4v5.1h-4V208L186,208z"/>
			</g>
			<path class="st2" d="M200,202.7c-4.4,0-6,3-6,5.3s0,13.1,0,13.1h6V202.7z"/>
			<path class="st15" d="M155.1,146.1c0,1.7,1.4,3.1,3.1,3.1h3.9c1.7,0,3.1-1.4,3.1-3.1l0,0c0-1.7-1.4-3.1-3.1-3.1h-3.9
				C156.5,143,155.1,144.4,155.1,146.1L155.1,146.1z"/>
			<path class="st15" d="M170.5,146.1c0,1.7,1.4,3.1,3.1,3.1h3.9c1.7,0,3.1-1.4,3.1-3.1l0,0c0-1.7-1.4-3.1-3.1-3.1h-3.9
				C171.9,143,170.5,144.4,170.5,146.1L170.5,146.1z"/>
			<rect x="31" y="149.6" class="st7" width="58" height="3.7"/>
			<g>
				<path class="st10" d="M64.3,105.7c0.4-0.4,0.9-0.3,1.2,0.1l27,44.4c0.3,0.5,0.1,0.9-0.5,0.9H22.8c-0.5,0-0.7-0.3-0.3-0.7
					L64.3,105.7z"/>
			</g>
			<rect x="31" y="213.2" class="st7" width="57.5" height="3.1"/>
			<path class="st12" d="M194.8,212.5h4.6v-8.8c-1.2,0-4.6,0.7-4.6,4.1S194.8,212.5,194.8,212.5z"/>
			<polygon class="st10" points="194,218.3 186.6,228.9 200,228.9 200,221.1 194,221.1 			"/>
			<polygon class="st16" points="200,222.8 193,222.8 191.8,224.5 200,224.5 			"/>
			<polygon class="st16" points="200,226.1 191,226.1 189.8,227.8 200,227.8 			"/>
			<path class="st15" d="M199,85.9h1c0,2.1,0,4.1,0,6.1h-1c-1.7,0-3.1-1.4-3.1-3.1S197.3,85.9,199,85.9z"/>
			<g>
				<g>
					<defs>
						<path id="SVGID_1_" d="M200,99.5V123v4h-25v-4C175,110.4,183.7,99.5,200,99.5z"/>
					</defs>
					<clipPath id="SVGID_2_">
						<use xlink:href="#SVGID_1_"  style="overflow:visible;"/>
					</clipPath>
					<rect x="171.5" y="103" class="st17" width="11.3" height="20.1"/>
				</g>
			</g>
			<g>
				<g>
					<defs>
						<path id="SVGID_3_" d="M200,99.5V123v4h-25v-4C175,110.4,183.7,99.5,200,99.5z"/>
					</defs>
					<clipPath id="SVGID_4_">
						<use xlink:href="#SVGID_3_"  style="overflow:visible;"/>
					</clipPath>
					<path class="st18" d="M181.6,107.7c0.1-0.1,7-7.2,18.4-7.2v-2c-12.2,0-19.5,7.5-19.8,7.9L181.6,107.7z"/>
				</g>
			</g>
			<g>
				<rect x="191.4" y="116.3" class="st12" width="4.9" height="6.1"/>
				<path class="st13" d="M191.7,116.6v5.5h4.3v-5.5H191.7 M191.1,116h5.5v6.7h-5.5V116L191.1,116z"/>
			</g>
			<g>
				<g>
					<g>
						<path class="st12" d="M155.2,177.6h9.7c0.8,0,1.4-0.6,1.4-1.4v-18c0-0.8-0.6-1.4-1.4-1.4h-9.7c-0.8,0-1.4,0.6-1.4,1.4v18
							C153.8,177,154.5,177.6,155.2,177.6z"/>
						<path class="st19" d="M155.2,177.6h9.7c0.8,0,1.4-0.6,1.4-1.4v-18c0-0.8-0.6-1.4-1.4-1.4h-9.7c-0.8,0-1.4,0.6-1.4,1.4v18
							C153.8,177,154.5,177.6,155.2,177.6z"/>
					</g>
					<line class="st20" x1="160.1" y1="156.8" x2="160.1" y2="177.6"/>
					<line class="st20" x1="166.3" y1="165.1" x2="153.8" y2="165.1"/>
				</g>
				<g>
					<g>
						<path class="st12" d="M170.7,177.6h9.7c0.8,0,1.4-0.6,1.4-1.4v-18c0-0.8-0.6-1.4-1.4-1.4h-9.7c-0.8,0-1.4,0.6-1.4,1.4v18
							C169.3,177,169.9,177.6,170.7,177.6z"/>
						<path class="st19" d="M170.7,177.6h9.7c0.8,0,1.4-0.6,1.4-1.4v-18c0-0.8-0.6-1.4-1.4-1.4h-9.7c-0.8,0-1.4,0.6-1.4,1.4v18
							C169.3,177,169.9,177.6,170.7,177.6z"/>
					</g>
					<line class="st20" x1="175.5" y1="156.8" x2="175.5" y2="177.6"/>
					<line class="st20" x1="181.8" y1="165.1" x2="169.3" y2="165.1"/>
				</g>
				<g>
					<g>
						<path class="st12" d="M155.2,203.7h9.7c0.8,0,1.4-0.6,1.4-1.4v-18c0-0.8-0.6-1.4-1.4-1.4h-9.7c-0.8,0-1.4,0.6-1.4,1.4v18
							C153.8,203,154.5,203.7,155.2,203.7z"/>
						<path class="st19" d="M155.2,203.7h9.7c0.8,0,1.4-0.6,1.4-1.4v-18c0-0.8-0.6-1.4-1.4-1.4h-9.7c-0.8,0-1.4,0.6-1.4,1.4v18
							C153.8,203,154.5,203.7,155.2,203.7z"/>
					</g>
					<line class="st20" x1="160.1" y1="182.8" x2="160.1" y2="203.7"/>
					<line class="st20" x1="166.3" y1="191.2" x2="153.8" y2="191.2"/>
				</g>
				<g>
					<g>
						<path class="st12" d="M170.7,203.7h9.7c0.8,0,1.4-0.6,1.4-1.4v-18c0-0.8-0.6-1.4-1.4-1.4h-9.7c-0.8,0-1.4,0.6-1.4,1.4v18
							C169.3,203,169.9,203.7,170.7,203.7z"/>
						<path class="st19" d="M170.7,203.7h9.7c0.8,0,1.4-0.6,1.4-1.4v-18c0-0.8-0.6-1.4-1.4-1.4h-9.7c-0.8,0-1.4,0.6-1.4,1.4v18
							C169.3,203,169.9,203.7,170.7,203.7z"/>
					</g>
					<line class="st20" x1="175.5" y1="182.8" x2="175.5" y2="203.7"/>
					<line class="st20" x1="181.8" y1="191.2" x2="169.3" y2="191.2"/>
				</g>
			</g>
			<g>
				<g>
					<g>
						<path class="st12" d="M54.2,177.8h9.7c0.8,0,1.4-0.6,1.4-1.4v-18c0-0.8-0.6-1.4-1.4-1.4h-9.7c-0.8,0-1.4,0.6-1.4,1.4v18
							C52.8,177.2,53.4,177.8,54.2,177.8z"/>
						<path class="st19" d="M54.2,177.8h9.7c0.8,0,1.4-0.6,1.4-1.4v-18c0-0.8-0.6-1.4-1.4-1.4h-9.7c-0.8,0-1.4,0.6-1.4,1.4v18
							C52.8,177.2,53.4,177.8,54.2,177.8z"/>
					</g>
					<line class="st20" x1="59" y1="157" x2="59" y2="177.8"/>
					<line class="st20" x1="65.3" y1="165.3" x2="52.8" y2="165.3"/>
				</g>
				<g>
					<g>
						<path class="st12" d="M69.9,177.8h9.7c0.8,0,1.4-0.6,1.4-1.4v-18c0-0.8-0.6-1.4-1.4-1.4h-9.7c-0.8,0-1.4,0.6-1.4,1.4v18
							C68.5,177.2,69.1,177.8,69.9,177.8z"/>
						<path class="st19" d="M69.9,177.8h9.7c0.8,0,1.4-0.6,1.4-1.4v-18c0-0.8-0.6-1.4-1.4-1.4h-9.7c-0.8,0-1.4,0.6-1.4,1.4v18
							C68.5,177.2,69.1,177.8,69.9,177.8z"/>
					</g>
					<line class="st20" x1="74.8" y1="157" x2="74.8" y2="177.8"/>
					<line class="st20" x1="81" y1="165.3" x2="68.5" y2="165.3"/>
				</g>
				<g>
					<g>
						<path class="st12" d="M54.2,203.9h9.7c0.8,0,1.4-0.6,1.4-1.4v-18c0-0.8-0.6-1.4-1.4-1.4h-9.7c-0.8,0-1.4,0.6-1.4,1.4v18
							C52.8,203.2,53.4,203.9,54.2,203.9z"/>
						<path class="st19" d="M54.2,203.9h9.7c0.8,0,1.4-0.6,1.4-1.4v-18c0-0.8-0.6-1.4-1.4-1.4h-9.7c-0.8,0-1.4,0.6-1.4,1.4v18
							C52.8,203.2,53.4,203.9,54.2,203.9z"/>
					</g>
					<line class="st20" x1="59" y1="183" x2="59" y2="203.9"/>
					<line class="st20" x1="65.3" y1="191.4" x2="52.8" y2="191.4"/>
				</g>
				<g>
					<g>
						<path class="st12" d="M69.9,203.9h9.7c0.8,0,1.4-0.6,1.4-1.4v-18c0-0.8-0.6-1.4-1.4-1.4h-9.7c-0.8,0-1.4,0.6-1.4,1.4v18
							C68.5,203.2,69.1,203.9,69.9,203.9z"/>
						<path class="st19" d="M69.9,203.9h9.7c0.8,0,1.4-0.6,1.4-1.4v-18c0-0.8-0.6-1.4-1.4-1.4h-9.7c-0.8,0-1.4,0.6-1.4,1.4v18
							C68.5,203.2,69.1,203.9,69.9,203.9z"/>
					</g>
					<line class="st20" x1="74.8" y1="183" x2="74.8" y2="203.9"/>
					<line class="st20" x1="81" y1="191.4" x2="68.5" y2="191.4"/>
				</g>
				<g>
					<g>
						<path class="st12" d="M38.2,177.8h9.7c0.8,0,1.4-0.6,1.4-1.4v-18c0-0.8-0.6-1.4-1.4-1.4h-9.7c-0.8,0-1.4,0.6-1.4,1.4v18
							C36.8,177.2,37.4,177.8,38.2,177.8z"/>
						<path class="st19" d="M38.2,177.8h9.7c0.8,0,1.4-0.6,1.4-1.4v-18c0-0.8-0.6-1.4-1.4-1.4h-9.7c-0.8,0-1.4,0.6-1.4,1.4v18
							C36.8,177.2,37.4,177.8,38.2,177.8z"/>
					</g>
					<line class="st20" x1="43" y1="157" x2="43" y2="177.8"/>
					<line class="st20" x1="49.3" y1="165.3" x2="36.8" y2="165.3"/>
				</g>
				<g>
					<g>
						<path class="st12" d="M38.2,203.9h9.7c0.8,0,1.4-0.6,1.4-1.4v-18c0-0.8-0.6-1.4-1.4-1.4h-9.7c-0.8,0-1.4,0.6-1.4,1.4v18
							C36.8,203.2,37.4,203.9,38.2,203.9z"/>
						<path class="st19" d="M38.2,203.9h9.7c0.8,0,1.4-0.6,1.4-1.4v-18c0-0.8-0.6-1.4-1.4-1.4h-9.7c-0.8,0-1.4,0.6-1.4,1.4v18
							C36.8,203.2,37.4,203.9,38.2,203.9z"/>
					</g>
					<line class="st20" x1="43" y1="183" x2="43" y2="203.9"/>
					<line class="st20" x1="49.3" y1="191.4" x2="36.8" y2="191.4"/>
				</g>
			</g>
			<g>
				<g>
					<g>
						<path class="st12" d="M122.1,178.8h8.4c0.8,0,1.4-0.6,1.4-1.4v-15.9c0-0.8-0.6-1.4-1.4-1.4h-8.4c-0.8,0-1.4,0.6-1.4,1.4v15.9
							C120.7,178.1,121.3,178.8,122.1,178.8z"/>
						<path class="st19" d="M122.1,178.8h8.4c0.8,0,1.4-0.6,1.4-1.4v-15.9c0-0.8-0.6-1.4-1.4-1.4h-8.4c-0.8,0-1.4,0.6-1.4,1.4v15.9
							C120.7,178.1,121.3,178.8,122.1,178.8z"/>
					</g>
					<line class="st20" x1="126.3" y1="160" x2="126.3" y2="178.8"/>
					<line class="st20" x1="131.9" y1="167.5" x2="120.7" y2="167.5"/>
				</g>
				<g>
					<g>
						<path class="st12" d="M136.3,178.8h8.4c0.8,0,1.4-0.6,1.4-1.4v-15.9c0-0.8-0.6-1.4-1.4-1.4h-8.4c-0.8,0-1.4,0.6-1.4,1.4v15.9
							C134.9,178.1,135.5,178.8,136.3,178.8z"/>
						<path class="st19" d="M136.3,178.8h8.4c0.8,0,1.4-0.6,1.4-1.4v-15.9c0-0.8-0.6-1.4-1.4-1.4h-8.4c-0.8,0-1.4,0.6-1.4,1.4v15.9
							C134.9,178.1,135.5,178.8,136.3,178.8z"/>
					</g>
					<line class="st20" x1="140.5" y1="160" x2="140.5" y2="178.8"/>
					<line class="st20" x1="146.1" y1="167.5" x2="134.9" y2="167.5"/>
				</g>
				<g>
					<g>
						<path class="st12" d="M122.1,202.2h8.4c0.8,0,1.4-0.6,1.4-1.4v-15.9c0-0.8-0.6-1.4-1.4-1.4h-8.4c-0.8,0-1.4,0.6-1.4,1.4v15.9
							C120.7,201.6,121.3,202.2,122.1,202.2z"/>
						<path class="st19" d="M122.1,202.2h8.4c0.8,0,1.4-0.6,1.4-1.4v-15.9c0-0.8-0.6-1.4-1.4-1.4h-8.4c-0.8,0-1.4,0.6-1.4,1.4v15.9
							C120.7,201.6,121.3,202.2,122.1,202.2z"/>
					</g>
					<line class="st20" x1="126.3" y1="183.5" x2="126.3" y2="202.2"/>
					<line class="st20" x1="131.9" y1="191" x2="120.7" y2="191"/>
				</g>
				<g>
					<g>
						<path class="st12" d="M136.3,202.2h8.4c0.8,0,1.4-0.6,1.4-1.4v-15.9c0-0.8-0.6-1.4-1.4-1.4h-8.4c-0.8,0-1.4,0.6-1.4,1.4v15.9
							C134.9,201.6,135.5,202.2,136.3,202.2z"/>
						<path class="st19" d="M136.3,202.2h8.4c0.8,0,1.4-0.6,1.4-1.4v-15.9c0-0.8-0.6-1.4-1.4-1.4h-8.4c-0.8,0-1.4,0.6-1.4,1.4v15.9
							C134.9,201.6,135.5,202.2,136.3,202.2z"/>
					</g>
					<line class="st20" x1="140.5" y1="183.5" x2="140.5" y2="202.2"/>
					<line class="st20" x1="146.1" y1="191" x2="134.9" y2="191"/>
				</g>
				<g>
					<g>
						<path class="st12" d="M107.7,178.8h8.4c0.8,0,1.4-0.6,1.4-1.4v-15.9c0-0.8-0.6-1.4-1.4-1.4h-8.4c-0.8,0-1.4,0.6-1.4,1.4v15.9
							C106.3,178.1,106.9,178.8,107.7,178.8z"/>
						<path class="st19" d="M107.7,178.8h8.4c0.8,0,1.4-0.6,1.4-1.4v-15.9c0-0.8-0.6-1.4-1.4-1.4h-8.4c-0.8,0-1.4,0.6-1.4,1.4v15.9
							C106.3,178.1,106.9,178.8,107.7,178.8z"/>
					</g>
					<line class="st20" x1="111.9" y1="160" x2="111.9" y2="178.8"/>
					<line class="st20" x1="117.5" y1="167.5" x2="106.3" y2="167.5"/>
				</g>
				<g>
					<g>
						<path class="st12" d="M107.7,202.2h8.4c0.8,0,1.4-0.6,1.4-1.4v-15.9c0-0.8-0.6-1.4-1.4-1.4h-8.4c-0.8,0-1.4,0.6-1.4,1.4v15.9
							C106.3,201.6,106.9,202.2,107.7,202.2z"/>
						<path class="st19" d="M107.7,202.2h8.4c0.8,0,1.4-0.6,1.4-1.4v-15.9c0-0.8-0.6-1.4-1.4-1.4h-8.4c-0.8,0-1.4,0.6-1.4,1.4v15.9
							C106.3,201.6,106.9,202.2,107.7,202.2z"/>
					</g>
					<line class="st20" x1="111.9" y1="183.5" x2="111.9" y2="202.2"/>
					<line class="st20" x1="117.5" y1="191" x2="106.3" y2="191"/>
				</g>
				<g>
					<g>
						<path class="st12" d="M93.3,178.8h8.4c0.8,0,1.4-0.6,1.4-1.4v-15.9c0-0.8-0.6-1.4-1.4-1.4h-8.4c-0.8,0-1.4,0.6-1.4,1.4v15.9
							C91.9,178.1,92.5,178.8,93.3,178.8z"/>
						<path class="st19" d="M93.3,178.8h8.4c0.8,0,1.4-0.6,1.4-1.4v-15.9c0-0.8-0.6-1.4-1.4-1.4h-8.4c-0.8,0-1.4,0.6-1.4,1.4v15.9
							C91.9,178.1,92.5,178.8,93.3,178.8z"/>
					</g>
					<line class="st20" x1="97.5" y1="160" x2="97.5" y2="178.8"/>
					<line class="st20" x1="103.1" y1="167.5" x2="91.9" y2="167.5"/>
				</g>
				<g>
					<g>
						<path class="st12" d="M93.3,202.2h8.4c0.8,0,1.4-0.6,1.4-1.4v-15.9c0-0.8-0.6-1.4-1.4-1.4h-8.4c-0.8,0-1.4,0.6-1.4,1.4v15.9
							C91.9,201.6,92.5,202.2,93.3,202.2z"/>
						<path class="st19" d="M93.3,202.2h8.4c0.8,0,1.4-0.6,1.4-1.4v-15.9c0-0.8-0.6-1.4-1.4-1.4h-8.4c-0.8,0-1.4,0.6-1.4,1.4v15.9
							C91.9,201.6,92.5,202.2,93.3,202.2z"/>
					</g>
					<line class="st20" x1="97.5" y1="183.5" x2="97.5" y2="202.2"/>
					<line class="st20" x1="103.1" y1="191" x2="91.9" y2="191"/>
				</g>
			</g>
		</g>
	</g>
	<g>
		<g>
			<rect x="200" y="150" class="st5" width="119" height="78"/>
			<rect id="Seite_12_" x="311" y="143" class="st6" width="58" height="85"/>
			<rect id="Mitte_12_" x="200" y="139" class="st6" width="51" height="89"/>
			<path class="st7" d="M247,139c0,0-1.3,0-3-0.1c0,0.8,0,1.8,0,2.6c2,0,3,0,3,0C247,140.5,247,140,247,139z"/>
			<rect x="251" y="148.2" class="st8" width="60" height="3.7"/>
			<g>
				<path class="st9" d="M374.4,149.3c0.4,0.4,0.2,0.7-0.3,0.7H251.5c-0.6,0-1.2-0.4-1.4-0.9l-5.2-10.5c-0.2-0.5-0.9-0.6-1.4-0.6
					H201c-0.6,0-1-0.9-1-1.5V106c0-0.6,0.4-1,1-1h133c0.5,0,1.3,0.3,1.7,0.7L374.4,149.3z"/>
			</g>
			<path class="st7" d="M210.8,135.3c-2.2-2.3-4.7-5-10.8-5v25c6.5,0,12,3.9,15,9.1v-23.3c0.7,0.2,20.7,0.3,29,0.4
				c0-0.8,0-1.8,0-2.6C234.8,138.5,212.4,137,210.8,135.3z"/>
			<path class="st10" d="M272.1,138.2l-44.5-45.5c-0.4-0.4-0.9-0.6-1.4-0.6H200v38.3c10.6,0,10.9,8.8,16.5,8.8h55.2
				C272.2,139,272.4,138.5,272.1,138.2z"/>
			<path class="st6" d="M200,99.5V123v4h25v-4C225,110.4,216.3,99.5,200,99.5z"/>
			<rect x="251.5" y="214.8" class="st8" width="60" height="3.3"/>
			<path class="st11" d="M200,98.1c8.4,0,13.4-4.6,13.4-7.1H212v-9h-12V98.1z"/>
			<rect x="200" y="31" class="st11" width="1" height="51"/>
			<path class="st6" d="M200,138.5c4.6,0,8.3,2.6,8.3,5.8s-3.7,5.8-8.3,5.8s-8.3-2.6-8.3-5.8S195.4,138.5,200,138.5 M200,136.9
				c-5.6,0-10,3.3-10,7.5s4.4,7.5,10,7.5s10-3.3,10-7.5S205.6,136.9,200,136.9L200,136.9z"/>
			<g>
				<g>
					<path class="st12" d="M204.2,139.6c2.4,1,3.9,2.8,3.9,4.8s-1.5,3.7-3.9,4.8V139.6z"/>
					<path class="st13" d="M204.4,140c2.1,1,3.4,2.6,3.4,4.4s-1.3,3.4-3.4,4.4V140 M203.9,139.3v10.2c2.6-1,4.4-2.9,4.4-5.1
						C208.3,142.2,206.5,140.2,203.9,139.3L203.9,139.3z"/>
				</g>
				<g>
					<path class="st12" d="M200,138.8c0.6,0,1.5,0.1,2.2,0.2v10.7c-0.6,0.1-1.5,0.2-2.2,0.2V138.8z"/>
					<path class="st13" d="M200,138.5c0,0.5,0,0,0,0.5c0.1,0,0.3,0,0.5,0l0,0c0.5,0,1,0.1,1.4,0.2v10.3c-0.5,0.1-0.9,0.1-1.4,0.2
						l0,0H200c0,0.4,0,0.1,0,0.5c0.8,0,1.6-0.1,2.4-0.3v-11.1C201.6,138.6,200.8,138.5,200,138.5z"/>
				</g>
				<path class="st12" d="M200.5,200.3c0.5,0,1,0.1,1.4,0.2v-43.7c-0.5-0.1-1-0.1-1.4-0.1l0,0H200v43.6L200.5,200.3L200.5,200.3z"/>
				<path class="st13" d="M202.4,156.4c-0.8-0.1-1.6-0.2-2.4-0.2v0.3v0.3h0.5l0,0c0.5,0,0.9,0.1,1.4,0.1v43.7
					c-0.4-0.1-0.9-0.1-1.4-0.2l0,0H200v0.2v0.2c0.9,0,1.7,0.1,2.4,0.3V201V156.4z"/>
				<g>
					<path class="st12" d="M210.3,207.8V161c1.3,1.3,2.5,2.8,3.5,4.5v42.3H210.3z M208.3,207.3c-0.6-0.5-1-1.2-1.4-2.1
						c-0.6-1.2-1.3-2.6-2.7-3.5v-44.6c1.4,0.5,2.8,1.2,4.1,2.1L208.3,207.3L208.3,207.3z"/>
					<path class="st13" d="M204.4,157.5c1.2,0.4,2.4,1.1,3.6,1.9v47.3c-0.3-0.4-0.6-0.9-0.9-1.6c-0.6-1.2-1.3-2.6-2.7-3.5
						L204.4,157.5 M210.5,161.5c1.1,1.2,2.1,2.5,3,4v42h-3V161.5 M203.9,156.8v45l0,0c3.1,2,2.7,6.2,5.6,6.2c3.8,0,4.4,0,4.4,0
						v-42.6c-1.1-1.9-2.4-3.6-4-5v47.2h-1.5v-48.4C207.1,158.1,205.6,157.3,203.9,156.8L203.9,156.8z"/>
				</g>
				<polygon class="st6" points="210,207.5 210,160.3 210,159.5 210,144.4 208.5,144.4 208.5,158.2 208.5,159.1 208.5,207.5 				"/>
				<polygon class="st6" points="203.9,156.8 203.9,155.8 203.9,149.5 203.9,139.3 203.9,138.3 202.4,138.3 202.4,138.8 
					202.4,149.9 202.4,155.4 202.4,156.4 202.4,201.1 202.4,201.1 202.4,203.7 203.9,203.7 203.9,201.8 203.9,201.8 				"/>
			</g>
			<path class="st14" d="M199.9,155.2c6.3,0,11.7,4.2,14.5,9.7"/>
			<path class="st7" d="M251.5,216.4H206c0,0,0-6.1,0-8.4s-1.6-5.3-6-5.3v-4.6c8,0,6.5,8.4,9.3,8.4h0.8h4v1.5h-4v5.1h41.5v3.3H251.5
				z"/>
			<g>
				<rect x="210.3" y="208.3" class="st12" width="3.5" height="4.6"/>
				<path class="st13" d="M213.5,208.5v4.1h-3v-4.1H213.5 M214,208h-4v5.1h4V208L214,208z"/>
			</g>
			<path class="st2" d="M200,202.7c4.4,0,6,3,6,5.3s0,13.1,0,13.1h-6V202.7z"/>
			<path class="st15" d="M244.9,146.1c0,1.7-1.4,3.1-3.1,3.1H238c-1.7,0-3.1-1.4-3.1-3.1l0,0c0-1.7,1.4-3.1,3.1-3.1h3.9
				C243.5,143,244.9,144.4,244.9,146.1L244.9,146.1z"/>
			<path class="st15" d="M229.5,146.1c0,1.7-1.4,3.1-3.1,3.1h-3.9c-1.7,0-3.1-1.4-3.1-3.1l0,0c0-1.7,1.4-3.1,3.1-3.1h3.9
				C228.1,143,229.5,144.4,229.5,146.1L229.5,146.1z"/>
			<rect x="311" y="149.6" class="st7" width="58" height="3.7"/>
			<g>
				<path class="st10" d="M335.7,105.7c-0.4-0.4-0.9-0.3-1.2,0.1l-27,44.4c-0.3,0.5-0.1,0.9,0.5,0.9h69.2c0.5,0,0.7-0.3,0.3-0.7
					L335.7,105.7z"/>
			</g>
			<rect x="311.5" y="213.2" class="st7" width="57.5" height="3.1"/>
			<path class="st12" d="M205.2,212.5h-4.6v-8.8c1.2,0,4.6,0.7,4.6,4.1S205.2,212.5,205.2,212.5z"/>
			<polygon class="st10" points="206,218.3 213.4,228.9 200,228.9 200,221.1 206,221.1 			"/>
			<polygon class="st16" points="200,222.8 207,222.8 208.2,224.5 200,224.5 			"/>
			<polygon class="st16" points="200,226.1 209,226.1 210.2,227.8 200,227.8 			"/>
			<path class="st15" d="M201,85.9h-1c0,2.1,0,4.1,0,6.1h1c1.7,0,3.1-1.4,3.1-3.1S202.7,85.9,201,85.9z"/>
			<g>
				<g>
					<defs>
						<path id="SVGID_5_" d="M200,99.5V123v4h25v-4C225,110.4,216.3,99.5,200,99.5z"/>
					</defs>
					<clipPath id="SVGID_6_">
						<use xlink:href="#SVGID_5_"  style="overflow:visible;"/>
					</clipPath>
					<rect x="217.2" y="103" class="st21" width="11.3" height="20.1"/>
				</g>
			</g>
			<g>
				<g>
					<defs>
						<path id="SVGID_7_" d="M200,99.5V123v4h25v-4C225,110.4,216.3,99.5,200,99.5z"/>
					</defs>
					<clipPath id="SVGID_8_">
						<use xlink:href="#SVGID_7_"  style="overflow:visible;"/>
					</clipPath>
					<path class="st22" d="M218.4,107.7c-0.1-0.1-7-7.2-18.4-7.2v-2c12.2,0,19.5,7.5,19.8,7.9L218.4,107.7z"/>
				</g>
			</g>
			<g>
				<rect x="203.7" y="116.3" class="st12" width="4.9" height="6.1"/>
				<path class="st13" d="M208.3,116.6v5.5H204v-5.5H208.3 M208.9,116h-5.5v6.7h5.5V116L208.9,116z"/>
			</g>
			<g>
				<g>
					<g>
						<path class="st12" d="M246.2,176.2c0,0.8-0.6,1.4-1.4,1.4h-9.7c-0.8,0-1.4-0.6-1.4-1.4v-18c0-0.8,0.6-1.4,1.4-1.4h9.7
							c0.8,0,1.4,0.6,1.4,1.4V176.2z"/>
						<path class="st19" d="M246.2,176.2c0,0.8-0.6,1.4-1.4,1.4h-9.7c-0.8,0-1.4-0.6-1.4-1.4v-18c0-0.8,0.6-1.4,1.4-1.4h9.7
							c0.8,0,1.4,0.6,1.4,1.4V176.2z"/>
					</g>
					<line class="st20" x1="239.9" y1="156.8" x2="239.9" y2="177.6"/>
					<line class="st20" x1="233.7" y1="165.1" x2="246.2" y2="165.1"/>
				</g>
				<g>
					<g>
						<path class="st12" d="M230.8,176.2c0,0.8-0.6,1.4-1.4,1.4h-9.7c-0.8,0-1.4-0.6-1.4-1.4v-18c0-0.8,0.6-1.4,1.4-1.4h9.7
							c0.8,0,1.4,0.6,1.4,1.4V176.2z"/>
						<path class="st19" d="M230.8,176.2c0,0.8-0.6,1.4-1.4,1.4h-9.7c-0.8,0-1.4-0.6-1.4-1.4v-18c0-0.8,0.6-1.4,1.4-1.4h9.7
							c0.8,0,1.4,0.6,1.4,1.4V176.2z"/>
					</g>
					<line class="st20" x1="224.5" y1="156.8" x2="224.5" y2="177.6"/>
					<line class="st20" x1="218.3" y1="165.1" x2="230.8" y2="165.1"/>
				</g>
				<g>
					<g>
						<path class="st12" d="M246.2,202.3c0,0.8-0.6,1.4-1.4,1.4h-9.7c-0.8,0-1.4-0.6-1.4-1.4v-18c0-0.8,0.6-1.4,1.4-1.4h9.7
							c0.8,0,1.4,0.6,1.4,1.4V202.3z"/>
						<path class="st19" d="M246.2,202.3c0,0.8-0.6,1.4-1.4,1.4h-9.7c-0.8,0-1.4-0.6-1.4-1.4v-18c0-0.8,0.6-1.4,1.4-1.4h9.7
							c0.8,0,1.4,0.6,1.4,1.4V202.3z"/>
					</g>
					<line class="st20" x1="239.9" y1="182.8" x2="239.9" y2="203.7"/>
					<line class="st20" x1="233.7" y1="191.2" x2="246.2" y2="191.2"/>
				</g>
				<g>
					<g>
						<path class="st12" d="M230.8,202.3c0,0.8-0.6,1.4-1.4,1.4h-9.7c-0.8,0-1.4-0.6-1.4-1.4v-18c0-0.8,0.6-1.4,1.4-1.4h9.7
							c0.8,0,1.4,0.6,1.4,1.4V202.3z"/>
						<path class="st19" d="M230.8,202.3c0,0.8-0.6,1.4-1.4,1.4h-9.7c-0.8,0-1.4-0.6-1.4-1.4v-18c0-0.8,0.6-1.4,1.4-1.4h9.7
							c0.8,0,1.4,0.6,1.4,1.4V202.3z"/>
					</g>
					<line class="st20" x1="224.5" y1="182.8" x2="224.5" y2="203.7"/>
					<line class="st20" x1="218.3" y1="191.2" x2="230.8" y2="191.2"/>
				</g>
			</g>
			<g>
				<g>
					<g>
						<path class="st12" d="M347.3,176.4c0,0.8-0.6,1.4-1.4,1.4h-9.7c-0.8,0-1.4-0.6-1.4-1.4v-18c0-0.8,0.6-1.4,1.4-1.4h9.7
							c0.8,0,1.4,0.6,1.4,1.4V176.4z"/>
						<path class="st19" d="M347.3,176.4c0,0.8-0.6,1.4-1.4,1.4h-9.7c-0.8,0-1.4-0.6-1.4-1.4v-18c0-0.8,0.6-1.4,1.4-1.4h9.7
							c0.8,0,1.4,0.6,1.4,1.4V176.4z"/>
					</g>
					<line class="st20" x1="341" y1="157" x2="341" y2="177.8"/>
					<line class="st20" x1="334.8" y1="165.3" x2="347.3" y2="165.3"/>
				</g>
				<g>
					<g>
						<path class="st12" d="M331.5,176.4c0,0.8-0.6,1.4-1.4,1.4h-9.7c-0.8,0-1.4-0.6-1.4-1.4v-18c0-0.8,0.6-1.4,1.4-1.4h9.7
							c0.8,0,1.4,0.6,1.4,1.4V176.4z"/>
						<path class="st19" d="M331.5,176.4c0,0.8-0.6,1.4-1.4,1.4h-9.7c-0.8,0-1.4-0.6-1.4-1.4v-18c0-0.8,0.6-1.4,1.4-1.4h9.7
							c0.8,0,1.4,0.6,1.4,1.4V176.4z"/>
					</g>
					<line class="st20" x1="325.3" y1="157" x2="325.3" y2="177.8"/>
					<line class="st20" x1="319" y1="165.3" x2="331.5" y2="165.3"/>
				</g>
				<g>
					<g>
						<path class="st12" d="M347.3,202.5c0,0.8-0.6,1.4-1.4,1.4h-9.7c-0.8,0-1.4-0.6-1.4-1.4v-18c0-0.8,0.6-1.4,1.4-1.4h9.7
							c0.8,0,1.4,0.6,1.4,1.4V202.5z"/>
						<path class="st19" d="M347.3,202.5c0,0.8-0.6,1.4-1.4,1.4h-9.7c-0.8,0-1.4-0.6-1.4-1.4v-18c0-0.8,0.6-1.4,1.4-1.4h9.7
							c0.8,0,1.4,0.6,1.4,1.4V202.5z"/>
					</g>
					<line class="st20" x1="341" y1="183" x2="341" y2="203.9"/>
					<line class="st20" x1="334.8" y1="191.4" x2="347.3" y2="191.4"/>
				</g>
				<g>
					<g>
						<path class="st12" d="M331.5,202.5c0,0.8-0.6,1.4-1.4,1.4h-9.7c-0.8,0-1.4-0.6-1.4-1.4v-18c0-0.8,0.6-1.4,1.4-1.4h9.7
							c0.8,0,1.4,0.6,1.4,1.4V202.5z"/>
						<path class="st19" d="M331.5,202.5c0,0.8-0.6,1.4-1.4,1.4h-9.7c-0.8,0-1.4-0.6-1.4-1.4v-18c0-0.8,0.6-1.4,1.4-1.4h9.7
							c0.8,0,1.4,0.6,1.4,1.4V202.5z"/>
					</g>
					<line class="st20" x1="325.3" y1="183" x2="325.3" y2="203.9"/>
					<line class="st20" x1="319" y1="191.4" x2="331.5" y2="191.4"/>
				</g>
				<g>
					<g>
						<path class="st12" d="M363.3,176.4c0,0.8-0.6,1.4-1.4,1.4h-9.7c-0.8,0-1.4-0.6-1.4-1.4v-18c0-0.8,0.6-1.4,1.4-1.4h9.7
							c0.8,0,1.4,0.6,1.4,1.4V176.4z"/>
						<path class="st19" d="M363.3,176.4c0,0.8-0.6,1.4-1.4,1.4h-9.7c-0.8,0-1.4-0.6-1.4-1.4v-18c0-0.8,0.6-1.4,1.4-1.4h9.7
							c0.8,0,1.4,0.6,1.4,1.4V176.4z"/>
					</g>
					<line class="st20" x1="357" y1="157" x2="357" y2="177.8"/>
					<line class="st20" x1="350.8" y1="165.3" x2="363.3" y2="165.3"/>
				</g>
				<g>
					<g>
						<path class="st12" d="M363.3,202.5c0,0.8-0.6,1.4-1.4,1.4h-9.7c-0.8,0-1.4-0.6-1.4-1.4v-18c0-0.8,0.6-1.4,1.4-1.4h9.7
							c0.8,0,1.4,0.6,1.4,1.4V202.5z"/>
						<path class="st19" d="M363.3,202.5c0,0.8-0.6,1.4-1.4,1.4h-9.7c-0.8,0-1.4-0.6-1.4-1.4v-18c0-0.8,0.6-1.4,1.4-1.4h9.7
							c0.8,0,1.4,0.6,1.4,1.4V202.5z"/>
					</g>
					<line class="st20" x1="357" y1="183" x2="357" y2="203.9"/>
					<line class="st20" x1="350.8" y1="191.4" x2="363.3" y2="191.4"/>
				</g>
			</g>
			<g>
				<g>
					<g>
						<path class="st12" d="M279.3,177.4c0,0.8-0.6,1.4-1.4,1.4h-8.4c-0.8,0-1.4-0.6-1.4-1.4v-15.9c0-0.8,0.6-1.4,1.4-1.4h8.4
							c0.8,0,1.4,0.6,1.4,1.4V177.4z"/>
						<path class="st19" d="M279.3,177.4c0,0.8-0.6,1.4-1.4,1.4h-8.4c-0.8,0-1.4-0.6-1.4-1.4v-15.9c0-0.8,0.6-1.4,1.4-1.4h8.4
							c0.8,0,1.4,0.6,1.4,1.4V177.4z"/>
					</g>
					<line class="st20" x1="273.7" y1="160" x2="273.7" y2="178.8"/>
					<line class="st20" x1="268.1" y1="167.5" x2="279.3" y2="167.5"/>
				</g>
				<g>
					<g>
						<path class="st12" d="M265.1,177.4c0,0.8-0.6,1.4-1.4,1.4h-8.4c-0.8,0-1.4-0.6-1.4-1.4v-15.9c0-0.8,0.6-1.4,1.4-1.4h8.4
							c0.8,0,1.4,0.6,1.4,1.4V177.4z"/>
						<path class="st19" d="M265.1,177.4c0,0.8-0.6,1.4-1.4,1.4h-8.4c-0.8,0-1.4-0.6-1.4-1.4v-15.9c0-0.8,0.6-1.4,1.4-1.4h8.4
							c0.8,0,1.4,0.6,1.4,1.4V177.4z"/>
					</g>
					<line class="st20" x1="259.5" y1="160" x2="259.5" y2="178.8"/>
					<line class="st20" x1="253.9" y1="167.5" x2="265.1" y2="167.5"/>
				</g>
				<g>
					<g>
						<path class="st12" d="M279.3,200.8c0,0.8-0.6,1.4-1.4,1.4h-8.4c-0.8,0-1.4-0.6-1.4-1.4v-15.9c0-0.8,0.6-1.4,1.4-1.4h8.4
							c0.8,0,1.4,0.6,1.4,1.4V200.8z"/>
						<path class="st19" d="M279.3,200.8c0,0.8-0.6,1.4-1.4,1.4h-8.4c-0.8,0-1.4-0.6-1.4-1.4v-15.9c0-0.8,0.6-1.4,1.4-1.4h8.4
							c0.8,0,1.4,0.6,1.4,1.4V200.8z"/>
					</g>
					<line class="st20" x1="273.7" y1="183.5" x2="273.7" y2="202.2"/>
					<line class="st20" x1="268.1" y1="191" x2="279.3" y2="191"/>
				</g>
				<g>
					<g>
						<path class="st12" d="M265.1,200.8c0,0.8-0.6,1.4-1.4,1.4h-8.4c-0.8,0-1.4-0.6-1.4-1.4v-15.9c0-0.8,0.6-1.4,1.4-1.4h8.4
							c0.8,0,1.4,0.6,1.4,1.4V200.8z"/>
						<path class="st19" d="M265.1,200.8c0,0.8-0.6,1.4-1.4,1.4h-8.4c-0.8,0-1.4-0.6-1.4-1.4v-15.9c0-0.8,0.6-1.4,1.4-1.4h8.4
							c0.8,0,1.4,0.6,1.4,1.4V200.8z"/>
					</g>
					<line class="st20" x1="259.5" y1="183.5" x2="259.5" y2="202.2"/>
					<line class="st20" x1="253.9" y1="191" x2="265.1" y2="191"/>
				</g>
				<g>
					<g>
						<path class="st12" d="M293.7,177.4c0,0.8-0.6,1.4-1.4,1.4h-8.4c-0.8,0-1.4-0.6-1.4-1.4v-15.9c0-0.8,0.6-1.4,1.4-1.4h8.4
							c0.8,0,1.4,0.6,1.4,1.4V177.4z"/>
						<path class="st19" d="M293.7,177.4c0,0.8-0.6,1.4-1.4,1.4h-8.4c-0.8,0-1.4-0.6-1.4-1.4v-15.9c0-0.8,0.6-1.4,1.4-1.4h8.4
							c0.8,0,1.4,0.6,1.4,1.4V177.4z"/>
					</g>
					<line class="st20" x1="288.1" y1="160" x2="288.1" y2="178.8"/>
					<line class="st20" x1="282.5" y1="167.5" x2="293.7" y2="167.5"/>
				</g>
				<g>
					<g>
						<path class="st12" d="M293.7,200.8c0,0.8-0.6,1.4-1.4,1.4h-8.4c-0.8,0-1.4-0.6-1.4-1.4v-15.9c0-0.8,0.6-1.4,1.4-1.4h8.4
							c0.8,0,1.4,0.6,1.4,1.4V200.8z"/>
						<path class="st19" d="M293.7,200.8c0,0.8-0.6,1.4-1.4,1.4h-8.4c-0.8,0-1.4-0.6-1.4-1.4v-15.9c0-0.8,0.6-1.4,1.4-1.4h8.4
							c0.8,0,1.4,0.6,1.4,1.4V200.8z"/>
					</g>
					<line class="st20" x1="288.1" y1="183.5" x2="288.1" y2="202.2"/>
					<line class="st20" x1="282.5" y1="191" x2="293.7" y2="191"/>
				</g>
				<g>
					<g>
						<path class="st12" d="M308.1,177.4c0,0.8-0.6,1.4-1.4,1.4h-8.4c-0.8,0-1.4-0.6-1.4-1.4v-15.9c0-0.8,0.6-1.4,1.4-1.4h8.4
							c0.8,0,1.4,0.6,1.4,1.4V177.4z"/>
						<path class="st19" d="M308.1,177.4c0,0.8-0.6,1.4-1.4,1.4h-8.4c-0.8,0-1.4-0.6-1.4-1.4v-15.9c0-0.8,0.6-1.4,1.4-1.4h8.4
							c0.8,0,1.4,0.6,1.4,1.4V177.4z"/>
					</g>
					<line class="st20" x1="302.5" y1="160" x2="302.5" y2="178.8"/>
					<line class="st20" x1="296.9" y1="167.5" x2="308.1" y2="167.5"/>
				</g>
				<g>
					<g>
						<path class="st12" d="M308.1,200.8c0,0.8-0.6,1.4-1.4,1.4h-8.4c-0.8,0-1.4-0.6-1.4-1.4v-15.9c0-0.8,0.6-1.4,1.4-1.4h8.4
							c0.8,0,1.4,0.6,1.4,1.4V200.8z"/>
						<path class="st19" d="M308.1,200.8c0,0.8-0.6,1.4-1.4,1.4h-8.4c-0.8,0-1.4-0.6-1.4-1.4v-15.9c0-0.8,0.6-1.4,1.4-1.4h8.4
							c0.8,0,1.4,0.6,1.4,1.4V200.8z"/>
					</g>
					<line class="st20" x1="302.5" y1="183.5" x2="302.5" y2="202.2"/>
					<line class="st20" x1="296.9" y1="191" x2="308.1" y2="191"/>
				</g>
			</g>
		</g>
	</g>
</g>
<g id="Ebene_3">
	<g id="XMLID_5_">
		<polygon id="XMLID_9_" class="st2" points="365.6,223 377,188.5 388.4,223 		"/>
		<line id="XMLID_8_" class="st3" x1="377" y1="201" x2="377" y2="229"/>
		<polyline id="XMLID_7_" class="st23" points="373.8,209.3 377,206.1 379.7,209.3 		"/>
		<polyline id="XMLID_6_" class="st23" points="372,218.5 377.1,213.4 381.5,218.5 		"/>
	</g>
	<g id="XMLID_63_">
		<polygon id="XMLID_68_" class="st2" points="239.3,239 259,179.4 278.7,239 		"/>
		<line id="XMLID_67_" class="st3" x1="258" y1="201" x2="258" y2="248"/>
		<polyline id="XMLID_66_" class="st4" points="253.4,214.8 259,209.2 263.7,214.8 		"/>
		<polyline id="XMLID_65_" class="st4" points="250.4,230.5 259.3,221.7 266.7,230.5 		"/>
	</g>
	<g id="XMLID_175_">
		<polygon id="XMLID_180_" class="st24" points="171.1,230 182.2,196.4 193.3,230 		"/>
		<line id="XMLID_179_" class="st25" x1="182" y1="209" x2="182" y2="235"/>
		<polyline id="XMLID_178_" class="st26" points="179,216.5 182.2,213.4 184.8,216.5 		"/>
		<polyline id="XMLID_177_" class="st26" points="177.3,225.4 182.3,220.4 186.5,225.4 		"/>
	</g>
	<g id="XMLID_107_">
		<polygon id="XMLID_174_" class="st24" points="99.3,240 119,180.4 138.7,240 		"/>
		<line id="XMLID_173_" class="st25" x1="118" y1="202" x2="118" y2="249"/>
		<polyline id="XMLID_172_" class="st26" points="112.9,216 118.4,210.2 124.3,215.8 		"/>
		<polyline id="XMLID_171_" class="st26" points="111,231.5 118.4,222.7 127.3,231.5 		"/>
	</g>
	<g id="XMLID_20_">
		<polygon id="XMLID_24_" class="st24" points="147.3,242 167,182.4 186.7,242 		"/>
		<line id="XMLID_23_" class="st25" x1="166" y1="204" x2="166" y2="251"/>
		<polyline id="XMLID_22_" class="st26" points="160.9,218 166.4,212.2 172.3,217.8 		"/>
		<polyline id="XMLID_21_" class="st26" points="159,233.5 166.4,224.7 175.3,233.5 		"/>
	</g>
	<g id="XMLID_69_">
		<polygon id="XMLID_73_" class="st24" points="277.3,247 297,187.4 316.7,247 		"/>
		<line id="XMLID_72_" class="st25" x1="296" y1="209" x2="296" y2="256"/>
		<polyline id="XMLID_71_" class="st26" points="290.9,223 296.4,217.2 302.3,222.8 		"/>
		<polyline id="XMLID_70_" class="st26" points="289,238.5 296.4,229.7 305.3,238.5 		"/>
	</g>
	<g id="XMLID_32_">
		<polygon id="XMLID_36_" class="st24" points="207.3,249 227,189.4 246.7,249 		"/>
		<line id="XMLID_35_" class="st25" x1="226" y1="211" x2="226" y2="258"/>
		<polyline id="XMLID_34_" class="st26" points="220.9,225 226.4,219.2 232.3,224.8 		"/>
		<polyline id="XMLID_33_" class="st26" points="219,240.5 226.4,231.7 235.3,240.5 		"/>
	</g>
	<g id="XMLID_10_">
		<polygon id="XMLID_14_" class="st2" points="45.3,231 68,162.2 90.7,231 		"/>
		<line id="XMLID_13_" class="st3" x1="67" y1="187" x2="67" y2="236"/>
		<polyline id="XMLID_12_" class="st4" points="61.6,203 67.4,196.6 73.4,203 		"/>
		<polyline id="XMLID_11_" class="st4" points="58.1,221.2 67.7,211 76.9,221.2 		"/>
	</g>
	<g id="XMLID_108_">
		<polygon id="XMLID_112_" class="st24" points="23.3,242 43,182.4 62.7,242 		"/>
		<line id="XMLID_111_" class="st25" x1="42" y1="204" x2="42" y2="251"/>
		<polyline id="XMLID_110_" class="st26" points="36.9,218 42.4,212.2 48.3,217.8 		"/>
		<polyline id="XMLID_109_" class="st26" points="35,233.5 42.4,224.7 51.3,233.5 		"/>
	</g>
	<g id="XMLID_118_">
		<polygon id="XMLID_122_" class="st24" points="342.3,238 362,178.4 381.7,238 		"/>
		<line id="XMLID_121_" class="st25" x1="361" y1="200" x2="361" y2="247"/>
		<polyline id="XMLID_120_" class="st26" points="355.9,214 361.4,208.2 367.3,213.8 		"/>
		<polyline id="XMLID_119_" class="st26" points="354,229.5 361.4,220.7 370.3,229.5 		"/>
	</g>
	<g id="XMLID_15_">
		<polygon id="XMLID_19_" class="st2" points="315.3,250 335,190.4 354.7,250 		"/>
		<line id="XMLID_18_" class="st3" x1="334" y1="212" x2="334" y2="259"/>
		<polyline id="XMLID_17_" class="st4" points="329.4,225.8 335,220.2 339.7,225.8 		"/>
		<polyline id="XMLID_16_" class="st4" points="326.4,241.5 335.3,232.7 342.7,241.5 		"/>
	</g>
	<g id="XMLID_37_">
		<polygon id="XMLID_62_" class="st2" points="127.3,247 147,187.4 166.7,247 		"/>
		<line id="XMLID_61_" class="st3" x1="146" y1="209" x2="146" y2="256"/>
		<polyline id="XMLID_39_" class="st4" points="141.4,222.8 147,217.2 151.7,222.8 		"/>
		<polyline id="XMLID_38_" class="st4" points="138.4,238.5 147.3,229.7 154.7,238.5 		"/>
	</g>
	<g id="XMLID_181_">
		<polygon id="XMLID_185_" class="st2" points="87.1,246 98.2,212.4 109.3,246 		"/>
		<line id="XMLID_184_" class="st3" x1="98" y1="224" x2="98" y2="251"/>
		<polyline id="XMLID_183_" class="st4" points="95,232.1 98.2,229 100.8,232.1 		"/>
		<polyline id="XMLID_182_" class="st4" points="93.4,241 98.3,236 102.5,241 		"/>
	</g>
</g>
<g id="Ebene_2" class="st27">
	
		<image style="display:inline;overflow:visible;enable-background:new    ;" width="285" height="167" xlink:href="3E41D0FD.jpeg"  transform="matrix(1.2143 0 0 1.2156 26.9609 27.5)">
	</image>
</g>
</svg>
