<?xml version="1.0" encoding="utf-8"?>
<!-- Generator: Adobe Illustrator 21.1.0, SVG Export Plug-In . SVG Version: 6.00 Build 0)  -->
<svg version="1.1" id="Ebene_1" xmlns="http://www.w3.org/2000/svg" xmlns:xlink="http://www.w3.org/1999/xlink" x="0px" y="0px"
	 viewBox="0 0 2156 374" style="enable-background:new 0 0 2156 374;" xml:space="preserve">
<style type="text/css">
	.st0{fill:#2482FF;}
	.st1{fill:#FFFFFF;}
	.st2{clip-path:url(#SVGID_2_);fill:#1D1D1B;}
	.st3{clip-path:url(#SVGID_2_);fill:#FFFFFF;}
	.st4{clip-path:url(#SVGID_2_);}
	.st5{clip-path:url(#SVGID_4_);}
	.st6{clip-path:url(#SVGID_6_);}
	.st7{clip-path:url(#SVGID_8_);fill:#CC1719;}
	.st8{clip-path:url(#SVGID_10_);fill:#3DA435;}
	.st9{clip-path:url(#SVGID_10_);fill:#071306;}
	.st10{clip-path:url(#SVGID_10_);fill:#310F05;}
	.st11{clip-path:url(#SVGID_10_);fill:#060201;}
	.st12{clip-path:url(#SVGID_12_);fill:#009EE2;}
	.st13{clip-path:url(#SVGID_12_);fill:#001218;}
	.st14{clip-path:url(#SVGID_12_);fill:#000E16;}
	.st15{clip-path:url(#SVGID_12_);fill:#000203;}
	.st16{clip-path:url(#SVGID_12_);fill:#000C05;}
	.st17{clip-path:url(#SVGID_12_);fill:#00662F;}
	.st18{clip-path:url(#SVGID_12_);fill:#000904;}
	.st19{clip-path:url(#SVGID_12_);fill:#000101;}
	.st20{clip-path:url(#SVGID_4_);fill:#575756;}
</style>
<path class="st0" d="M1241.6,111H2156v148h-914.4V111z"/>
<path class="st1" d="M1268.3,137.6h25.3v61h-25.3V137.6z M1337.7,201.8h25.3v30.5h-25.3V201.8z M1268.3,207.9h25.3v24.4h-25.3V207.9
	z M1303.6,137.6h25.3v30.5h-25.3V137.6z M1303.6,177.4h25.3v54.9h-25.3V177.4z M1337.7,137.6h25.3v54.9h-25.3V137.6z M1472.4,155.6
	l-22.9,56.3h-7.5l-22.9-56.3h6.7c0.7,0,1.3,0.2,1.8,0.5c0.5,0.4,0.8,0.8,1,1.4l15.2,38.3c0.4,0.9,0.7,2,1.1,3.1s0.7,2.3,1,3.5
	c0.3-1.2,0.5-2.4,0.9-3.5s0.7-2.2,1-3.1l15.2-38.3c0.2-0.5,0.5-1,1-1.4s1.1-0.6,1.8-0.6h6.6L1472.4,155.6z M1504.6,206.2
	c-0.9,1.1-2,2-3.3,2.8c-1.2,0.8-2.5,1.4-3.9,1.9s-2.8,0.9-4.3,1.1s-2.9,0.4-4.4,0.4c-2.7,0-5.3-0.5-7.6-1.4
	c-2.3-0.9-4.4-2.3-6.1-4.1s-3-4-4-6.7s-1.4-5.7-1.4-9.2c0-2.8,0.4-5.4,1.3-7.7c0.9-2.4,2.1-4.5,3.7-6.3s3.6-3.2,5.9-4.2
	s4.9-1.5,7.8-1.5c2.4,0,4.7,0.4,6.7,1.2c2.1,0.8,3.8,2,5.3,3.5s2.7,3.4,3.5,5.6c0.8,2.2,1.3,4.8,1.3,7.6c0,1.2-0.1,2-0.4,2.4
	s-0.7,0.6-1.5,0.6h-26.1c0.1,2.4,0.4,4.5,1,6.2s1.4,3.2,2.5,4.4s2.3,2.1,3.8,2.6c1.5,0.6,3.1,0.9,4.9,0.9c1.7,0,3.2-0.2,4.4-0.6
	s2.3-0.8,3.2-1.3c0.9-0.5,1.7-0.9,2.3-1.3c0.6-0.4,1.2-0.6,1.6-0.6c0.6,0,1.1,0.2,1.5,0.7L1504.6,206.2L1504.6,206.2z M1498.3,187.5
	c0-1.5-0.2-2.9-0.6-4.2s-1.1-2.4-1.9-3.3s-1.9-1.7-3.1-2.2s-2.6-0.8-4.2-0.8c-3.2,0-5.7,0.9-7.6,2.8c-1.8,1.9-3,4.4-3.5,7.7H1498.3
	L1498.3,187.5z M1520.6,179.7c1.3-2.6,2.8-4.7,4.6-6.2c1.8-1.5,4-2.2,6.5-2.2c0.9,0,1.7,0.1,2.5,0.3s1.4,0.5,2,0.9l-0.5,5.8
	c-0.2,0.7-0.6,1.1-1.3,1.1c-0.4,0-0.9-0.1-1.6-0.2c-0.7-0.1-1.5-0.2-2.4-0.2c-1.2,0-2.3,0.2-3.3,0.5s-1.8,0.9-2.5,1.6
	s-1.4,1.5-2,2.5s-1.1,2.2-1.6,3.4v24.9h-7.6V172h4.4c0.8,0,1.4,0.2,1.7,0.5c0.3,0.3,0.5,0.8,0.6,1.6L1520.6,179.7L1520.6,179.7z
	 M1554.6,212.5c-3.2,0-5.7-0.9-7.4-2.7c-1.7-1.8-2.6-4.4-2.6-7.7v-23.8h-4.6c-0.4,0-0.8-0.1-1.1-0.4s-0.5-0.7-0.5-1.2v-3.1l6.5-0.9
	l1.7-11.9c0.1-0.4,0.3-0.8,0.6-1c0.3-0.2,0.7-0.4,1.2-0.4h3.9v13.4h11.3v5.6h-11.3v23.3c0,1.6,0.4,2.7,1.2,3.5
	c0.8,0.8,1.8,1.2,3,1.2c0.7,0,1.3-0.1,1.8-0.3s0.9-0.4,1.3-0.6c0.4-0.2,0.7-0.4,0.9-0.6s0.5-0.3,0.7-0.3c0.3,0,0.5,0.1,0.6,0.2
	c0.1,0.1,0.3,0.3,0.5,0.6l2.3,3.7c-1.3,1.2-2.7,2-4.5,2.7C1558.3,212.2,1556.5,212.5,1554.6,212.5z M1577.7,179.7
	c1.3-2.6,2.8-4.7,4.6-6.2c1.8-1.5,4-2.2,6.5-2.2c0.9,0,1.7,0.1,2.5,0.3s1.4,0.5,2,0.9l-0.5,5.8c-0.2,0.7-0.6,1.1-1.3,1.1
	c-0.4,0-0.9-0.1-1.6-0.2c-0.7-0.1-1.5-0.2-2.4-0.2c-1.2,0-2.3,0.2-3.3,0.5s-1.8,0.9-2.5,1.6s-1.4,1.5-2,2.5s-1.1,2.2-1.6,3.4v24.9
	h-7.6V172h4.4c0.8,0,1.4,0.2,1.7,0.5c0.3,0.3,0.5,0.8,0.6,1.6L1577.7,179.7L1577.7,179.7z M1630.5,206.2c-0.9,1.1-2,2-3.3,2.8
	c-1.2,0.8-2.5,1.4-3.9,1.9s-2.8,0.9-4.3,1.1s-2.9,0.4-4.4,0.4c-2.7,0-5.3-0.5-7.6-1.4c-2.3-0.9-4.4-2.3-6.1-4.1s-3-4-4-6.7
	s-1.4-5.7-1.4-9.2c0-2.8,0.4-5.4,1.3-7.7c0.9-2.4,2.1-4.5,3.7-6.3s3.6-3.2,5.9-4.2s4.9-1.5,7.8-1.5c2.4,0,4.7,0.4,6.7,1.2
	c2.1,0.8,3.8,2,5.3,3.5s2.7,3.4,3.5,5.6c0.8,2.2,1.3,4.8,1.3,7.6c0,1.2-0.1,2-0.4,2.4s-0.7,0.6-1.5,0.6H1603c0.1,2.4,0.4,4.5,1,6.2
	s1.4,3.2,2.5,4.4s2.3,2.1,3.8,2.6c1.5,0.6,3.1,0.9,4.9,0.9c1.7,0,3.2-0.2,4.4-0.6s2.3-0.8,3.2-1.3c0.9-0.5,1.7-0.9,2.3-1.3
	c0.6-0.4,1.2-0.6,1.6-0.6c0.6,0,1.1,0.2,1.5,0.7L1630.5,206.2L1630.5,206.2z M1624.2,187.5c0-1.5-0.2-2.9-0.6-4.2s-1.1-2.4-1.9-3.3
	s-1.9-1.7-3.1-2.2s-2.6-0.8-4.2-0.8c-3.2,0-5.7,0.9-7.6,2.8c-1.8,1.9-3,4.4-3.5,7.7H1624.2L1624.2,187.5z M1651.5,212.5
	c-3.2,0-5.7-0.9-7.4-2.7c-1.7-1.8-2.6-4.4-2.6-7.7v-23.8h-4.6c-0.4,0-0.8-0.1-1.1-0.4s-0.5-0.7-0.5-1.2v-3.1l6.5-0.9l1.7-11.9
	c0.1-0.4,0.3-0.8,0.6-1c0.3-0.2,0.7-0.4,1.2-0.4h3.9v13.4h11.3v5.6h-11.3v23.3c0,1.6,0.4,2.7,1.2,3.5c0.8,0.8,1.8,1.2,3,1.2
	c0.7,0,1.3-0.1,1.8-0.3s0.9-0.4,1.3-0.6c0.4-0.2,0.7-0.4,0.9-0.6s0.5-0.3,0.7-0.3c0.3,0,0.5,0.1,0.6,0.2c0.1,0.1,0.3,0.3,0.5,0.6
	l2.3,3.7c-1.3,1.2-2.7,2-4.5,2.7C1655.1,212.2,1653.3,212.5,1651.5,212.5z M1700.5,172v39.8h-4.6c-1,0-1.7-0.5-2-1.5l-0.5-4
	c-0.9,0.9-1.8,1.8-2.7,2.5c-0.9,0.8-1.9,1.4-3,1.9s-2.2,1-3.4,1.3c-1.2,0.3-2.5,0.5-3.9,0.5c-2.2,0-4.1-0.4-5.8-1.1
	c-1.7-0.7-3.1-1.8-4.2-3.1s-2-2.9-2.5-4.8c-0.6-1.9-0.9-3.9-0.9-6.2V172h7.7v25.4c0,2.9,0.7,5.1,2,6.6c1.3,1.6,3.3,2.4,6,2.4
	c2,0,3.8-0.5,5.5-1.4s3.3-2.2,4.8-3.8V172L1700.5,172L1700.5,172z M1718.4,177.6c0.9-0.9,1.8-1.8,2.7-2.5c0.9-0.8,1.9-1.4,3-1.9
	s2.2-1,3.4-1.3c1.2-0.3,2.5-0.5,3.9-0.5c2.2,0,4.1,0.4,5.8,1.1c1.7,0.7,3.1,1.8,4.2,3.1s2,2.9,2.5,4.8c0.6,1.9,0.9,3.9,0.9,6.2V212
	h-7.7v-25.4c0-2.8-0.7-5.1-2-6.6s-3.3-2.4-6-2.4c-2,0-3.8,0.5-5.5,1.4s-3.3,2.2-4.8,3.8V212h-7.6v-40h4.6c1.1,0,1.7,0.5,2,1.5
	L1718.4,177.6L1718.4,177.6z M1789.1,173.5v2.9c0,0.9-0.6,1.5-1.8,1.8l-4.3,0.6c0.4,0.8,0.7,1.7,0.9,2.6c0.2,0.9,0.3,1.9,0.3,2.8
	c0,2-0.4,3.7-1.1,5.3c-0.8,1.6-1.8,2.9-3.1,4.1c-1.3,1.1-2.9,2-4.8,2.6c-1.8,0.6-3.9,0.9-6.1,0.9c-1.8,0-3.5-0.2-5.1-0.6
	c-0.8,0.5-1.4,1-1.8,1.5c-0.4,0.6-0.6,1.1-0.6,1.7c0,0.9,0.4,1.6,1.2,2c0.8,0.4,1.8,0.8,3,1s2.7,0.3,4.3,0.4
	c1.6,0.1,3.2,0.1,4.9,0.3c1.7,0.1,3.3,0.3,4.9,0.6s3,0.8,4.3,1.5c1.2,0.7,2.2,1.6,3,2.7s1.2,2.7,1.2,4.5c0,1.7-0.4,3.4-1.3,5
	s-2.1,3.1-3.7,4.3c-1.6,1.3-3.6,2.3-5.9,3c-2.3,0.8-5,1.1-7.9,1.1c-3,0-5.5-0.3-7.7-0.9c-2.2-0.6-4-1.3-5.5-2.3s-2.5-2.1-3.3-3.4
	c-0.7-1.3-1.1-2.6-1.1-4c0-1.9,0.6-3.6,1.8-4.9c1.2-1.3,2.9-2.4,5-3.2c-1.2-0.5-2.1-1.2-2.7-2.1c-0.7-0.9-1-2.1-1-3.6
	c0-0.6,0.1-1.2,0.3-1.8c0.2-0.6,0.5-1.2,1-1.8s1-1.2,1.6-1.7s1.4-1,2.2-1.5c-2-1.1-3.5-2.6-4.6-4.4c-1.1-1.8-1.7-3.9-1.7-6.4
	c0-2,0.4-3.7,1.1-5.3c0.8-1.6,1.8-2.9,3.2-4c1.3-1.1,3-2,4.8-2.6c1.9-0.6,3.9-0.9,6.1-0.9c3.5,0,6.4,0.7,8.9,2.2L1789.1,173.5
	L1789.1,173.5z M1781.3,214c0-0.9-0.3-1.7-0.8-2.3s-1.2-1-2.1-1.3s-2-0.6-3.2-0.7c-1.2-0.1-2.5-0.3-3.8-0.3
	c-1.3-0.1-2.7-0.2-4.1-0.2c-1.4-0.1-2.7-0.2-4-0.4c-1.4,0.7-2.5,1.5-3.4,2.5s-1.3,2.1-1.3,3.4c0,0.8,0.2,1.6,0.6,2.4
	c0.4,0.7,1.1,1.4,2,1.9s2,1,3.4,1.3s3,0.5,4.9,0.5s3.5-0.2,5-0.5c1.4-0.3,2.6-0.8,3.6-1.4c1-0.6,1.7-1.3,2.2-2.1
	C1781.1,215.8,1781.3,214.9,1781.3,214L1781.3,214z M1769.1,192c1.4,0,2.6-0.2,3.6-0.5s1.9-0.9,2.6-1.5c0.7-0.7,1.2-1.5,1.6-2.4
	s0.5-2,0.5-3.1c0-2.3-0.7-4.1-2.1-5.5s-3.5-2.1-6.2-2.1s-4.7,0.7-6.1,2.1c-1.4,1.4-2.1,3.2-2.1,5.5c0,1.1,0.2,2.2,0.5,3.1
	c0.4,0.9,0.9,1.7,1.6,2.4s1.6,1.2,2.6,1.6C1766.6,191.8,1767.8,192,1769.1,192z M1819.6,178.9c-0.2,0.3-0.4,0.6-0.7,0.7
	c-0.2,0.1-0.5,0.2-0.9,0.2s-0.9-0.1-1.4-0.4c-0.5-0.3-1.1-0.6-1.8-0.9c-0.7-0.3-1.6-0.7-2.5-0.9c-1-0.3-2.1-0.4-3.5-0.4
	c-1.1,0-2.1,0.1-3,0.4c-0.9,0.3-1.7,0.7-2.3,1.1c-0.6,0.5-1.1,1.1-1.5,1.7c-0.3,0.7-0.5,1.4-0.5,2.1c0,1,0.3,1.8,0.9,2.5
	s1.4,1.2,2.3,1.7c1,0.5,2,0.9,3.3,1.3s2.5,0.8,3.7,1.2c1.3,0.4,2.5,0.9,3.7,1.4s2.3,1.2,3.3,2s1.7,1.8,2.3,2.9
	c0.6,1.1,0.9,2.5,0.9,4.1c0,1.9-0.3,3.6-1,5.2s-1.6,2.9-2.9,4.1c-1.3,1.2-2.9,2.1-4.8,2.7c-1.9,0.7-4.1,1-6.5,1
	c-2.7,0-5.3-0.5-7.6-1.4s-4.3-2.1-5.8-3.5l1.8-2.9c0.2-0.4,0.5-0.6,0.8-0.8s0.7-0.3,1.3-0.3c0.5,0,1,0.2,1.5,0.5
	c0.5,0.4,1.2,0.8,1.9,1.2c0.7,0.4,1.6,0.8,2.7,1.2c1,0.4,2.4,0.5,3.9,0.5c1.3,0,2.4-0.2,3.4-0.5s1.8-0.8,2.4-1.3
	c0.6-0.6,1.1-1.2,1.4-1.9s0.5-1.5,0.5-2.3c0-1-0.3-1.9-0.9-2.6c-0.6-0.7-1.4-1.3-2.3-1.8c-1-0.5-2-0.9-3.3-1.3
	c-1.2-0.4-2.5-0.8-3.8-1.2s-2.5-0.9-3.8-1.5c-1.2-0.5-2.3-1.2-3.3-2.1c-1-0.8-1.7-1.9-2.3-3.1c-0.6-1.2-0.9-2.7-0.9-4.4
	c0-1.5,0.3-3,1-4.4c0.6-1.4,1.6-2.7,2.8-3.7c1.2-1.1,2.7-1.9,4.5-2.6c1.8-0.6,3.8-1,6.1-1c2.6,0,5,0.4,7.2,1.3c2.1,0.8,4,2,5.5,3.5
	L1819.6,178.9L1819.6,178.9z M1837.4,178c0.8-1,1.7-1.9,2.7-2.7s2-1.5,3.1-2.1s2.3-1,3.5-1.4c1.2-0.3,2.6-0.5,4-0.5
	c2.3,0,4.3,0.4,6.2,1.3c1.8,0.9,3.4,2.2,4.7,3.9c1.3,1.7,2.3,3.9,3,6.4s1.1,5.5,1.1,8.7c0,3-0.4,5.7-1.2,8.2s-1.9,4.7-3.4,6.6
	s-3.3,3.3-5.4,4.4c-2.1,1.1-4.5,1.6-7.2,1.6c-2.4,0-4.4-0.4-6.1-1.2s-3.2-1.9-4.5-3.3v17.3h-7.6V172h4.6c1.1,0,1.7,0.5,2,1.5
	L1837.4,178L1837.4,178z M1837.8,202.1c1.3,1.6,2.6,2.8,4.1,3.5s3.1,1,4.9,1c3.5,0,6.2-1.3,8.1-3.8s2.9-6.2,2.9-11
	c0-2.5-0.2-4.7-0.6-6.5s-1.1-3.3-1.9-4.4c-0.8-1.1-1.8-2-3-2.5s-2.6-0.8-4.1-0.8c-2.2,0-4.2,0.5-5.8,1.5c-1.6,1-3.1,2.4-4.5,4.2
	L1837.8,202.1L1837.8,202.1z M1882.1,154v57.9h-7.7V154L1882.1,154L1882.1,154z M1892,177.6c2.2-2.1,4.6-3.7,7.2-4.7
	s5.5-1.6,8.6-1.6c2.3,0,4.3,0.4,6,1.1c1.8,0.7,3.2,1.8,4.4,3.1c1.2,1.3,2.1,2.9,2.7,4.8c0.6,1.9,0.9,3.9,0.9,6.2v25.4h-3.4
	c-0.8,0-1.3-0.1-1.7-0.4c-0.4-0.2-0.7-0.7-0.9-1.4l-0.8-3.5c-1,0.9-2,1.8-3,2.5s-2,1.3-3.1,1.8s-2.2,0.9-3.5,1.2
	c-1.2,0.3-2.6,0.4-4.1,0.4c-1.6,0-3-0.2-4.4-0.6s-2.6-1.1-3.6-2s-1.8-2-2.4-3.3s-0.9-2.9-0.9-4.7c0-1.6,0.4-3.1,1.3-4.5
	s2.2-2.8,4.2-3.9c1.9-1.2,4.4-2.1,7.5-2.8s6.9-1.2,11.4-1.3v-2.9c0-3-0.6-5.3-1.9-6.7c-1.3-1.5-3.2-2.2-5.6-2.2
	c-1.7,0-3.1,0.2-4.2,0.6c-1.1,0.4-2.1,0.9-2.9,1.4s-1.5,1-2.2,1.4c-0.6,0.4-1.2,0.6-1.9,0.6c-0.5,0-1-0.1-1.4-0.4
	c-0.4-0.3-0.7-0.6-0.9-1L1892,177.6L1892,177.6z M1914.4,194.2c-3.1,0.1-5.8,0.3-7.9,0.7c-2.2,0.4-3.9,0.9-5.3,1.5s-2.3,1.4-2.9,2.2
	s-0.9,1.8-0.9,2.8s0.2,1.9,0.5,2.6c0.3,0.7,0.8,1.3,1.3,1.8c0.6,0.5,1.2,0.8,2,1s1.6,0.3,2.5,0.3c1.2,0,2.3-0.1,3.2-0.4
	s1.9-0.6,2.8-1s1.7-1,2.5-1.6s1.6-1.3,2.3-2.2L1914.4,194.2L1914.4,194.2z M1939.4,177.6c0.9-0.9,1.8-1.8,2.7-2.5
	c0.9-0.8,1.9-1.4,3-1.9s2.2-1,3.4-1.3c1.2-0.3,2.5-0.5,3.9-0.5c2.2,0,4.1,0.4,5.8,1.1c1.7,0.7,3.1,1.8,4.2,3.1s2,2.9,2.5,4.8
	c0.6,1.9,0.9,3.9,0.9,6.2V212h-7.7v-25.4c0-2.8-0.7-5.1-2-6.6s-3.3-2.4-6-2.4c-2,0-3.8,0.5-5.5,1.4s-3.3,2.2-4.8,3.8V212h-7.6v-40
	h4.6c1.1,0,1.7,0.5,2,1.5L1939.4,177.6L1939.4,177.6z M1974.8,207.3c0-0.7,0.1-1.4,0.4-2s0.6-1.2,1.1-1.6c0.5-0.5,1-0.8,1.6-1.1
	s1.3-0.4,2-0.4s1.4,0.1,2,0.4c0.6,0.3,1.2,0.6,1.6,1.1s0.8,1,1.1,1.6c0.3,0.6,0.4,1.3,0.4,2s-0.1,1.4-0.4,2s-0.6,1.2-1.1,1.6
	s-1,0.8-1.6,1.1s-1.3,0.4-2,0.4s-1.4-0.1-2-0.4c-0.6-0.3-1.2-0.6-1.6-1.1c-0.5-0.5-0.8-1-1.1-1.6
	C1975,208.7,1974.8,208,1974.8,207.3z M1994.6,211.9V172h4.6c1.1,0,1.7,0.5,2,1.5l0.5,3.8c1.5-1.8,3.1-3.2,4.9-4.3s3.9-1.7,6.3-1.7
	c2.6,0,4.8,0.7,6.4,2.2s2.8,3.4,3.6,5.9c0.6-1.4,1.3-2.6,2.2-3.6c0.9-1,1.9-1.9,3.1-2.5c1.1-0.7,2.3-1.1,3.6-1.5s2.6-0.5,3.9-0.5
	c2.1,0,4,0.3,5.7,1s3.1,1.6,4.2,2.9c1.2,1.3,2,2.9,2.6,4.7c0.6,1.9,0.9,4,0.9,6.4v25.4h-7.7v-25.4c0-3-0.6-5.2-1.9-6.7
	s-3.2-2.3-5.7-2.3c-1.1,0-2.1,0.2-3.1,0.6c-1,0.4-1.9,0.9-2.6,1.7s-1.3,1.7-1.8,2.8c-0.4,1.1-0.6,2.4-0.6,3.9v25.4h-7.7v-25.4
	c0-3.1-0.6-5.4-1.8-6.8c-1.2-1.5-3-2.2-5.4-2.2c-1.6,0-3.2,0.4-4.6,1.3c-1.4,0.9-2.7,2-3.9,3.5v29.6h-7.7V211.9z M2092.2,206.2
	c-0.9,1.1-2,2-3.3,2.8c-1.2,0.8-2.5,1.4-3.9,1.9s-2.8,0.9-4.3,1.1s-2.9,0.4-4.4,0.4c-2.7,0-5.3-0.5-7.6-1.4s-4.4-2.3-6.1-4.1
	c-1.7-1.8-3-4-4-6.7s-1.4-5.7-1.4-9.2c0-2.8,0.4-5.4,1.3-7.7c0.9-2.4,2.1-4.5,3.7-6.3c1.6-1.8,3.6-3.2,5.9-4.2
	c2.3-1,4.9-1.5,7.8-1.5c2.4,0,4.7,0.4,6.7,1.2c2.1,0.8,3.8,2,5.3,3.5s2.7,3.4,3.5,5.6c0.8,2.2,1.3,4.8,1.3,7.6c0,1.2-0.1,2-0.4,2.4
	s-0.7,0.6-1.5,0.6h-26.1c0.1,2.4,0.4,4.5,1,6.2s1.4,3.2,2.5,4.4s2.3,2.1,3.8,2.6c1.5,0.6,3.1,0.9,4.9,0.9c1.7,0,3.2-0.2,4.4-0.6
	s2.3-0.8,3.2-1.3s1.7-0.9,2.3-1.3c0.6-0.4,1.2-0.6,1.6-0.6c0.6,0,1.1,0.2,1.5,0.7L2092.2,206.2L2092.2,206.2z M2085.8,187.5
	c0-1.5-0.2-2.9-0.6-4.2c-0.4-1.3-1.1-2.4-1.9-3.3s-1.9-1.7-3.1-2.2c-1.2-0.5-2.6-0.8-4.2-0.8c-3.2,0-5.7,0.9-7.6,2.8
	c-1.8,1.9-3,4.4-3.5,7.7H2085.8L2085.8,187.5z"/>
<path class="st0" d="M1188.7,190.1h-48.5v51.5h-25.1v-51.5h-48.3v-22.9h48.3V116h25.1v51.3h48.5V190.1z"/>
<g>
	<g>
		<defs>
			<polyline id="SVGID_1_" points="0,374 1002.4,374 1002.4,0 0,0 0,374 			"/>
		</defs>
		<clipPath id="SVGID_2_">
			<use xlink:href="#SVGID_1_"  style="overflow:visible;"/>
		</clipPath>
		<polyline class="st2" points="141.7,259.3 1002.4,259.3 1002.4,110.8 141.7,110.8 141.7,259.3 		"/>
		<path class="st3" d="M224.4,164.8l-8.1,4.8c-1.5-2.6-3-4.4-4.3-5.2c-1.4-0.9-3.3-1.4-5.5-1.4c-2.8,0-5.1,0.8-6.9,2.4
			c-1.8,1.5-2.8,3.5-2.8,5.9c0,3.2,2.4,5.9,7.2,7.8l6.6,2.7c5.4,2.2,9.3,4.8,11.8,8c2.5,3.1,3.7,7,3.7,11.6c0,6.1-2,11.2-6.1,15.1
			c-4.1,4-9.2,6-15.3,6c-5.8,0-10.5-1.7-14.3-5.1c-3.7-3.4-6-8.2-6.9-14.4l10.1-2.2c0.5,3.9,1.3,6.6,2.4,8.1c2.1,2.9,5.1,4.3,9,4.3
			c3.1,0,5.7-1,7.8-3.1c2.1-2.1,3.1-4.7,3.1-7.9c0-1.3-0.2-2.5-0.5-3.5c-0.4-1.1-0.9-2.1-1.7-3c-0.8-0.9-1.7-1.7-2.9-2.5
			c-1.2-0.8-2.6-1.5-4.3-2.3l-6.4-2.7c-9.1-3.8-13.6-9.5-13.6-16.8c0-5,1.9-9.2,5.7-12.5c3.8-3.4,8.6-5.1,14.2-5.1
			C214.1,153.7,220.1,157.4,224.4,164.8"/>
		<path class="st3" d="M287.3,158.5v11.8c-5.8-4.8-11.8-7.3-18-7.3c-6.8,0-12.6,2.4-17.2,7.4c-4.7,4.9-7.1,10.8-7.1,17.9
			c0,7,2.4,12.8,7.1,17.6c4.7,4.8,10.5,7.2,17.3,7.2c3.5,0,6.5-0.6,9-1.7c1.4-0.6,2.8-1.3,4.3-2.3c1.5-1,3-2.2,4.7-3.5v12.1
			c-5.7,3.3-11.8,4.9-18.1,4.9c-9.5,0-17.6-3.3-24.3-9.9c-6.7-6.7-10-14.7-10-24.2c0-8.5,2.8-16,8.4-22.6
			c6.9-8.1,15.8-12.2,26.7-12.2C275.9,153.7,281.7,155.3,287.3,158.5"/>
		<polyline class="st3" points="311.8,181 340.4,181 340.4,155 350.4,155 350.4,221.4 340.4,221.4 340.4,190.4 311.8,190.4 
			311.8,221.4 301.8,221.4 301.8,155 311.8,155 311.8,181 		"/>
		<path class="st3" d="M376.4,155v40c0,5.7,0.9,9.9,2.8,12.5c2.8,3.8,6.7,5.7,11.7,5.7c5.1,0,9-1.9,11.8-5.7
			c1.9-2.5,2.8-6.7,2.8-12.5v-40h10v42.7c0,7-2.2,12.8-6.5,17.3c-4.9,5-10.9,7.6-18.1,7.6c-7.1,0-13.1-2.5-18-7.6
			c-4.4-4.5-6.5-10.3-6.5-17.3V155H376.4 M375,142.1c0-1.7,0.6-3.1,1.8-4.3c1.2-1.2,2.6-1.8,4.3-1.8c1.7,0,3.2,0.6,4.3,1.8
			c1.2,1.2,1.8,2.7,1.8,4.4c0,1.7-0.6,3.1-1.8,4.3c-1.2,1.2-2.6,1.8-4.3,1.8c-1.7,0-3.2-0.6-4.4-1.8
			C375.6,145.3,375,143.8,375,142.1 M394.3,142.1c0-1.7,0.6-3.1,1.8-4.3c1.2-1.2,2.7-1.8,4.3-1.8c1.7,0,3.1,0.6,4.3,1.8
			c1.2,1.2,1.8,2.7,1.8,4.4c0,1.7-0.6,3.1-1.8,4.3c-1.2,1.2-2.7,1.8-4.3,1.8c-1.7,0-3.2-0.6-4.4-1.8
			C394.9,145.3,394.3,143.8,394.3,142.1"/>
		<polyline class="st3" points="441.4,155 441.4,211.9 460.9,211.9 460.9,221.4 431.4,221.4 431.4,155 441.4,155 		"/>
		<polyline class="st3" points="507.1,164.4 480.4,164.4 480.4,180.3 506.3,180.3 506.3,189.8 480.4,189.8 480.4,211.9 507.1,211.9 
			507.1,221.4 470.4,221.4 470.4,155 507.1,155 507.1,164.4 		"/>
		<path class="st3" d="M542.7,193.1l20.6,28.3H551l-19-27.2h-1.8v27.2h-10V155H532c8.8,0,15.1,1.6,19,4.9c4.3,3.7,6.4,8.5,6.4,14.5
			c0,4.7-1.3,8.7-4,12.1S547.1,192.1,542.7,193.1 M530.2,185.5h3.2c9.5,0,14.2-3.6,14.2-10.9c0-6.8-4.6-10.2-13.8-10.2h-3.6V185.5"
			/>
		<polygon class="st3" points="583.2,181.5 609.1,155 622.5,155 592.4,185 622.6,221.4 609.2,221.4 585.3,191.8 583.2,193.9 
			583.2,221.4 573.2,221.4 573.2,155 583.2,155 		"/>
		<path class="st3" d="M670.6,205.2h-28.4l-7.4,16.1H624l32.8-70.6l31.7,70.6h-11L670.6,205.2z M666.5,195.8l-9.8-22.6l-10.3,22.6
			H666.5z"/>
		<path class="st3" d="M719.3,193.1l20.6,28.3h-12.3l-19-27.2h-1.8v27.2h-10V155h11.7c8.8,0,15.1,1.6,19,4.9
			c4.3,3.7,6.4,8.5,6.4,14.5c0,4.7-1.3,8.7-4,12.1C727.2,190,723.7,192.1,719.3,193.1z M706.8,185.5h3.2c9.5,0,14.2-3.6,14.2-10.9
			c0-6.8-4.6-10.2-13.8-10.2h-3.6V185.5z"/>
		<path class="st3" d="M772.3,193.1l20.6,28.3h-12.3l-19-27.2h-1.8v27.2h-10V155h11.7c8.8,0,15.1,1.6,19,4.9
			c4.3,3.7,6.4,8.5,6.4,14.5c0,4.7-1.3,8.7-4,12.1C780.3,190,776.7,192.1,772.3,193.1z M759.8,185.5h3.2c9.5,0,14.2-3.6,14.2-10.9
			c0-6.8-4.6-10.2-13.8-10.2h-3.6V185.5z"/>
		<rect x="802.8" y="155" class="st3" width="10" height="66.4"/>
		<polygon class="st3" points="865.4,164.4 838.8,164.4 838.8,180.3 864.6,180.3 864.6,189.8 838.8,189.8 838.8,211.9 865.4,211.9 
			865.4,221.4 828.8,221.4 828.8,155 865.4,155 		"/>
		<path class="st3" d="M901.1,193.1l20.6,28.3h-12.3l-19-27.2h-1.8v27.2h-10V155h11.7c8.8,0,15.1,1.6,19,4.9
			c4.3,3.7,6.5,8.5,6.5,14.5c0,4.7-1.3,8.7-4,12.1C909,190,905.5,192.1,901.1,193.1z M888.6,185.5h3.2c9.5,0,14.2-3.6,14.2-10.9
			c0-6.8-4.6-10.2-13.8-10.2h-3.6V185.5z"/>
		<polygon class="st3" points="968.2,164.4 941.6,164.4 941.6,180.3 967.4,180.3 967.4,189.8 941.6,189.8 941.6,211.9 968.2,211.9 
			968.2,221.4 931.6,221.4 931.6,155 968.2,155 		"/>
		<g class="st4">
			<defs>
				<polyline id="SVGID_3_" points="0,374 1002.4,374 1002.4,0 0,0 0,374 				"/>
			</defs>
			<clipPath id="SVGID_4_">
				<use xlink:href="#SVGID_3_"  style="overflow:visible;"/>
			</clipPath>
			<g class="st5">
				<defs>
					<polyline id="SVGID_5_" points="-61.7,409 265.2,409 265.2,149.4 -61.7,149.4 -61.7,409 					"/>
				</defs>
				<clipPath id="SVGID_6_">
					<use xlink:href="#SVGID_5_"  style="overflow:visible;"/>
				</clipPath>
				<g class="st6">
					<defs>
						<path id="SVGID_7_" d="M70.2,224.6C27,245.3,0.1,285.5,0,325.5v0.6c0,10.9,2.1,21.9,6.3,32.4C10.7,369.3,24,374,41.9,374h0.4
							c46.3-0.1,123.6-30.3,161.7-62.3c-26.3-3.4-46.6-10.2-56.7-21.3c-2.3,1.4-4.7,2.1-7.2,2.1c-0.4,0-0.7,0-1.1,0
							C108.4,289.8,83.4,263.2,70.2,224.6"/>
					</defs>
					<clipPath id="SVGID_8_">
						<use xlink:href="#SVGID_7_"  style="overflow:visible;"/>
					</clipPath>
					<rect y="224.6" class="st7" width="204.1" height="149.4"/>
				</g>
			</g>
			<g class="st5">
				<defs>
					<polyline id="SVGID_9_" points="26.4,320.9 207.3,320.9 207.3,-34.3 26.4,-34.3 26.4,320.9 					"/>
				</defs>
				<clipPath id="SVGID_10_">
					<use xlink:href="#SVGID_9_"  style="overflow:visible;"/>
				</clipPath>
				<path class="st8" d="M159.7,0h-0.4c-48.3,0.2-91.8,60.5-98.7,138.4c-2.8,31.6,0.9,61.4,9.5,86.2c2.6-1.3,5.3-2.4,8.1-3.6
					c16.8-6.8,34-10,50.6-10c4.4,0,8.7,0.2,12.9,0.7V110.8h50C193.1,52.4,185.3,2,164.6,0.2C163,0.1,161.4,0,159.7,0"/>
				<path class="st9" d="M191.8,110.8h-50v100.9c2,0.2,3.9,0.5,5.8,0.7c8.5-21.6,22.8-42.1,41.8-60.2
					C190.6,138.4,191.4,124.4,191.8,110.8"/>
				<path class="st10" d="M128.8,211.1c-16.6,0-33.8,3.2-50.6,10c-2.8,1.1-5.4,2.3-8.1,3.6c13.3,38.6,38.3,65.2,68.9,67.9
					c0.4,0,0.8,0,1.1,0c2.5,0,4.9-0.7,7.2-2.1c-3.6-3.9-5.9-8.4-6.8-13.4c-2.7-15.3-2.2-30.7,1.2-45.7v-19.7
					C137.5,211.3,133.2,211.1,128.8,211.1"/>
				<path class="st11" d="M141.7,211.7v19.7c1.4-6.4,3.4-12.7,5.8-18.9C145.6,212.2,143.7,211.9,141.7,211.7"/>
			</g>
			<g class="st5">
				<defs>
					<polyline id="SVGID_11_" points="85.5,347.8 606.7,347.8 606.7,24 85.5,24 85.5,347.8 					"/>
				</defs>
				<clipPath id="SVGID_12_">
					<use xlink:href="#SVGID_11_"  style="overflow:visible;"/>
				</clipPath>
				<path class="st12" d="M514.9,259.3H220.3c1.9,3.4,3.7,6.9,5.2,10.6c5.1,12.6-4.2,27.4-21.3,41.8c13.3,1.7,28.1,2.5,44,2.5
					C332.9,314.2,447.6,291.4,514.9,259.3 M380.7,80.8c-17,0-34.6,1.5-52.4,4.6c-28.5,5-55,13.8-78.6,25.4h252.1
					C468.8,91.6,426.6,80.8,380.7,80.8"/>
				<path class="st13" d="M311.8,181h28.6v-26h10v66.4h-10v-31h-28.6v31h-10V155h10V181 M390.9,213.2c5.1,0,9-1.9,11.8-5.7
					c1.9-2.5,2.8-6.7,2.8-12.5v-40h10v42.7c0,7-2.2,12.8-6.5,17.3c-4.9,5-10.9,7.6-18.1,7.6c-7.1,0-13.1-2.5-18-7.6
					c-4.4-4.5-6.5-10.3-6.5-17.3V155h10v40c0,5.7,0.9,9.9,2.8,12.5C381.9,211.2,385.8,213.2,390.9,213.2 M431.4,221.4V155h10v57
					h19.5v9.4H431.4 M470.4,221.4V155h36.6v9.4h-26.6v16h25.8v9.4h-25.8v22.2h26.6v9.4H470.4 M520.2,221.4V155H532
					c8.8,0,15.1,1.6,19,4.9c4.3,3.7,6.4,8.5,6.4,14.5c0,4.7-1.3,8.7-4,12.1s-6.2,5.5-10.7,6.5l20.6,28.3H551l-19-27.2h-1.8v27.2
					H520.2 M269.2,222.6c-9.5,0-17.6-3.3-24.3-9.9c-6.7-6.7-10-14.7-10-24.2c0-8.5,2.8-16,8.4-22.6c6.9-8.1,15.8-12.2,26.7-12.2
					c6,0,11.7,1.6,17.3,4.8v11.8c-5.8-4.8-11.8-7.3-18-7.3c-6.8,0-12.6,2.4-17.2,7.4c-4.7,4.9-7.1,10.8-7.1,17.9
					c0,7,2.4,12.8,7.1,17.6c4.7,4.8,10.5,7.2,17.3,7.2c3.5,0,6.5-0.6,9-1.7c1.4-0.6,2.8-1.3,4.3-2.3c1.5-1,3-2.2,4.7-3.5v12.1
					C281.5,220.9,275.5,222.6,269.2,222.6 M381.2,148.3c-1.7,0-3.2-0.6-4.4-1.8c-1.2-1.3-1.8-2.7-1.8-4.4c0-1.7,0.6-3.1,1.8-4.3
					c1.2-1.2,2.6-1.8,4.3-1.8c1.7,0,3.2,0.6,4.3,1.8c1.2,1.2,1.8,2.7,1.8,4.4c0,1.7-0.6,3.1-1.8,4.3
					C384.3,147.7,382.9,148.3,381.2,148.3 M400.5,148.3c-1.7,0-3.2-0.6-4.4-1.8c-1.2-1.3-1.8-2.7-1.8-4.4c0-1.7,0.6-3.1,1.8-4.3
					c1.2-1.2,2.7-1.8,4.3-1.8c1.7,0,3.1,0.6,4.3,1.8c1.2,1.2,1.8,2.7,1.8,4.4c0,1.7-0.6,3.1-1.8,4.3
					C403.6,147.7,402.2,148.3,400.5,148.3 M501.8,110.8H249.7c-23.2,11.4-43.6,25.5-60.4,41.5c-0.4,3.9-0.8,7.8-1.2,11.7
					c0.9-1.9,2.3-3.7,4.1-5.2c3.8-3.4,8.6-5.1,14.2-5.1c7.7,0,13.6,3.7,17.9,11.1l-8.1,4.8c-1.5-2.6-3-4.4-4.3-5.2
					c-1.4-0.9-3.3-1.4-5.5-1.4c-2.8,0-5.1,0.8-6.9,2.4c-1.8,1.5-2.8,3.5-2.8,5.9c0,3.2,2.4,5.9,7.2,7.8l6.6,2.7
					c5.4,2.2,9.3,4.8,11.8,8c2.5,3.1,3.7,7,3.7,11.6c0,6.1-2,11.2-6.1,15.1c-4.1,4-9.2,6-15.3,6c-5.8,0-10.5-1.7-14.3-5.1
					c-3.7-3.4-6-8.2-6.9-14.4l10.1-2.2c0.5,3.9,1.3,6.6,2.4,8.1c2.1,2.9,5.1,4.3,9,4.3c3.1,0,5.7-1,7.8-3.1c2.1-2.1,3.1-4.7,3.1-7.9
					c0-1.3-0.2-2.5-0.5-3.5c-0.4-1.1-0.9-2.1-1.7-3c-0.8-0.9-1.7-1.7-2.9-2.5c-1.2-0.8-2.6-1.5-4.3-2.3l-6.4-2.7
					c-7.6-3.2-12-7.7-13.3-13.4c-2.1,16.5-4.9,32.5-8.1,47.1c17.5,8.2,32.1,21,41.5,37.5h294.7c36.5-17.4,59-37.4,55.4-58.1
					C563.7,163.3,538.3,132,501.8,110.8"/>
				<path class="st12" d="M206.5,153.7c-5.7,0-10.4,1.7-14.2,5.1c-1.8,1.6-3.1,3.3-4.1,5.2c-0.4,3.6-0.8,7.2-1.3,10.7
					c1.2,5.7,5.7,10.2,13.3,13.4l6.4,2.7c1.7,0.7,3.1,1.5,4.3,2.3c1.2,0.8,2.2,1.6,2.9,2.5c0.8,0.9,1.3,1.9,1.7,3
					c0.4,1.1,0.5,2.3,0.5,3.5c0,3.2-1,5.9-3.1,7.9c-2.1,2.1-4.7,3.1-7.8,3.1c-4,0-7-1.4-9-4.3c-1.1-1.5-1.9-4.2-2.4-8.1l-10.1,2.2
					c0.9,6.2,3.2,11,6.9,14.4c3.8,3.4,8.5,5.1,14.3,5.1c6.1,0,11.2-2,15.3-6c4.1-4,6.1-9,6.1-15.1c0-4.6-1.2-8.4-3.7-11.6
					c-2.5-3.1-6.4-5.8-11.8-8l-6.6-2.7c-4.8-2-7.2-4.6-7.2-7.8c0-2.4,0.9-4.3,2.8-5.9c1.8-1.6,4.1-2.4,6.9-2.4
					c2.3,0,4.1,0.5,5.5,1.4c1.4,0.8,2.8,2.5,4.3,5.2l8.1-4.8C220.1,157.4,214.1,153.7,206.5,153.7"/>
				<path class="st12" d="M270,153.7c-10.9,0-19.8,4.1-26.7,12.2c-5.6,6.6-8.4,14.2-8.4,22.6c0,9.4,3.3,17.5,10,24.2
					c6.7,6.6,14.8,9.9,24.3,9.9c6.3,0,12.3-1.6,18.1-4.9v-12.1c-1.6,1.4-3.2,2.5-4.7,3.5c-1.5,1-2.9,1.7-4.3,2.3
					c-2.5,1.1-5.5,1.7-9,1.7c-6.8,0-12.6-2.4-17.3-7.2c-4.7-4.8-7.1-10.7-7.1-17.6c0-7.1,2.4-13,7.1-17.9c4.7-4.9,10.4-7.4,17.2-7.4
					c6.2,0,12.2,2.4,18,7.3v-11.8C281.7,155.3,275.9,153.7,270,153.7"/>
				<polyline class="st12" points="350.4,155 340.4,155 340.4,181 311.8,181 311.8,155 301.8,155 301.8,221.4 311.8,221.4 
					311.8,190.4 340.4,190.4 340.4,221.4 350.4,221.4 350.4,155 				"/>
				<path class="st12" d="M415.5,155h-10v40c0,5.8-0.9,10-2.8,12.5c-2.8,3.8-6.7,5.7-11.8,5.7c-5,0-9-1.9-11.7-5.7
					c-1.9-2.6-2.8-6.8-2.8-12.5v-40h-10v42.7c0,7,2.2,12.8,6.5,17.3c4.9,5,10.9,7.6,18,7.6c7.1,0,13.2-2.5,18.1-7.6
					c4.4-4.5,6.5-10.3,6.5-17.3V155 M381.1,136c-1.7,0-3.1,0.6-4.3,1.8c-1.2,1.2-1.8,2.6-1.8,4.3c0,1.7,0.6,3.2,1.8,4.4
					c1.2,1.2,2.7,1.8,4.4,1.8c1.7,0,3.1-0.6,4.3-1.8c1.2-1.2,1.8-2.7,1.8-4.3c0-1.7-0.6-3.2-1.8-4.4
					C384.3,136.6,382.8,136,381.1,136 M400.5,136c-1.7,0-3.1,0.6-4.3,1.8c-1.2,1.2-1.8,2.6-1.8,4.3c0,1.7,0.6,3.2,1.8,4.4
					c1.2,1.2,2.7,1.8,4.4,1.8c1.7,0,3.1-0.6,4.3-1.8c1.2-1.2,1.8-2.7,1.8-4.3c0-1.7-0.6-3.2-1.8-4.4
					C403.6,136.6,402.2,136,400.5,136"/>
				<polyline class="st12" points="441.4,155 431.4,155 431.4,221.4 460.9,221.4 460.9,211.9 441.4,211.9 441.4,155 				"/>
				<polyline class="st12" points="507.1,155 470.4,155 470.4,221.4 507.1,221.4 507.1,211.9 480.4,211.9 480.4,189.8 506.3,189.8 
					506.3,180.3 480.4,180.3 480.4,164.4 507.1,164.4 507.1,155 				"/>
				<path class="st13" d="M533.8,164.4h-3.6v21.1h3.2c9.5,0,14.2-3.6,14.2-10.9C547.6,167.8,543,164.4,533.8,164.4"/>
				<path class="st12" d="M530.2,185.5v-21.1h3.6c9.2,0,13.8,3.4,13.8,10.2c0,7.3-4.7,10.9-14.2,10.9H530.2 M532,155h-11.7v66.4h10
					v-27.2h1.8l19,27.2h12.3l-20.6-28.3c4.4-0.9,8-3.1,10.7-6.5s4-7.4,4-12.1c0-6-2.1-10.9-6.4-14.5C547.1,156.6,540.7,155,532,155"
					/>
				<path class="st14" d="M220.3,259.3h-52.4c-6,15.6-12.8,26.7-20.4,31.1c10.2,11.1,30.4,17.9,56.7,21.3
					c17.2-14.4,26.4-29.2,21.3-41.8C223.9,266.2,222.2,262.7,220.3,259.3"/>
				<path class="st15" d="M178.7,221.8c-3.2,14-6.8,26.8-10.9,37.5h52.4C210.8,242.8,196.2,230.1,178.7,221.8"/>
				<path class="st16" d="M189.3,152.3c-19,18.1-33.3,38.6-41.8,60.2c11,1.7,21.6,4.8,31.2,9.4c3.3-14.6,6-30.6,8.1-47.1
					c-0.2-1.1-0.4-2.2-0.4-3.4c0-2.7,0.5-5.1,1.6-7.3C188.6,160.1,189,156.2,189.3,152.3"/>
				<path class="st17" d="M188.2,164c-1.1,2.2-1.6,4.6-1.6,7.3c0,1.2,0.1,2.3,0.4,3.4C187.3,171.1,187.8,167.6,188.2,164"/>
				<path class="st18" d="M141.7,231.4c-3.4,15-3.9,30.3-1.2,45.7c0.9,5,3.2,9.5,6.8,13.4c7.6-4.4,14.5-15.6,20.4-31.1h-26.1V231.4"
					/>
				<path class="st19" d="M147.6,212.5c-2.4,6.2-4.4,12.5-5.8,18.9v27.9h26.1c4.1-10.7,7.8-23.4,10.9-37.5
					C169.1,217.3,158.6,214.1,147.6,212.5"/>
			</g>
			<path class="st20" d="M576.4,303.9v-22h4.6c2.2,0,4,0.2,5.2,0.7c1.4,0.4,2.6,1.2,3.8,2.2c2.3,2.1,3.4,4.8,3.4,8.2
				c0,3.4-1.2,6.1-3.6,8.2c-1.2,1-2.4,1.8-3.7,2.2c-1.2,0.4-2.9,0.6-5.2,0.6H576.4z M579.7,300.8h1.5c1.5,0,2.7-0.2,3.7-0.5
				c1-0.3,1.9-0.9,2.7-1.6c1.6-1.5,2.5-3.4,2.5-5.8c0-2.4-0.8-4.4-2.4-5.9c-1.5-1.3-3.6-2-6.4-2h-1.5V300.8z"/>
			<rect x="597.6" y="281.9" class="st20" width="3.3" height="22"/>
			<polygon class="st20" points="618.4,285 609.5,285 609.5,290.3 618.1,290.3 618.1,293.5 609.5,293.5 609.5,300.8 618.4,300.8 
				618.4,303.9 606.2,303.9 606.2,281.9 618.4,281.9 			"/>
			<path class="st20" d="M644.7,298.6h-9.4l-2.5,5.3h-3.6l10.9-23.4l10.5,23.4H647L644.7,298.6z M643.3,295.5L640,288l-3.4,7.5
				H643.3z"/>
			<path class="st20" d="M655.9,281.9v13.3c0,1.9,0.3,3.3,0.9,4.1c0.9,1.3,2.2,1.9,3.9,1.9c1.7,0,3-0.6,3.9-1.9
				c0.6-0.8,0.9-2.2,0.9-4.1v-13.3h3.3v14.2c0,2.3-0.7,4.2-2.2,5.7c-1.6,1.7-3.6,2.5-6,2.5s-4.4-0.8-6-2.5c-1.4-1.5-2.2-3.4-2.2-5.7
				v-14.2H655.9z"/>
			<path class="st20" d="M686.6,285.2l-2.7,1.6c-0.5-0.9-1-1.4-1.4-1.7c-0.5-0.3-1.1-0.5-1.8-0.5c-0.9,0-1.7,0.3-2.3,0.8
				c-0.6,0.5-0.9,1.2-0.9,1.9c0,1.1,0.8,1.9,2.4,2.6l2.2,0.9c1.8,0.7,3.1,1.6,3.9,2.6c0.8,1,1.2,2.3,1.2,3.8c0,2-0.7,3.7-2,5
				c-1.4,1.3-3,2-5.1,2c-1.9,0-3.5-0.6-4.7-1.7c-1.2-1.1-2-2.7-2.3-4.8l3.4-0.7c0.2,1.3,0.4,2.2,0.8,2.7c0.7,1,1.7,1.4,3,1.4
				c1,0,1.9-0.3,2.6-1c0.7-0.7,1-1.6,1-2.6c0-0.4-0.1-0.8-0.2-1.2c-0.1-0.4-0.3-0.7-0.6-1c-0.3-0.3-0.6-0.6-1-0.8
				c-0.4-0.3-0.9-0.5-1.4-0.7l-2.1-0.9c-3-1.3-4.5-3.1-4.5-5.6c0-1.7,0.6-3,1.9-4.1c1.3-1.1,2.8-1.7,4.7-1.7
				C683.2,281.5,685.2,282.7,686.6,285.2z"/>
			<path class="st20" d="M691.2,303.9v-22h3.3c1.5,0,2.6,0.1,3.5,0.3c0.9,0.2,1.6,0.6,2.2,1.2c0.6,0.6,1.1,1.3,1.5,2.1
				c0.4,0.8,0.6,1.7,0.6,2.6c0,1.6-0.6,2.9-1.8,4c1.2,0.4,2.1,1.1,2.8,2.1c0.7,1,1,2.1,1,3.5c0,1.7-0.6,3.2-1.8,4.4
				c-0.7,0.7-1.6,1.2-2.5,1.5c-1,0.3-2.2,0.4-3.8,0.4H691.2z M694.5,291.4h1c1.2,0,2.1-0.3,2.7-0.8c0.6-0.5,0.9-1.4,0.9-2.4
				c0-1-0.3-1.8-0.9-2.4c-0.6-0.5-1.4-0.8-2.6-0.8h-1.2V291.4z M694.5,300.8h2.1c1.5,0,2.6-0.3,3.3-0.9c0.7-0.6,1.1-1.4,1.1-2.4
				c0-1-0.4-1.8-1.1-2.4c-0.7-0.6-1.9-1-3.7-1h-1.7V300.8z"/>
			<rect x="708.4" y="281.9" class="st20" width="3.3" height="22"/>
			<polygon class="st20" points="720.4,281.9 720.4,300.8 726.8,300.8 726.8,303.9 717,303.9 717,281.9 			"/>
			<path class="st20" d="M730,303.9v-22h4.6c2.2,0,4,0.2,5.2,0.7c1.4,0.4,2.6,1.2,3.8,2.2c2.3,2.1,3.4,4.8,3.4,8.2
				c0,3.4-1.2,6.1-3.6,8.2c-1.2,1-2.4,1.8-3.7,2.2c-1.2,0.4-2.9,0.6-5.2,0.6H730z M733.3,300.8h1.5c1.5,0,2.7-0.2,3.7-0.5
				c1-0.3,1.9-0.9,2.7-1.6c1.6-1.5,2.5-3.4,2.5-5.8c0-2.4-0.8-4.4-2.4-5.9c-1.5-1.3-3.6-2-6.4-2h-1.5V300.8z"/>
			<path class="st20" d="M754.5,281.9v13.3c0,1.9,0.3,3.3,0.9,4.1c0.9,1.3,2.2,1.9,3.9,1.9c1.7,0,3-0.6,3.9-1.9
				c0.6-0.8,0.9-2.2,0.9-4.1v-13.3h3.3v14.2c0,2.3-0.7,4.2-2.2,5.7c-1.6,1.7-3.6,2.5-6,2.5s-4.4-0.8-6-2.5c-1.4-1.5-2.2-3.4-2.2-5.7
				v-14.2H754.5z"/>
			<polygon class="st20" points="772.8,303.9 772.8,280.4 788.8,297.2 788.8,281.9 792.2,281.9 792.2,305.3 776.1,288.5 
				776.1,303.9 			"/>
			<path class="st20" d="M809,292.5h9.1v0.7c0,1.7-0.2,3.1-0.6,4.4c-0.4,1.2-1,2.3-1.9,3.3c-2,2.3-4.6,3.5-7.8,3.5
				c-3.1,0-5.7-1.1-7.9-3.3c-2.2-2.2-3.3-4.9-3.3-8c0-3.2,1.1-5.9,3.4-8.1c2.2-2.2,5-3.4,8.2-3.4c1.7,0,3.3,0.3,4.8,1
				c1.4,0.7,2.8,1.8,4.2,3.4l-2.4,2.3c-1.8-2.4-4-3.6-6.6-3.6c-2.3,0-4.3,0.8-5.9,2.4c-1.6,1.6-2.4,3.6-2.4,5.9
				c0,2.5,0.9,4.5,2.6,6.1c1.6,1.5,3.4,2.2,5.3,2.2c1.6,0,3.1-0.5,4.4-1.7c1.3-1.1,2-2.4,2.2-4H809V292.5z"/>
			<path class="st20" d="M834.7,285.2l-2.7,1.6c-0.5-0.9-1-1.4-1.4-1.7c-0.5-0.3-1.1-0.5-1.8-0.5c-0.9,0-1.7,0.3-2.3,0.8
				c-0.6,0.5-0.9,1.2-0.9,1.9c0,1.1,0.8,1.9,2.4,2.6l2.2,0.9c1.8,0.7,3.1,1.6,3.9,2.6c0.8,1,1.2,2.3,1.2,3.8c0,2-0.7,3.7-2,5
				c-1.4,1.3-3,2-5.1,2c-1.9,0-3.5-0.6-4.7-1.7c-1.2-1.1-2-2.7-2.3-4.8l3.4-0.7c0.2,1.3,0.4,2.2,0.8,2.7c0.7,1,1.7,1.4,3,1.4
				c1,0,1.9-0.3,2.6-1s1-1.6,1-2.6c0-0.4-0.1-0.8-0.2-1.2c-0.1-0.4-0.3-0.7-0.6-1c-0.3-0.3-0.6-0.6-1-0.8c-0.4-0.3-0.9-0.5-1.4-0.7
				l-2.1-0.9c-3-1.3-4.5-3.1-4.5-5.6c0-1.7,0.6-3,1.9-4.1c1.3-1.1,2.8-1.7,4.7-1.7C831.3,281.5,833.3,282.7,834.7,285.2z"/>
			<polygon class="st20" points="840.3,281.9 846.4,297.2 852.6,281.9 856.2,281.9 846.4,305.6 836.7,281.9 			"/>
			<polygon class="st20" points="871.1,285 862.3,285 862.3,290.3 870.9,290.3 870.9,293.5 862.3,293.5 862.3,300.8 871.1,300.8 
				871.1,303.9 859,303.9 859,281.9 871.1,281.9 			"/>
			<path class="st20" d="M883,294.6l6.8,9.4h-4.1l-6.3-9h-0.6v9h-3.3v-22h3.9c2.9,0,5,0.5,6.3,1.6c1.4,1.2,2.1,2.8,2.1,4.8
				c0,1.6-0.4,2.9-1.3,4C885.6,293.5,884.4,294.2,883,294.6z M878.8,292h1.1c3.1,0,4.7-1.2,4.7-3.6c0-2.3-1.5-3.4-4.6-3.4h-1.2V292z
				"/>
			<polygon class="st20" points="892.3,303.9 896.9,280.3 904.5,297.4 912.3,280.3 916.5,303.9 913.1,303.9 911,290.6 904.4,305 
				898.1,290.6 895.7,303.9 			"/>
			<rect x="921.2" y="281.9" class="st20" width="3.3" height="22"/>
			<polygon class="st20" points="935.9,285 935.9,303.9 932.5,303.9 932.5,285 927.5,285 927.5,281.9 940.9,281.9 940.9,285 			"/>
			<polygon class="st20" points="949.9,285 949.9,303.9 946.6,303.9 946.6,285 941.6,285 941.6,281.9 955,281.9 955,285 			"/>
			<polygon class="st20" points="961.3,281.9 961.3,300.8 967.8,300.8 967.8,303.9 958,303.9 958,281.9 			"/>
			<polygon class="st20" points="983.1,285 974.2,285 974.2,290.3 982.8,290.3 982.8,293.5 974.2,293.5 974.2,300.8 983.1,300.8 
				983.1,303.9 970.9,303.9 970.9,281.9 983.1,281.9 			"/>
			<path class="st20" d="M994.9,294.6l6.8,9.4h-4.1l-6.3-9h-0.6v9h-3.3v-22h3.9c2.9,0,5,0.5,6.3,1.6c1.4,1.2,2.1,2.8,2.1,4.8
				c0,1.6-0.4,2.9-1.3,4C997.5,293.5,996.4,294.2,994.9,294.6z M990.8,292h1.1c3.1,0,4.7-1.2,4.7-3.6c0-2.3-1.5-3.4-4.6-3.4h-1.2
				V292z"/>
		</g>
	</g>
</g>
</svg>
