<svg xmlns="http://www.w3.org/2000/svg" viewBox="0 0 2156 374"><path fill="#CC171B" d="M.7 314c1.3-4.1 1.5-8.4 2.6-12.6 3.3-12.6 8.9-24.1 16.3-34.7 9.3-13.1 20.7-24.1 34-33 5-3.4 10.2-6.7 16-8.9 3 .4 3.2 3.1 4 5.1 5.4 13.6 12.3 26.2 21.9 37.3 10.5 12.1 23.4 20 39.2 23.2 4.2.8 8.3.1 12.3-.8.8.1 1.6.4 2.2 1 13.2 11.5 29.5 15.2 46 18.4 2.8.5 6.1-.2 8.4 2.3-4.7 5-10.6 8.4-16.1 12.3-8.6 6-17.7 10.9-26.9 15.8-6.7 3.5-13.7 6.6-20.6 9.7-10 4.4-20.1 8.3-30.5 11.7-6.3 2-12.5 4.2-19 5.6-5.8 1.2-11.4 3.3-17.3 4.3-4.2.7-8.5.7-12.6 2.3-3.9 1.2-8.1.1-12 1.2h-12c-3.2-1.2-6.5-.5-9.8-.9-13.6-1.8-21.6-9.2-24.4-22.6C.8 343 .2 335.3.2 327.5c0-4.6-.7-9.1.5-13.5z"/><path fill="#333231" d="M999.6 259c-.3-.1-.7-.1-1-.2-1.8-1.9-1.6-4.3-1.6-6.6V117.8c0-2.3-.3-4.7 1.6-6.6.3-.1.7-.2 1-.2v148z"/><path fill="#F6F6F6" d="M150.6 1.5V0h17v1.5c-4 2.7-8.5.3-12.7 1.1-1.4.3-3.3.9-4.3-1.1z"/><path fill="#1D1E1B" d="M998.6 111.2v147.6c-1.8.6-3.6.3-5.5.3H524.5c-1.7 0-3.3-.2-5-.2-1.8-2.8.6-4 2.3-5.1 3.2-2.1 6.6-3.9 9.9-5.8 10.8-5.9 20.2-13.6 28.1-22.9 6.3-7.5 9.2-16 7-26.4-4.9-22.8-15.4-42.3-31.7-58.9-8.4-8.6-17.5-16.3-27.7-22.8-2-1.2-4.8-2.5-2.9-5.8 1.7-.1 3.3-.3 5-.3h484.1c1.7 0 3.4-.2 5 .3z"/><path fill="#09111E" d="M504.6 111.2v2.4c4.7 3.4 9.5 6.2 13.9 9.5 5.4 4.1 10.3 8.7 15.2 13.3 7.2 6.8 13.4 14.5 18.8 22.8 4.3 6.7 7.9 13.8 10.4 21.3 1.3 4 3.3 7.7 4.1 11.9.7 4 1.1 8 2.6 11.8.6 1.6-.6 3.2-.8 4.7-1.2 8.4-5.5 14.8-11.3 20.7-5.2 5.4-10.9 10.1-16.8 14.5-4.2 3.1-9 5.3-13.5 7.9-2.4 1.4-4.8 2.8-7.4 4.2 0 .8-.1 1.6-.1 2.4-2.3.1-4.6.3-6.9.4-4.6 1.1-9.2 1.4-13.9 1.4H232c-3.2 0-6.3.1-9.5-.2l-1.7-.3c-1.5-.5-2.4-1.7-3.2-3-8.9-14.3-21.3-24.7-35.9-32.7-1.7-.9-3.7-1.7-3.7-4.2 1.9-12.6 4.9-25.1 6.4-37.8.2-1.5.6-2.9 1.6-4.1 2.2-1.4 3.5.3 4.6 1.6 3.2 3.9 7.5 6 12 7.8 2.9 1.2 5.8 2.5 8.5 4.2 4.8 3 6.7 7.4 5.6 12.8-1 4.8-5.6 9-10.4 9.5-5.6.6-9.6-1.6-12.2-6.8-.7-1.5-1-3.2-2.5-4.3-2-.4-3.9-.1-5.7 1.5-.2 4.6 2.1 8.2 5.2 11.3 6.3 6.3 18.5 6.7 25.8 1.4 9.3-6.8 9-19.3 5.1-25.5-3.3-5.3-9.1-7-14.2-9.7-1.9-1-4.1-1.5-6-2.6-5.2-2.9-7.2-7.4-5.3-11.4 2.1-4.6 8.6-7.1 13.6-5.3 2.6.9 4.2 3.2 6.5 4.1 2.3.1 3.7-.9 5.1-2.9-2.1-4.8-6.2-7.3-11-8.2-6.3-1.2-12.3-.1-17.4 4.1-1.4 1.2-2.6 3.2-5.1 2-1.7-3.5-.5-6.8.5-10.1 6.1-6.9 13.4-12.3 20.7-17.7 11.7-8.8 24.1-16.4 37.3-22.7 1.3-.2 2.6-.3 3.8-.5 3.5-1.2 7.1-1.4 10.8-1.4h226.2c3.9 0 7.6.2 11.4 1.3l5.7.6z"/><path fill="#3FA435" d="M150.6 1.5c5.7-.7 11.4-.8 17 0 7.5 3 11 9.5 13.7 16.3 3.2 8.1 5.2 16.6 6.6 25.3 1.4 8.4 1.8 16.8 2.8 25.1 1.7 14.1.7 28.2 1 42.4-.3.6-.8 1-1.4 1.3-5.3 1.3-10.6.5-15.9.6-8 .1-16 0-24 0-2.1 0-4.3-.2-6.2 1-1.3 2.4-1 5-1 7.4v81.4c0 2.6.3 5.3-.8 7.9-2.2 2.9-5.5 2.1-8.3 2-15.3-.5-30.1 1.7-44.7 6.2-4.6 1.4-9 3.4-13.5 5.1-1.8.7-3.7 1.8-5.7.4-4.4-13.2-7.5-26.6-8.8-40.6-1-10.4-2-20.8-1.5-31.3.4-8.9 1.5-17.8 2.4-26.7 1.4-12.9 4.6-25.4 8.6-37.6 4.5-13.6 10.3-26.8 18-39.1 5.6-8.9 11.8-17.2 19.2-24.5 10.2-10.2 22.1-17.9 36.1-22 2.1-.3 4.3-.3 6.4-.6z"/><path fill="#1D9BD6" d="M498.9 110.6c-1.4.6-3 .3-4.4.3h-240c-1.3 0-2.6-.2-4-.3 3.3-2.8 7.5-4 11.3-5.8 9.4-4.1 19-7.5 28.8-10.4 7.1-2.1 14.2-4.1 21.5-5.7 5.1-1.1 10.3-2.3 15.5-3.2 6.5-1.1 13.1-1.6 19.6-2.7 4.1-.7 8.3-.3 12.3-1.6 1.1-.3 2.3-.2 3.5-.2 10.5 0 21-.1 31.5 0 4.3.1 8.6.7 12.8 1.2 6 .8 12.1 1.9 18.1 2.5 5.1.5 10 2 15 3.1 8.2 1.8 16.3 4.2 24.2 6.9 8.4 2.9 16.6 6.1 24.6 10 3.3 1.8 6.6 3.7 9.7 5.9z"/><path fill="#1D1E1B" d="M246.6 111.2c-.1.5-.1 1.3-.3 1.4-2.5.5-4.1 2.8-6.3 3.4-4.3 1.2-7.2 4.9-11.5 6.2-2.4.8-4.7 2.8-6.9 4.5-9.5 6.9-19.5 13.2-27.8 21.7-1.2 1.2-2.6 2-4.1 2.6-1.5-1.4-1.6-3.3-1.5-5.1.8-10.5 2.1-21 2.1-31.6 0-1.2.4-2.3 1.4-3.1.1-.2.1-.4.1-.6 1.8.1 3.6.3 5.4.3h44.6c1.6 0 3.2.2 4.8.3z"/><path fill="#1D9BD6" d="M220.7 259h288.5c1.2 0 2.3.1 3.5.2-5.2 3.1-11 5.1-16.5 7.5-16.9 7.1-34.3 12.6-51.8 17.8-11 3.3-22.2 6.1-33.4 8.7-13.5 3.1-27 6.1-40.5 8.6-7.3 1.4-14.6 2.4-21.9 4-3.2.7-6.6.6-9.9 1.1-6.9.9-13.7 2.1-20.5 2.9-4.2.5-8.5 1.2-12.8 1.2-7 .1-13.8 1.1-20.7 1.9h-1c-17.1.8-34.2 1.9-51.3.9-8.4-.5-16.9-.5-25.2-1.9-.7-.1-1.3-.2-1.6-.9-.4-2.8 1.9-4.1 3.5-5.6 4.9-4.8 9.2-10 12.6-15.9 4.5-7.8 5-15.6.6-23.6-1-2-3.2-4.1-1.6-6.9z"/><path fill="#333231" d="M220.7 259c1.2 2.7 2.2 5.4 3.5 8 3.7 7.2 3.1 14.3-.5 21.3-3.1 6.1-7.3 11.3-12.1 16.1-2.1 2.1-4.5 3.9-6.1 6.5-.6.1-1.2.2-1.9.3-8.5-.4-16.7-2.7-24.9-4.7-8.1-1.9-15.8-5-22.9-9.5-3.3-2.1-6.1-4.8-9.3-7.1-4.8-2.4-6.3-7.3-7.2-11.8-2.8-13.7-2.6-27.6-.3-41.4.2-1.5-.1-4.2 3.1-3.4 1.8 3.6.8 7.5 1.1 11.3.2 3.8-.6 7.6.7 11.3 2.2 1.8 4.8 1.3 7.2 1.3h60.8c2.6 0 5.4-.4 7.6 1.5.5.3.9.3 1.2.3z"/><path fill="#5D2E2C" d="M141.6 233c-1.7 2.5-1.4 5.5-1.8 8.2-.6 4-.7 8.2-.9 12.2-.5 8.5.5 17 2 25.4.7 4 3.3 7.7 5.8 11.2-4 3.4-8.7 2.1-13.1 1.4-9.1-1.6-17.5-5.3-25-10.6-5.2-3.7-10.3-7.6-14.1-13-1.4-2-3.4-3.6-4.8-5.6-7.3-10.1-13.3-20.9-17.4-32.7-.6-1.6-1-3.5-2.6-4.6.2-.3.3-.6.5-.9 4.5-.9 8.5-3.3 12.8-4.8 8-2.8 16.2-4.8 24.5-6.4 11.4-2.3 22.7-1.6 34.1-1.8.5.4.8 1 1.1 1.6.3 6.8 1.9 13.7-1.1 20.4z"/><path fill="#F6F6F6" d="M738 221.3h-12.2c-6.3-9-12.8-18.2-19.7-28.1-1.4 5.4-.5 9.9-.7 14.4-.2 4.4.3 8.9-.3 13.3-4.3.9-6.4.9-10-.1v-65.2c3.9-.8 14.6-1 18.2-.1 3.2.8 6.6.6 9.6 2.4 5.7 3.6 9.1 8.4 9.1 15.5 0 5.4-.9 10.2-4.7 14.2-2.4 2.6-5.5 4.2-9.3 5.8 6.6 9.4 13.1 18.4 20 27.9zm180.3-.2h-12.1c-3.1-4.5-6.2-9.2-9.5-13.8-3.2-4.5-6-9.3-10.5-13.9-.9 3.6-.4 6.6-.5 9.5-.1 3 0 6 0 9v9.2h-9.8v-65.4c2.7-.7 13.9-1 17-.4 2.3.4 4.6.8 6.8 1.4 7.6 2 12.6 8.5 12.9 16.3.2 5.2-.6 9.8-4.1 14-1.7 2-3.8 3.2-5.8 4.5-1.1.7-2.3 1.3-3.9 2.1 6 9.4 13.1 17.7 19.5 27.5zm-160.5-27.8c-1 5.4-.4 9.8-.6 14.2-.2 4.4.3 8.9-.3 13.4-3 .7-5.6.2-8.1.4-1.1-4.2-1.4-42.1-.6-66.1 5.7-.2 11.4-.6 17.1.3 1.1.2 2.3.5 3.4.6 12.4 1.2 20 16.1 13.1 28.2-2.5 4.5-6.6 6.9-11.5 9.1 5.8 9.4 13.2 17.6 19.1 27.3-4.3 1-8 .3-11.5.5-6.8-9.3-12.7-18.7-20.1-27.9zm-185.9-38.2h9.5c.8 4.2.3 8.5.4 12.7.1 4.1 0 8.2 0 13.5 9.2-9.4 17.5-17.8 25.7-26.3h13.3l-29.9 29.9c9.5 12.2 19.8 23.5 29.6 35.9-4.5.8-8.7.2-12.9.4-7.9-9.7-15.6-19.2-23.3-28.6-2.7.3-2.6 2.1-2.6 3.8v19.5c0 1.6.3 3.3-.4 5.1h-9.4v-65.9zm264.6 56.8h25.6c.8 3.2.5 6.3.3 9.5h-35.9c-.9-4-1.2-56.3-.4-65.8 4.1-.7 30.3-.8 36.3-.1v9.3h-25.5c-1.3 2.5-.6 5-.7 7.4-.1 2.5 0 5 0 7.9 4.2.7 8.4.2 12.4.3 4.1.1 8.3 0 12.6 0 .9 3.1.2 6.1.5 9.4h-25.4c.2 7.5.2 14.5.2 22.1zm-149.9 8.9c-3.7 1.4-7.1.7-10.7.4-2.4-5.3-4.7-10.6-7.1-16h-27.7c-3.6 4.7-4.8 11.1-8.4 16.2h-10c4.9-12.1 10.7-23.6 16.1-35.2 5.4-11.6 10.8-23.1 16.5-35.3 10.4 23.5 20.8 46.6 31.3 69.9zm278.7-65.6v9.3h-26.7c-.1 5.2-.1 10.1 0 15.6 8.5.4 16.9 0 25.6.3v9.2h-24.9c-.9 3.9-1 17-.2 22.2h25.5c1.3 1.6.8 3.2.8 4.6 0 1.5.3 3-.6 4.9-11.7.4-23.6.1-35.4.2-1-4.2-1.3-56.7-.5-66.4 12.1.1 24 .1 36.4.1zm-165.2-.1h9.9v65.6c-1.6 1.5-3.3.7-4.9.8-1.5.1-2.9 0-4.3 0-1.2-3.9-1.6-48.3-.7-66.4z"/><path fill="#0A130D" d="M141.7 212c0-.3-.1-.7-.1-1v-99.1c.9-1.2 1.7-1 2.5-1h45c.8 0 1.6.2 2.5.2 0 4.3.6 8.7-.1 12.9-1 6-.3 12-1.7 17.9-.7 2.8-.1 5.9-.1 8.9.1 3.8-1.8 7.4-.9 11.3-.2 5.1-.3 10.3-1.8 15.3-2.2 4-.9 8.6-2.2 12.9-1.3 4.3-1.6 8.8-2.4 13.3-.6 3.5-1.7 6.9-1.7 10.5 0 2.5-1.1 4.7-2 6.9-1.1 1-2.4 1-3.7.5-10.2-4.1-20.7-6.9-31.5-8.5-.7-.1-1.3-.6-1.8-1z"/><path fill="#030304" d="M141.7 212c6.1-.2 11.9 1 17.6 2.9 5.7 1.9 11.7 2.7 16.9 5.9.6.4 1.6.2 2.4.2 5.3 3.3 10.9 6.4 16 10.1 10.1 7.2 18.6 16.1 24.9 26.9.1.3 0 .7.1 1h-78v-26c0-7 .1-14 .1-21z"/><path fill="#1D9BD6" d="M541.7 193.6c6.4 8.9 12.8 17.7 19.6 27.1-4.3.8-8 .3-11.8.4-6.8-8.9-12.5-18.5-20-28-1.4 5.4-.6 9.8-.8 14.1-.1 4.5 0 8.9 0 13.7h-9.8V155c5.8.1 11.7-.5 17.6.5 1 .2 1.9.4 2.9.5 11.2.9 18.8 11.2 15.8 23.8-1.2 5.1-4.4 8.7-8.9 11.3-1.4.8-2.9 1.6-4.6 2.5zm-240.9-38.5h9.8v25.5h28c1.7-2.6.6-5.5.8-8.3.2-2.8 0-5.7 0-8.5v-8.7c3.1-.5 6-.3 9.1-.2v65.8h-9.1v-30.2c-5.2-1-9.8-.4-14.4-.5-4.6-.1-9.3 0-14.4 0v30.7h-9.9c.1-21.7.1-43.4.1-65.6zm203.8 25v9.6h-25.2c-.9 5.3-.8 18 .2 22.1h25.8v9h-36c-.9-3.4-1.1-58.2-.3-65.7h36.1c.9 2.9.1 6 .5 9.6h-25.9c-1.5 4.5-1.4 11.6.1 15.3 8 .1 16.1.1 24.7.1zm-100.9-25h9.2c1 .5.8 1.2.8 1.9 0 14.3-.3 28.7.1 43 .2 10-7.9 19.3-16.2 21.3-8.9 2.2-18 1.8-25.1-5.2-3.7-3.7-6.9-8-6.9-13.8v-46.5c0-.1.2-.3.4-.6h8.2c1 1.2.5 2.5.5 3.8 0 11.3.1 22.7 0 34 0 4 .7 7.9 1.9 11.7 1.6 4.8 6.1 8.1 11.2 8.4 3.7.2 7.3 0 10.4-2.4 3.6-2.8 5.4-6.5 5.4-11.1 0-9.5.1-19 .1-28.5.1-5.2 0-10.4 0-16zM187 177.5c-.5-5.2-.6-10.4 1.8-15.3 1.3-1.3 2.5-2.7 3.9-3.8 9.2-7.4 24.7-6.3 30.9 5.4.1.3.1.6.1.9-.2 1-1.1 1.3-1.8 1.6-1.8.8-3.1 2.6-5 2.8-1.8-.6-2.5-2.3-3.7-3.4-4-3.8-10.6-3.5-14.4.6-2.9 3.1-2.7 6.6.3 9.7 1.8 1.8 4.1 3 6.4 3.8 3.2 1 6 2.7 9 4 8.2 3.7 11.9 9.8 11.5 18.9-.4 8.4-5.6 16.6-13.8 18.5-11.8 2.7-19.1 1-25.2-8.3-1.8-2.8-2.3-6.1-3.4-9.3 3-2 6.3-1.8 9.7-2.8.5 1.9.9 3.6 1.5 5.3 1.7 4.9 5.7 7.3 11.3 7 4.1-.2 8.7-4.1 9.7-8.1 1.2-4.9-.7-9.4-5.1-11.9-2.1-1.2-4.3-2.5-6.6-3.3-7.1-2.4-13-6.1-17.1-12.3zm99.3-17.9v9.7c-1.3 1-1.9-.2-2.6-.7-3.7-3.1-8.2-4.6-12.7-5.2-7.8-1.1-14.9 1.2-19.9 7.6-3.9 4.8-6.1 10.6-6.3 16.8-.2 4.8 1.5 9.4 3.7 13.7 6.7 13.4 24 14.9 35 6.4.8-.6 1.5-1.2 2.5-2 1 2.1.4 3.9.5 5.7.1 1.7 0 3.3 0 5-2.1 3-5.3 4.1-8.5 4.8-6.5 1.5-13.2 1.5-19.7.1-6.3-1.4-10.8-5.6-14.9-10.1-8.6-9.3-10.6-20.4-7.4-32.2 1.6-5.8 5.1-11 9.5-15.5 4.7-4.8 10-8.2 16.5-9.1 7.1-1 14.2-.6 20.9 2.5 1.4.3 2.7 1 3.4 2.5zm144.5-4.4h8.8v56.6h19.7v9.1h-28.5v-65.7zm-28.8-7.3c-2 .2-3.8.3-5.5 0-2.6-1.1-2.8-3.6-3.7-5.9.7-1.5 1.4-3.1 2.1-4.5 6.6-2.1 7.1-2 10.5 3.5.5 3-1 5-3.4 6.9zm-16.5-2.7c-.7 1.2-1.6 2.1-2.9 2.7-1.8.2-3.6.4-5.4 0-4.1-3.7-4.3-4.7-2.1-9.8 4.8-2.9 6.2-2.7 10.2 1.3.6 1.9.5 3.9.2 5.8z"/><path fill="#1D1E1B" d="M705 164.8c4.2-1 7.6-.2 11 .6 3.6.9 6.4 4.7 6.6 8.5.3 4.5-2.1 8.7-6.3 10.3-3.4 1.2-7 1.9-10.9 1.2-.9-3.5-.3-6.9-.4-10.4-.1-3.3 0-6.6 0-10.2zm180.9-.1c4-.8 7.5 0 10.8.7 3.3.7 6.5 5.2 6.6 8.7.1 4.3-1.7 7.9-5.6 9.8-3.6 1.7-7.6 1.9-11.7 1.5-.1-7.1-.1-13.7-.1-20.7zm-128.5 0c3.8-.9 7.2-.1 10.6.7 3.8.9 6.3 4.5 6.6 8.5.3 5-1.7 8.6-6.1 10.3-3.4 1.3-7 1.9-10.6 1.3-1.2-3.5-1.4-14.3-.5-20.8zm-102.5 8.5c3.5 7.9 6.5 15 9.9 22.7h-19.9c2.8-7.9 6.7-14.7 10-22.7z"/><path fill="#09111E" d="M528.8 184.7v-19.5c6.4-.3 12.9-1.6 16.7 5.8.2 2.7.2 5.5-.1 8.3-3.5 5.2-5.9 6.7-16.6 5.4z"/><path fill="#2482FF" d="M1241.6 111H2156v148h-914.4z"/><path d="M1268.3 137.6h25.3v61h-25.3zm69.4 64.2h25.3v30.5h-25.3zm-69.4 6.1h25.3v24.4h-25.3zm35.3-70.3h25.3v30.5h-25.3zm0 39.8h25.3v54.9h-25.3zm34.1-39.8h25.3v54.9h-25.3zm134.7 18l-22.9 56.3h-7.5l-22.9-56.3h6.7c.7 0 1.3.2 1.8.5.5.4.8.8 1 1.4l15.2 38.3c.4.9.7 2 1.1 3.1.4 1.1.7 2.3 1 3.5.3-1.2.5-2.4.9-3.5s.7-2.2 1-3.1l15.2-38.3c.2-.5.5-1 1-1.4.5-.4 1.1-.6 1.8-.6h6.6zm32.2 50.6c-.9 1.1-2 2-3.3 2.8-1.2.8-2.5 1.4-3.9 1.9s-2.8.9-4.3 1.1-2.9.4-4.4.4c-2.7 0-5.3-.5-7.6-1.4-2.3-.9-4.4-2.3-6.1-4.1-1.7-1.8-3-4-4-6.7s-1.4-5.7-1.4-9.2c0-2.8.4-5.4 1.3-7.7.9-2.4 2.1-4.5 3.7-6.3 1.6-1.8 3.6-3.2 5.9-4.2 2.3-1 4.9-1.5 7.8-1.5 2.4 0 4.7.4 6.7 1.2 2.1.8 3.8 2 5.3 3.5s2.7 3.4 3.5 5.6c.8 2.2 1.3 4.8 1.3 7.6 0 1.2-.1 2-.4 2.4s-.7.6-1.5.6h-26.1c.1 2.4.4 4.5 1 6.2s1.4 3.2 2.5 4.4c1.1 1.2 2.3 2.1 3.8 2.6 1.5.6 3.1.9 4.9.9 1.7 0 3.2-.2 4.4-.6s2.3-.8 3.2-1.3c.9-.5 1.7-.9 2.3-1.3.6-.4 1.2-.6 1.6-.6.6 0 1.1.2 1.5.7l2.3 3zm-6.3-18.7c0-1.5-.2-2.9-.6-4.2-.4-1.3-1.1-2.4-1.9-3.3s-1.9-1.7-3.1-2.2c-1.2-.5-2.6-.8-4.2-.8-3.2 0-5.7.9-7.6 2.8-1.8 1.9-3 4.4-3.5 7.7h20.9zm22.3-7.8c1.3-2.6 2.8-4.7 4.6-6.2 1.8-1.5 4-2.2 6.5-2.2.9 0 1.7.1 2.5.3.8.2 1.4.5 2 .9l-.5 5.8c-.2.7-.6 1.1-1.3 1.1-.4 0-.9-.1-1.6-.2-.7-.1-1.5-.2-2.4-.2-1.2 0-2.3.2-3.3.5s-1.8.9-2.5 1.6-1.4 1.5-2 2.5c-.6 1-1.1 2.2-1.6 3.4v24.9h-7.6V172h4.4c.8 0 1.4.2 1.7.5.3.3.5.8.6 1.6l.5 5.6zm34 32.8c-3.2 0-5.7-.9-7.4-2.7-1.7-1.8-2.6-4.4-2.6-7.7v-23.8h-4.6c-.4 0-.8-.1-1.1-.4s-.5-.7-.5-1.2v-3.1l6.5-.9 1.7-11.9c.1-.4.3-.8.6-1 .3-.2.7-.4 1.2-.4h3.9v13.4h11.3v5.6h-11.3v23.3c0 1.6.4 2.7 1.2 3.5.8.8 1.8 1.2 3 1.2.7 0 1.3-.1 1.8-.3s.9-.4 1.3-.6c.4-.2.7-.4.9-.6s.5-.3.7-.3c.3 0 .5.1.6.2.1.1.3.3.5.6l2.3 3.7c-1.3 1.2-2.7 2-4.5 2.7-1.8.4-3.6.7-5.5.7zm23.1-32.8c1.3-2.6 2.8-4.7 4.6-6.2 1.8-1.5 4-2.2 6.5-2.2.9 0 1.7.1 2.5.3.8.2 1.4.5 2 .9l-.5 5.8c-.2.7-.6 1.1-1.3 1.1-.4 0-.9-.1-1.6-.2-.7-.1-1.5-.2-2.4-.2-1.2 0-2.3.2-3.3.5s-1.8.9-2.5 1.6-1.4 1.5-2 2.5c-.6 1-1.1 2.2-1.6 3.4v24.9h-7.6V172h4.4c.8 0 1.4.2 1.7.5.3.3.5.8.6 1.6l.5 5.6zm52.8 26.5c-.9 1.1-2 2-3.3 2.8-1.2.8-2.5 1.4-3.9 1.9s-2.8.9-4.3 1.1-2.9.4-4.4.4c-2.7 0-5.3-.5-7.6-1.4-2.3-.9-4.4-2.3-6.1-4.1-1.7-1.8-3-4-4-6.7s-1.4-5.7-1.4-9.2c0-2.8.4-5.4 1.3-7.7.9-2.4 2.1-4.5 3.7-6.3 1.6-1.8 3.6-3.2 5.9-4.2 2.3-1 4.9-1.5 7.8-1.5 2.4 0 4.7.4 6.7 1.2 2.1.8 3.8 2 5.3 3.5s2.7 3.4 3.5 5.6c.8 2.2 1.3 4.8 1.3 7.6 0 1.2-.1 2-.4 2.4s-.7.6-1.5.6H1603c.1 2.4.4 4.5 1 6.2s1.4 3.2 2.5 4.4c1.1 1.2 2.3 2.1 3.8 2.6 1.5.6 3.1.9 4.9.9 1.7 0 3.2-.2 4.4-.6s2.3-.8 3.2-1.3c.9-.5 1.7-.9 2.3-1.3.6-.4 1.2-.6 1.6-.6.6 0 1.1.2 1.5.7l2.3 3zm-6.3-18.7c0-1.5-.2-2.9-.6-4.2-.4-1.3-1.1-2.4-1.9-3.3s-1.9-1.7-3.1-2.2c-1.2-.5-2.6-.8-4.2-.8-3.2 0-5.7.9-7.6 2.8-1.8 1.9-3 4.4-3.5 7.7h20.9zm27.3 25c-3.2 0-5.7-.9-7.4-2.7-1.7-1.8-2.6-4.4-2.6-7.7v-23.8h-4.6c-.4 0-.8-.1-1.1-.4s-.5-.7-.5-1.2v-3.1l6.5-.9 1.7-11.9c.1-.4.3-.8.6-1 .3-.2.7-.4 1.2-.4h3.9v13.4h11.3v5.6h-11.3v23.3c0 1.6.4 2.7 1.2 3.5.8.8 1.8 1.2 3 1.2.7 0 1.3-.1 1.8-.3s.9-.4 1.3-.6c.4-.2.7-.4.9-.6s.5-.3.7-.3c.3 0 .5.1.6.2.1.1.3.3.5.6l2.3 3.7c-1.3 1.2-2.7 2-4.5 2.7-1.9.4-3.7.7-5.5.7zm49-40.5v39.8h-4.6c-1 0-1.7-.5-2-1.5l-.5-4c-.9.9-1.8 1.8-2.7 2.5-.9.8-1.9 1.4-3 1.9s-2.2 1-3.4 1.3c-1.2.3-2.5.5-3.9.5-2.2 0-4.1-.4-5.8-1.1-1.7-.7-3.1-1.8-4.2-3.1s-2-2.9-2.5-4.8c-.6-1.9-.9-3.9-.9-6.2V172h7.7v25.4c0 2.9.7 5.1 2 6.6 1.3 1.6 3.3 2.4 6 2.4 2 0 3.8-.5 5.5-1.4 1.7-.9 3.3-2.2 4.8-3.8V172h7.5zm17.9 5.6c.9-.9 1.8-1.8 2.7-2.5.9-.8 1.9-1.4 3-1.9s2.2-1 3.4-1.3c1.2-.3 2.5-.5 3.9-.5 2.2 0 4.1.4 5.8 1.1 1.7.7 3.1 1.8 4.2 3.1s2 2.9 2.5 4.8c.6 1.9.9 3.9.9 6.2V212h-7.7v-25.4c0-2.8-.7-5.1-2-6.6s-3.3-2.4-6-2.4c-2 0-3.8.5-5.5 1.4-1.7.9-3.3 2.2-4.8 3.8V212h-7.6v-40h4.6c1.1 0 1.7.5 2 1.5l.6 4.1zm70.7-4.1v2.9c0 .9-.6 1.5-1.8 1.8l-4.3.6c.4.8.7 1.7.9 2.6.2.9.3 1.9.3 2.8 0 2-.4 3.7-1.1 5.3-.8 1.6-1.8 2.9-3.1 4.1-1.3 1.1-2.9 2-4.8 2.6-1.8.6-3.9.9-6.1.9-1.8 0-3.5-.2-5.1-.6-.8.5-1.4 1-1.8 1.5-.4.6-.6 1.1-.6 1.7 0 .9.4 1.6 1.2 2 .8.4 1.8.8 3 1s2.7.3 4.3.4c1.6.1 3.2.1 4.9.3 1.7.1 3.3.3 4.9.6 1.6.3 3 .8 4.3 1.5 1.2.7 2.2 1.6 3 2.7s1.2 2.7 1.2 4.5c0 1.7-.4 3.4-1.3 5s-2.1 3.1-3.7 4.3c-1.6 1.3-3.6 2.3-5.9 3-2.3.8-5 1.1-7.9 1.1-3 0-5.5-.3-7.7-.9-2.2-.6-4-1.3-5.5-2.3-1.5-1-2.5-2.1-3.3-3.4-.7-1.3-1.1-2.6-1.1-4 0-1.9.6-3.6 1.8-4.9 1.2-1.3 2.9-2.4 5-3.2-1.2-.5-2.1-1.2-2.7-2.1-.7-.9-1-2.1-1-3.6 0-.6.1-1.2.3-1.8.2-.6.5-1.2 1-1.8s1-1.2 1.6-1.7c.6-.5 1.4-1 2.2-1.5-2-1.1-3.5-2.6-4.6-4.4-1.1-1.8-1.7-3.9-1.7-6.4 0-2 .4-3.7 1.1-5.3.8-1.6 1.8-2.9 3.2-4 1.3-1.1 3-2 4.8-2.6 1.9-.6 3.9-.9 6.1-.9 3.5 0 6.4.7 8.9 2.2h11.1zm-7.8 40.5c0-.9-.3-1.7-.8-2.3-.5-.6-1.2-1-2.1-1.3s-2-.6-3.2-.7c-1.2-.1-2.5-.3-3.8-.3-1.3-.1-2.7-.2-4.1-.2-1.4-.1-2.7-.2-4-.4-1.4.7-2.5 1.5-3.4 2.5s-1.3 2.1-1.3 3.4c0 .8.2 1.6.6 2.4.4.7 1.1 1.4 2 1.9.9.5 2 1 3.4 1.3 1.4.3 3 .5 4.9.5 1.9 0 3.5-.2 5-.5 1.4-.3 2.6-.8 3.6-1.4 1-.6 1.7-1.3 2.2-2.1.8-1 1-1.9 1-2.8zm-12.2-22c1.4 0 2.6-.2 3.6-.5s1.9-.9 2.6-1.5c.7-.7 1.2-1.5 1.6-2.4.4-.9.5-2 .5-3.1 0-2.3-.7-4.1-2.1-5.5-1.4-1.4-3.5-2.1-6.2-2.1s-4.7.7-6.1 2.1c-1.4 1.4-2.1 3.2-2.1 5.5 0 1.1.2 2.2.5 3.1.4.9.9 1.7 1.6 2.4.7.7 1.6 1.2 2.6 1.6 1 .2 2.2.4 3.5.4zm50.5-13.1c-.2.3-.4.6-.7.7-.2.1-.5.2-.9.2s-.9-.1-1.4-.4c-.5-.3-1.1-.6-1.8-.9-.7-.3-1.6-.7-2.5-.9-1-.3-2.1-.4-3.5-.4-1.1 0-2.1.1-3 .4-.9.3-1.7.7-2.3 1.1-.6.5-1.1 1.1-1.5 1.7-.3.7-.5 1.4-.5 2.1 0 1 .3 1.8.9 2.5.6.7 1.4 1.2 2.3 1.7 1 .5 2 .9 3.3 1.3s2.5.8 3.7 1.2c1.3.4 2.5.9 3.7 1.4 1.2.5 2.3 1.2 3.3 2s1.7 1.8 2.3 2.9c.6 1.1.9 2.5.9 4.1 0 1.9-.3 3.6-1 5.2s-1.6 2.9-2.9 4.1c-1.3 1.2-2.9 2.1-4.8 2.7-1.9.7-4.1 1-6.5 1-2.7 0-5.3-.5-7.6-1.4s-4.3-2.1-5.8-3.5l1.8-2.9c.2-.4.5-.6.8-.8.3-.2.7-.3 1.3-.3.5 0 1 .2 1.5.5.5.4 1.2.8 1.9 1.2.7.4 1.6.8 2.7 1.2 1 .4 2.4.5 3.9.5 1.3 0 2.4-.2 3.4-.5s1.8-.8 2.4-1.3c.6-.6 1.1-1.2 1.4-1.9.3-.7.5-1.5.5-2.3 0-1-.3-1.9-.9-2.6-.6-.7-1.4-1.3-2.3-1.8-1-.5-2-.9-3.3-1.3-1.2-.4-2.5-.8-3.8-1.2-1.3-.4-2.5-.9-3.8-1.5-1.2-.5-2.3-1.2-3.3-2.1-1-.8-1.7-1.9-2.3-3.1-.6-1.2-.9-2.7-.9-4.4 0-1.5.3-3 1-4.4.6-1.4 1.6-2.7 2.8-3.7 1.2-1.1 2.7-1.9 4.5-2.6 1.8-.6 3.8-1 6.1-1 2.6 0 5 .4 7.2 1.3 2.1.8 4 2 5.5 3.5l-1.8 2.7zm17.8-.9c.8-1 1.7-1.9 2.7-2.7 1-.8 2-1.5 3.1-2.1 1.1-.6 2.3-1 3.5-1.4 1.2-.3 2.6-.5 4-.5 2.3 0 4.3.4 6.2 1.3 1.8.9 3.4 2.2 4.7 3.9 1.3 1.7 2.3 3.9 3 6.4.7 2.5 1.1 5.5 1.1 8.7 0 3-.4 5.7-1.2 8.2s-1.9 4.7-3.4 6.6-3.3 3.3-5.4 4.4c-2.1 1.1-4.5 1.6-7.2 1.6-2.4 0-4.4-.4-6.1-1.2-1.7-.8-3.2-1.9-4.5-3.3v17.3h-7.6V172h4.6c1.1 0 1.7.5 2 1.5l.5 4.5zm.4 24.1c1.3 1.6 2.6 2.8 4.1 3.5s3.1 1 4.9 1c3.5 0 6.2-1.3 8.1-3.8 1.9-2.5 2.9-6.2 2.9-11 0-2.5-.2-4.7-.6-6.5-.4-1.8-1.1-3.3-1.9-4.4-.8-1.1-1.8-2-3-2.5s-2.6-.8-4.1-.8c-2.2 0-4.2.5-5.8 1.5-1.6 1-3.1 2.4-4.5 4.2v18.8zm44.3-48.1v57.9h-7.7V154h7.7zm9.9 23.6c2.2-2.1 4.6-3.7 7.2-4.7 2.6-1 5.5-1.6 8.6-1.6 2.3 0 4.3.4 6 1.1 1.8.7 3.2 1.8 4.4 3.1 1.2 1.3 2.1 2.9 2.7 4.8.6 1.9.9 3.9.9 6.2v25.4h-3.4c-.8 0-1.3-.1-1.7-.4-.4-.2-.7-.7-.9-1.4l-.8-3.5c-1 .9-2 1.8-3 2.5s-2 1.3-3.1 1.8-2.2.9-3.5 1.2c-1.2.3-2.6.4-4.1.4-1.6 0-3-.2-4.4-.6s-2.6-1.1-3.6-2c-1-.9-1.8-2-2.4-3.3-.6-1.3-.9-2.9-.9-4.7 0-1.6.4-3.1 1.3-4.5s2.2-2.8 4.2-3.9c1.9-1.2 4.4-2.1 7.5-2.8 3.1-.7 6.9-1.2 11.4-1.3v-2.9c0-3-.6-5.3-1.9-6.7-1.3-1.5-3.2-2.2-5.6-2.2-1.7 0-3.1.2-4.2.6-1.1.4-2.1.9-2.9 1.4-.8.5-1.5 1-2.2 1.4-.6.4-1.2.6-1.9.6-.5 0-1-.1-1.4-.4-.4-.3-.7-.6-.9-1l-1.4-2.6zm22.4 16.6c-3.1.1-5.8.3-7.9.7-2.2.4-3.9.9-5.3 1.5s-2.3 1.4-2.9 2.2c-.6.8-.9 1.8-.9 2.8 0 1 .2 1.9.5 2.6.3.7.8 1.3 1.3 1.8.6.5 1.2.8 2 1 .8.2 1.6.3 2.5.3 1.2 0 2.3-.1 3.2-.4s1.9-.6 2.8-1c.9-.4 1.7-1 2.5-1.6.8-.6 1.6-1.3 2.3-2.2v-7.7zm25-16.6c.9-.9 1.8-1.8 2.7-2.5.9-.8 1.9-1.4 3-1.9s2.2-1 3.4-1.3c1.2-.3 2.5-.5 3.9-.5 2.2 0 4.1.4 5.8 1.1 1.7.7 3.1 1.8 4.2 3.1s2 2.9 2.5 4.8c.6 1.9.9 3.9.9 6.2V212h-7.7v-25.4c0-2.8-.7-5.1-2-6.6s-3.3-2.4-6-2.4c-2 0-3.8.5-5.5 1.4-1.7.9-3.3 2.2-4.8 3.8V212h-7.6v-40h4.6c1.1 0 1.7.5 2 1.5l.6 4.1zm35.4 29.7c0-.7.1-1.4.4-2 .3-.6.6-1.2 1.1-1.6.5-.5 1-.8 1.6-1.1.6-.3 1.3-.4 2-.4s1.4.1 2 .4c.6.3 1.2.6 1.6 1.1s.8 1 1.1 1.6c.3.6.4 1.3.4 2s-.1 1.4-.4 2c-.3.6-.6 1.2-1.1 1.6s-1 .8-1.6 1.1c-.6.3-1.3.4-2 .4s-1.4-.1-2-.4c-.6-.3-1.2-.6-1.6-1.1-.5-.5-.8-1-1.1-1.6-.2-.6-.4-1.3-.4-2zm19.8 4.6V172h4.6c1.1 0 1.7.5 2 1.5l.5 3.8c1.5-1.8 3.1-3.2 4.9-4.3 1.8-1.1 3.9-1.7 6.3-1.7 2.6 0 4.8.7 6.4 2.2s2.8 3.4 3.6 5.9c.6-1.4 1.3-2.6 2.2-3.6.9-1 1.9-1.9 3.1-2.5 1.1-.7 2.3-1.1 3.6-1.5s2.6-.5 3.9-.5c2.1 0 4 .3 5.7 1 1.7.7 3.1 1.6 4.2 2.9 1.2 1.3 2 2.9 2.6 4.7.6 1.9.9 4 .9 6.4v25.4h-7.7v-25.4c0-3-.6-5.2-1.9-6.7-1.3-1.5-3.2-2.3-5.7-2.3-1.1 0-2.1.2-3.1.6-1 .4-1.9.9-2.6 1.7-.7.8-1.3 1.7-1.8 2.8-.4 1.1-.6 2.4-.6 3.9v25.4h-7.7v-25.4c0-3.1-.6-5.4-1.8-6.8-1.2-1.5-3-2.2-5.4-2.2-1.6 0-3.2.4-4.6 1.3-1.4.9-2.7 2-3.9 3.5v29.6h-7.7zm97.6-5.7c-.9 1.1-2 2-3.3 2.8-1.2.8-2.5 1.4-3.9 1.9s-2.8.9-4.3 1.1-2.9.4-4.4.4c-2.7 0-5.3-.5-7.6-1.4-2.3-.9-4.4-2.3-6.1-4.1-1.7-1.8-3-4-4-6.7s-1.4-5.7-1.4-9.2c0-2.8.4-5.4 1.3-7.7.9-2.4 2.1-4.5 3.7-6.3 1.6-1.8 3.6-3.2 5.9-4.2 2.3-1 4.9-1.5 7.8-1.5 2.4 0 4.7.4 6.7 1.2 2.1.8 3.8 2 5.3 3.5s2.7 3.4 3.5 5.6c.8 2.2 1.3 4.8 1.3 7.6 0 1.2-.1 2-.4 2.4s-.7.6-1.5.6h-26.1c.1 2.4.4 4.5 1 6.2s1.4 3.2 2.5 4.4c1.1 1.2 2.3 2.1 3.8 2.6 1.5.6 3.1.9 4.9.9 1.7 0 3.2-.2 4.4-.6s2.3-.8 3.2-1.3c.9-.5 1.7-.9 2.3-1.3.6-.4 1.2-.6 1.6-.6.6 0 1.1.2 1.5.7l2.3 3zm-6.4-18.7c0-1.5-.2-2.9-.6-4.2-.4-1.3-1.1-2.4-1.9-3.3s-1.9-1.7-3.1-2.2c-1.2-.5-2.6-.8-4.2-.8-3.2 0-5.7.9-7.6 2.8-1.8 1.9-3 4.4-3.5 7.7h20.9z" fill="#FFF"/><path fill="#2482FF" d="M1188.7 190.1h-48.5v51.5h-25.1v-51.5h-48.3v-22.9h48.3V116h25.1v51.3h48.5v22.8z"/></svg>