<?xml version="1.0" encoding="utf-8"?>
<!-- Generator: Adobe Illustrator 16.0.3, SVG Export Plug-In . SVG Version: 6.00 Build 0)  -->
<!DOCTYPE svg PUBLIC "-//W3C//DTD SVG 1.1//EN" "http://www.w3.org/Graphics/SVG/1.1/DTD/svg11.dtd">
<svg version="1.1" id="Ebene_1" xmlns="http://www.w3.org/2000/svg" xmlns:xlink="http://www.w3.org/1999/xlink" x="0px" y="0px"
	 width="48px" height="48px" viewBox="173 25.555 48 48" enable-background="new 173 25.555 48 48" xml:space="preserve">
<g>
	<polyline fill="none" stroke="#FFFFFF" stroke-width="2.5" stroke-miterlimit="10" points="174.442,50.641 190.564,50.641 
		192.368,47.418 195.256,47.418 195.256,44.652 199.106,44.652 199.106,47.392 201.873,47.418 204.038,50.641 219.319,50.641 	"/>
	
		<line fill="none" stroke="#FFFFFF" stroke-width="2.5" stroke-miterlimit="10" x1="197.361" y1="44.652" x2="197.361" y2="35.387"/>
</g>
<g>
	<path fill="#FFFFFF" d="M191.486,55.971h1.835v6.549h3.214v1.535h-5.049V55.971z"/>
	<path fill="#FFFFFF" d="M197.678,62.172c0.491,0.252,1.246,0.504,2.026,0.504c0.839,0,1.283-0.348,1.283-0.876
		c0-0.504-0.384-0.791-1.354-1.14c-1.344-0.468-2.219-1.211-2.219-2.387c0-1.379,1.151-2.435,3.058-2.435
		c0.911,0,1.583,0.192,2.063,0.408l-0.408,1.476c-0.324-0.156-0.9-0.385-1.691-0.385s-1.176,0.36-1.176,0.78
		c0,0.516,0.457,0.743,1.5,1.14c1.427,0.527,2.099,1.271,2.099,2.41c0,1.355-1.044,2.507-3.263,2.507
		c-0.923,0-1.834-0.24-2.291-0.492L197.678,62.172z"/>
</g>
</svg>
