<svg id="svg2" xmlns="http://www.w3.org/2000/svg" viewBox="0 0 147.4 30"><style>.st0{fill:none;} .st1{fill:#FFFFFF;} .st2{fill:#FF0000;}</style><g id="text4167"><path id="path4532" class="st1" d="M43.1 3.63c.86 0 1.82 0 2.8.08.95 0 2 .2 2.96.4s1.93.6 2.8 1.1c.88.5 1.66 1.2 2.36 2 .7.9 1.23 1.9 1.67 3.3.4 1.3.6 2.9.6 4.8s-.2 3.5-.6 4.8c-.5 1.3-1 2.4-1.7 3.2s-1.5 1.5-2.4 1.9c-.9.46-1.9.8-2.8 1.07-1 .18-2 .35-3 .35h-6.4v-23H43zM45 23.05c.9 0 1.76-.1 2.64-.26.96-.2 1.83-.6 2.53-1.1.8-.6 1.4-1.4 1.93-2.5.52-1.1.8-2.5.8-4.3 0-1.2-.1-2.2-.36-3.1-.27-.9-.53-1.6-.97-2.2-.35-.6-.87-1.1-1.4-1.4-.52-.4-1.05-.6-1.66-.9-.6-.2-1.1-.4-1.7-.5s-1.2-.1-1.7-.1h-2.2V23h2.2z"/><path id="path4534" class="st1" d="M73.36 26.38l-1.3-3.07h-10.6l-1.3 3.1h-3.42L66.7 3.7l10 22.75h-3.34zm-10.5-6.48h7.7l-3.85-9c0 .08-3.8 9-3.8 9z"/><path id="path4536" class="st1" d="M92.1 3.63l-10 22.75-9.96-22.75h4.1L82.12 17 88 3.63h4.1z"/><path id="path4538" class="st1" d="M98.83 3.63v22.75H95.5V3.63h3.32z"/><path id="path4540" class="st1" d="M102.15 3.63l13.47 14.34V3.63h3.33v22.75L105.4 12.54v13.82h-3.34l.1-22.75z"/><path id="path4542" class="st1" d="M139.7 24.45c-.97.6-1.94 1.05-2.64 1.3-.8.27-1.57.45-2.45.54-1.6.1-3.3 0-4.8-.6-1.5-.5-2.8-1.3-4-2.4-1.1-1.1-2-2.3-2.7-3.7-.6-1.5-.9-3-.9-4.6 0-1.6.3-3.1.9-4.6.6-1.4 1.5-2.8 2.5-3.8 1.2-1.1 2.4-1.9 3.9-2.5 1.5-.6 3.2-.8 5-.7.7 0 1.4.2 2 .3.6.14 1.3.4 1.8.7l-1.5 2.94c-.7-.34-1.2-.5-1.7-.6-.4-.1-.9-.1-1.5-.1-1.03 0-2.1.27-3.04.7-1 .45-1.85 1.06-2.55 1.76s-1.3 1.56-1.73 2.53c-.42.92-.6 2-.6 3.02 0 1 .27 2.1.7 3.02.44.94 1.06 1.8 1.76 2.5.78.7 1.57 1.3 2.5 1.75.98.5 1.9.6 3 .6h1.04c.37 0 .7-.02 1.07-.1.35-.1.7-.28 1.05-.46.32-.18.8-.35 1.2-.6.1.1 2 2.7 2 2.7z"/><path id="path4544" class="st1" d="M146.42 3.63v22.75h-3.32V3.63h3.33z"/></g><g id="g4261"><path id="path4138-0-1-4-8" class="st2" d="M14.97 1.02v2.63c6.3 0 11.37 5.07 11.37 11.37S21.27 26.4 14.97 26.4 3.6 21.32 3.6 15.02H.96c0 7.7 6.3 14 14 14s14-6.3 14-14c0-7.8-6.22-14-14-14z"/><path id="path4278-8-3-0-5" class="st2" d="M16.72 15.02c0 .96-.8 1.75-1.75 1.75s-1.75-.8-1.75-1.75.78-1.75 1.75-1.75 1.75.8 1.75 1.75z"/><path id="rect6064-1-6-4" class="st2" d="M14.1 5.4h1.74v6.12H14.1V5.4z"/><path id="rect6064-1-6-0" class="st2" d="M23.8 19.05l-.87 1.48-5.34-3.06.8-1.5 5.3 3.08z"/></g></svg>