<svg id="svg2" xmlns="http://www.w3.org/2000/svg" viewBox="0 0 171.7 30"><style>.st0{fill:#FFFFFF;} .st1{fill:#828282;}</style><path class="st0" d="M44.9 26.4h-5.3V3.7h5.3v22.7zm36.2-13.3c0 2.9-1.7 4.4-5.1 4.4H61.7v8.8h-5.2V3.7H76c3.4 0 5.1 1.5 5.1 4.4v5zM76 11.8V9.4c0-.8-.2-1.3-.7-1.5-.3-.2-.9-.3-1.7-.3H61.7v6h11.9c.8 0 1.4-.1 1.7-.3.5-.2.7-.7.7-1.5zm40.3 14.6H111v-9.8H94.5v9.8h-5.3V3.7h5.3v8.8H111V3.7h5.3v22.7zm16.9 0h-5.3V3.7h5.3v22.7zm36.3-5.4c0 2.1-.4 3.5-1.2 4.3-.8.7-2.3 1.1-4.4 1.1h-14c-2.3 0-3.8-.4-4.6-1.2-.7-.8-1.1-2.4-1.1-4.8l4.7-1v2.7H165v-5.2h-14.2c-2.1 0-3.6-.4-4.4-1.1-.8-.7-1.2-2.2-1.2-4.3V9c0-2.1.4-3.5 1.2-4.3.8-.7 2.3-1.1 4.4-1.1h12.9c2.2 0 3.7.4 4.4 1.1s1.2 2.2 1.2 4.3l-4.7 1.1V7.6h-14.9v4.9h14.2c2.1 0 3.6.4 4.4 1.1.8.7 1.2 2.2 1.2 4.3V21zM17.6 1h-5.2L9.7 5.6l2.7 4.5h5.2l2.7-4.5zm8.3 4.7h-5.3L18 10.3l2.6 4.6h5.3l2.6-4.6zm-16.5 0H4.1l-2.6 4.6 2.6 4.6h5.3l2.6-4.6z"/><path class="st1" d="M17.6 29h-5.2l-2.7-4.6 2.7-4.5h5.2l2.7 4.5z"/><path class="st0" d="M25.9 24.3h-5.3L18 19.7l2.6-4.6h5.3l2.6 4.6zm-16.5 0H4.1l-2.6-4.6 2.6-4.6h5.3l2.6 4.6z"/></svg>