<svg id="svg2" xmlns="http://www.w3.org/2000/svg" viewBox="0 0 217.3 35"><style>.st0{fill:#4D4D4D;} .st1{fill:#FFFFFF;} .st2{fill:#E74C3C;}</style><path class="st0" d="M6.3 29c-2.4-.5-4.4-2.7-5.1-5.6-.1-.6-.2-1.2-.2-8.3 0-8.6 0-8.2.7-10 .7-1.6 2-3 3.5-3.7l.8-.3h16.6c18.7 0 17.4-.1 18.8.8.6.4 1 .7 1.6 1.4.7.8.9 1.1 1.2 2 .7 1.8.7 1.7.7 10.3v7.5l-.2.8c-.7 2.4-2.2 4.2-4.2 5l-.8.2H23.2c-9 0-16.6 0-16.9-.1zm32.1-2.4c1.1-.1 1.8-.4 2.5-1.1.6-.6 1.1-1.3 1.4-2.2l.2-.6v-7.5c0-6.6 0-7.5-.1-8.1-.4-1.7-1.6-3.1-3-3.5-.4-.1-2.1-.1-16.3-.1-17.5 0-16.5 0-17.6.7-.6.4-1.3 1.2-1.6 1.9-.5 1.1-.5.8-.5 8.5 0 4.5 0 7.4.1 7.9.3 2.1 1.8 3.9 3.6 4.1.8.1 30.2.1 31.3 0z"/><path class="st1" d="M9.3 26.6c-2.1 0-2.5-.1-2.9-.2-1.3-.5-2.4-1.8-2.8-3.4-.1-.5-.1-1.1-.1-7.7 0-7.7 0-8.1.4-9 .4-1 1.3-2 2.1-2.4.7-.3.8-.3 17.3-.3h15.8l.5.2c1.2.6 2 1.5 2.6 3 .2.5.2.5.2 8.2v7.7l-.2.6c-.4 1.2-1.2 2.2-2 2.7s-1 .5-3.9.6c-3.1.1-23.2.1-27 0z"/><path class="st2" d="M24.4 12.3c-2.8 0-5 2-5 4.5 0 1.1.2 2.2.7 3 .4.7-.4 1.6-1 2.2-.4.5-.8.8-.7 1.1 0 .1.1.2.3.3.2.1.5.1.7.1.8 0 1.5-.3 2.1-.9.6-.7.9-1.7.8-2.9 0-.3 0-.6.2-.7.1-.1.2-.1.3-.1.5 0 1.4.9 1.6 3.5.1 1.7 1.7 2.5 4.5 2.5 0 0 .2 0 .3-.1.1-.2-.2-.4-.8-.9-.6-.5-1.4-1.2-1.4-1.6 0-.1.1-.2.2-.3.4-.2.7-.5.7-.8 0-.2-.1-.5-.3-.7-.1-.1-.4-.3-.8-.6-.6-.4-1.5-1-1.6-1.4h4.2v-1.6c0-2.6-2.2-4.6-5-4.6zm-2 5.5c-.3 0-.6-.3-.6-.6s.3-.6.6-.6.6.3.6.6-.3.6-.6.6zm5.5-.1h-3.6c-.3 0-.5-.2-.5-.5s.2-.5.5-.5h3.6c.3 0 .5.2.5.5s-.2.5-.5.5zm-5.7-7h-.1c-1.1.3-2.1.9-2.8 1.8v.1s0 .1.1.1c.4.1.7.2 1.1.5h.2c.5-.4 1.1-.8 1.7-1 .1 0 .1-.1.1-.1-.1-.4-.1-.8-.1-1.2l-.2-.2z"/><path class="st2" d="M29.5 7.5c-1.8-1.4-4-2.1-6.2-2.1C17.6 5.4 13 10 13 15.7c0 1.3.2 2.5.7 3.7 0 .1.1.1.2.1s4.1-1.6 4.1-1.6c.1 0 .1-.1.1-.2-.2-.6-.4-1.3-.4-2 0-3.1 2.5-5.6 5.6-5.6 1.2 0 2.4.4 3.4 1.2h.2l2.7-3.5c0-.1 0-.1-.1-.3.1.1 0 .1 0 0z"/><path class="st1" d="M56.9 24.7h10.4v1.4h-12v-21H57c-.1.1-.1 19.6-.1 19.6zm19.3 1.8c-1.9 0-3.6-.8-4.9-2.2-1.3-1.4-1.9-3.2-1.9-5.5V18c0-2.2.6-4.1 1.9-5.5 1.3-1.4 2.8-2.2 4.6-2.2 1.9 0 3.5.6 4.5 1.8s1.7 2.8 1.7 4.9v1.4h-11v.4c0 1.8.5 3.2 1.4 4.4.9 1.2 2.2 1.8 3.7 1.8 1 0 2.1-.1 2.7-.4.8-.3 1.4-.8 1.9-1.3l.8 1.2c-.6.6-1.3 1.2-2.2 1.4-.9.5-2 .6-3.2.6zM76 11.7c-1.3 0-2.3.5-3.2 1.4s-1.4 2.2-1.5 3.7v.2h9.1v-.4c0-1.4-.4-2.4-1.2-3.3-.8-1.1-1.8-1.6-3.2-1.6zm8.8 6.8c0-2.4.5-4.5 1.5-6s2.6-2.2 4.5-2.2c1.2 0 2.1.3 2.8.8.8.5 1.4 1.2 2.1 2.1l.3-2.4h1.4v15.4c0 2.1-.5 3.6-1.7 4.8-1.2 1.2-2.7 1.8-4.6 1.8-.8 0-1.5-.1-2.4-.3-.9-.1-1.5-.4-2.2-.8l.4-1.4c.6.3 1.3.5 1.9.6.6.1 1.4.3 2.2.3 1.5 0 2.7-.4 3.5-1.3.8-.9 1.2-2.1 1.2-3.6v-1.9c-.5.8-1.2 1.4-2.1 1.8-.8.4-1.8.6-2.8.6-1.9 0-3.3-.6-4.4-2.1-1-1.4-1.5-3.2-1.5-5.5-.1 0-.1-.7-.1-.7zm1.8.3c0 1.9.4 3.3 1.2 4.5.8 1.2 1.9 1.7 3.5 1.7 1.2 0 2.1-.3 2.8-.8.8-.5 1.3-1.3 1.7-2.2v-7.2c-.4-.9-.9-1.7-1.7-2.2-.8-.6-1.7-.9-2.8-.9-1.5 0-2.7.6-3.5 1.9-.8 1.3-1.2 2.8-1.2 4.9v.3zM104 6.1h-1.7V3.6h1.7v2.5zm0 20.2h-1.7V10.6h1.7v15.7zm3.8-8.1c0-2.3.6-4.2 1.9-5.7s3-2.2 5-2.2c2.1 0 3.7.8 5 2.2s1.9 3.3 1.9 5.7v.5c0 2.3-.6 4.2-1.9 5.7-1.3 1.4-3 2.2-5 2.2-2.1 0-3.7-.8-5-2.2-1.3-1.4-1.9-3.3-1.9-5.7v-.5zm1.8.5c0 1.8.5 3.3 1.4 4.5.9 1.2 2.2 1.8 3.9 1.8 1.7 0 2.8-.6 3.7-1.8.9-1.2 1.4-2.7 1.4-4.5v-.5c0-1.8-.5-3.3-1.4-4.5-.9-1.2-2.2-1.8-3.9-1.8-1.7 0-2.8.6-3.9 1.8-1 1.2-1.4 2.7-1.4 4.5v.5h.2zm17.2-8.1l.1 2.7c.5-.9 1.2-1.7 2.1-2.2.9-.5 1.8-.8 3.1-.8 1.7 0 3 .5 3.9 1.5.9 1 1.3 2.7 1.3 4.9v9.5h-1.7v-9.5c0-1.8-.4-3.1-1-3.9s-1.7-1.2-2.8-1.2c-1.2 0-2.2.3-3 .9s-1.3 1.5-1.7 2.6V26h-1.7V10.6h1.4zm15.4 15.7V5.2h6.2c2.2 0 3.9.5 5.1 1.4 1.3.9 1.8 2.3 1.8 4.1 0 1-.3 2.1-.9 2.8-.6.8-1.4 1.4-2.4 1.7 1.3.3 2.3.8 3.1 1.8.8 1 1.2 2.1 1.2 3.3 0 1.9-.6 3.3-1.8 4.4-1.2 1-2.8 1.5-4.9 1.5h-7.4zm1.7-11.7h4.9c1.5 0 2.7-.4 3.5-1s1.3-1.7 1.3-3-.4-2.3-1.3-3c-.9-.6-2.2-1-3.9-1H144v8h-.1zm0 1.5v8.6h5.5c1.5 0 2.8-.4 3.6-1.2.9-.8 1.3-1.8 1.3-3.2 0-1.3-.4-2.3-1.2-3.1s-1.9-1.2-3.5-1.2c.1.1-5.7.1-5.7.1zm15.2 2.1c0-2.3.6-4.2 1.9-5.7 1.3-1.4 3-2.2 5-2.2 2.1 0 3.7.8 5 2.2 1.3 1.4 1.9 3.3 1.9 5.7v.5c0 2.3-.6 4.2-1.9 5.7-1.3 1.4-3 2.2-5 2.2-2.1 0-3.7-.8-5-2.2-1.3-1.4-1.9-3.3-1.9-5.7v-.5zm1.7.5c0 1.8.5 3.3 1.4 4.5.9 1.2 2.2 1.8 3.9 1.8 1.7 0 2.8-.6 3.7-1.8.9-1.2 1.4-2.7 1.4-4.5v-.5c0-1.8-.5-3.3-1.4-4.5-.9-1.2-2.2-1.8-3.9-1.8s-2.8.6-3.9 1.8c-1 1.2-1.4 2.7-1.4 4.5v.5h.2zm25.6 7.6c-.1-.5-.3-1-.3-1.4 0-.4-.1-.8-.1-1.2-.5.8-1.3 1.5-2.3 2.1-.9.5-2.1.8-3.2.8-1.5 0-2.7-.4-3.6-1.2-.9-.8-1.3-1.9-1.3-3.2 0-1.4.6-2.6 1.9-3.5 1.3-.9 3-1.3 5-1.3h3.5v-1.9c0-1.2-.4-1.9-1-2.6-.6-.6-1.7-.9-3-.9-1.2 0-2.2.3-3 .9s-1.2 1.3-1.2 2.2h-1.5V15c0-1.2.5-2.2 1.5-3.1 1.2-.9 2.6-1.4 4.2-1.4 1.7 0 3.1.4 4.1 1.3 1 .9 1.5 2.2 1.5 3.7v7.7c0 .5 0 1 .1 1.5s.1 1 .3 1.5c.2.1-1.6.1-1.6.1zm-5.7-1.3c1.3 0 2.3-.3 3.3-.9.9-.6 1.7-1.3 2.1-2.2v-3.2h-3.5c-1.5 0-2.8.4-3.7 1-.9.6-1.4 1.5-1.4 2.4 0 .9.3 1.5.9 2.1.5.5 1.3.8 2.3.8zm18.9-12.9l-1.3-.1c-1 0-1.9.3-2.7.9-.6.6-1.2 1.4-1.5 2.6v10.8h-1.7V10.6h1.5l.3 2.6v.1c.5-.9 1-1.7 1.8-2.3s1.7-.8 2.7-.8h.6s.4.1.5.1l-.2 1.8zm2 6.4c0-2.4.5-4.5 1.5-6s2.6-2.2 4.4-2.2c1 0 2.1.3 2.8.6.8.4 1.4 1.2 1.9 1.9V3.6h1.7v22.5h-1.5l-.1-2.3c-.5.8-1.2 1.4-2.1 1.9-.8.4-1.8.6-2.8.6-1.9 0-3.3-.6-4.4-2.1-1-1.4-1.5-3.2-1.5-5.7v-.1h.1zm1.6.3c0 1.9.4 3.3 1.2 4.5.8 1.2 1.9 1.7 3.5 1.7 1.2 0 2.1-.3 2.8-.8.8-.5 1.3-1.2 1.8-2.1v-7.3c-.4-.9-.9-1.7-1.7-2.2-.8-.5-1.7-.9-2.8-.9-1.5 0-2.7.6-3.5 1.9-.8 1.3-1.2 2.8-1.2 4.9v.3h-.1z"/></svg>