<svg xmlns="http://www.w3.org/2000/svg" viewBox="0 0 101.326 64.637"><path d="M12.23 64.472C6.596 63.308 1.993 58.307.388 51.604.03 50.108 0 48.654 0 32.35 0 12.515-.057 13.333 1.62 9.363c1.605-3.8 4.698-7.023 8.195-8.54l1.67-.723 38.44-.066C92.904-.04 89.912-.162 93.25 1.786c1.45.846 2.197 1.507 3.657 3.23 1.545 1.82 1.99 2.54 2.807 4.545 1.67 4.093 1.66 3.97 1.588 23.678l-.064 17.25-.563 1.96c-1.583 5.507-5.04 9.602-9.69 11.482l-1.656.668-38.072.036c-20.94.02-38.502-.054-39.028-.162zm74.122-5.522c2.61-.248 4.066-.877 5.734-2.476 1.433-1.374 2.425-2.97 3.13-5.043l.494-1.445.06-17.233c.05-15.244.018-17.396-.285-18.644-.948-3.896-3.597-7.046-6.885-8.19-1.038-.36-4.887-.4-37.753-.397-40.5.005-38.134-.09-40.532 1.635C8.89 8.18 7.362 10.043 6.672 11.59 5.514 14.195 5.556 13.5 5.48 31.213c-.046 10.286.007 17.114.14 18.13.653 4.96 4.157 8.95 8.418 9.58 1.73.258 69.638.283 72.314.028z" fill="#4d4d4d"/><path d="M19.114 58.864c-4.807-.094-5.87-.166-6.595-.45-3.103-1.216-5.53-4.14-6.56-7.903-.318-1.165-.342-2.52-.325-17.77.02-17.81.06-18.63 1.026-20.758 1.008-2.222 3.06-4.538 4.812-5.43 1.573-.8 1.89-.806 39.977-.806h36.51l1.158.542c2.83 1.325 4.674 3.454 6.003 6.926.41 1.066.414 1.27.47 18.847l.055 17.772-.51 1.456c-.943 2.696-2.668 5.006-4.676 6.264-1.736 1.086-2.225 1.158-9.005 1.32-7.097.17-53.518.164-62.34-.008z" fill="#fff"/><g fill="#e74c3c"><path d="M53.91 25.772c-6.396 0-11.602 4.695-11.602 10.47 0 2.57.568 5.087 1.563 6.913.94 1.73-.855 3.634-2.294 5.162-.986 1.046-1.765 1.873-1.605 2.555.07.298.305.523.7.674.494.187 1.09.287 1.724.287 1.792 0 3.563-.78 4.74-2.084 1.436-1.59 2.04-3.938 1.746-6.796-.073-.73.075-1.357.406-1.724.2-.222.457-.34.743-.34 1.213 0 3.203 2.12 3.725 7.97.345 3.838 3.825 5.783 10.345 5.783 0 0 .524 0 .624-.307.144-.44-.392-.928-1.763-2.093-1.308-1.114-3.287-2.795-3.184-3.777.023-.234.18-.428.476-.588 1.013-.556 1.588-1.18 1.695-1.87.082-.54-.128-1.096-.612-1.607-.303-.315-.992-.776-1.862-1.36-1.273-.853-3.558-2.388-3.698-3.153h9.468c.072 0 .14-.026.194-.078.05-.055.08-.124.08-.196l-.003-3.4c-.01-5.756-5.22-10.442-11.603-10.442zm-4.67 12.79c-.786 0-1.428-.638-1.428-1.423 0-.786.64-1.425 1.427-1.425.785 0 1.422.64 1.422 1.424 0 .784-.638 1.423-1.423 1.423zm12.727-.283h-8.384c-.66 0-1.198-.51-1.198-1.14 0-.627.538-1.137 1.198-1.137h8.384c.66 0 1.195.51 1.195 1.138 0 .63-.535 1.14-1.195 1.14zM48.944 22.265c-.066-.06-.158-.083-.245-.064-2.556.593-4.87 2.05-6.52 4.107-.06.077-.074.175-.044.264.034.09.108.16.202.178.826.182 1.655.553 2.465 1.103.05.035.103.05.155.05.065 0 .13-.023.183-.068 1.14-.987 2.432-1.764 3.846-2.306.125-.046.195-.176.172-.307-.182-.973-.223-1.886-.124-2.717.01-.088-.024-.178-.09-.238z"/><path d="M65.742 14.886c-4.16-3.198-9.143-4.892-14.402-4.892-13.03 0-23.632 10.6-23.632 23.633 0 2.95.54 5.83 1.603 8.564.088.23.264.187.357.156.23-.072 9.502-3.698 9.502-3.698.14-.054.212-.212.155-.354-.575-1.483-.87-3.054-.87-4.67 0-7.103 5.78-12.882 12.884-12.882 2.87 0 5.582.92 7.845 2.663.062.045.133.066.205.057.072-.01.14-.047.185-.106l6.216-8.082c.046-.056.065-.13.058-.203-.01-.074-.05-.14-.106-.184z"/></g></svg>