<?xml version="1.0" standalone="no"?>
<!DOCTYPE svg PUBLIC "-//W3C//DTD SVG 20010904//EN"
 "http://www.w3.org/TR/2001/REC-SVG-20010904/DTD/svg10.dtd">
<svg version="1.0" xmlns="http://www.w3.org/2000/svg"
 width="512.000000pt" height="512.000000pt" viewBox="0 0 512.000000 512.000000"
 preserveAspectRatio="xMidYMid meet">
<metadata>
Created by potrace 1.11, written by Peter Selinger 2001-2013
</metadata>
<g transform="translate(0.000000,512.000000) scale(0.100000,-0.100000)"
fill="#000000" stroke="none">
<path d="M2355 4904 c-326 -35 -646 -131 -904 -271 -660 -359 -1103 -993
-1218 -1743 -24 -160 -24 -499 1 -664 177 -1164 1160 -2016 2326 -2016 324 0
639 66 939 196 157 69 225 107 386 215 532 358 900 938 1000 1579 23 145 31
438 16 585 -61 608 -348 1161 -806 1553 -120 103 -294 223 -426 295 -212 115
-500 212 -755 252 -96 16 -471 28 -559 19z m355 -1479 l0 -335 70 0 70 0 0
-115 0 -115 93 0 92 -1 80 -121 c44 -66 87 -127 95 -136 12 -13 87 -14 617 -7
l604 7 -3 -108 -3 -109 -661 -3 -661 -2 -89 134 -89 135 -140 3 -140 3 -3 113
-3 112 -54 0 -55 0 0 -115 0 -115 -142 0 -143 0 -75 -135 -75 -135 -700 2
-700 3 0 105 0 105 640 3 640 2 73 130 73 130 100 0 99 0 0 115 0 115 85 0 85
0 0 335 0 335 110 0 110 0 0 -335z m235 -1376 c91 -16 92 -17 70 -88 -10 -34
-19 -61 -19 -61 -1 0 -19 7 -41 15 -61 22 -137 19 -169 -6 -55 -43 -27 -83 93
-133 148 -62 205 -147 171 -259 -17 -57 -83 -119 -146 -138 -61 -17 -194 -16
-254 3 -44 14 -45 15 -43 54 1 21 6 51 12 67 l11 27 42 -17 c61 -25 179 -24
207 1 28 25 27 67 -2 94 -13 12 -52 33 -87 47 -116 45 -168 94 -185 172 -14
68 37 163 107 199 60 31 141 39 233 23z m-675 -274 l0 -275 130 0 130 0 0 -65
0 -65 -210 0 -210 0 0 340 0 340 80 0 80 0 0 -275z"/>
</g>
</svg>
